<svg xmlns="http://www.w3.org/2000/svg" viewBox="0 0 300 300" enable-background="new 0 0 300 300"><path d="M43.08 169.603L150.064 62.618 257.05 169.603 150.063 276.587z"/><path fill="#3F3F3F" d="M150 276.6l-107-107 107-107z"/><path d="M83.088 209.708l66.89-66.892 66.893 66.892-66.89 66.892zM216.9 209.7L150 276.6V142.9z"/><path fill="#262626" d="M150 276.6l-66.9-66.9 66.9-66.8z"/><path d="M126.6 253.126l23.405-23.405 23.405 23.406-23.405 23.405z"/><path fill="#0A0A0A" d="M116.628 176.3l33.446-33.447L183.52 176.3l-33.446 33.444z"/><path fill="#131313" d="M223.6 136.2l-40.2-40.1-33.4 33.4-33.4-33.4-40.2 40.1 40.2 40.1 33.4-33.4 33.4 33.4z"/><path fill="#585858" d="M43 89.4l-23.9 23.9 17.2-17.2L2.9 62.6v66.9L43 169.6l40.1-40.1z"/><path fill="#1E1E1E" d="M109.9 22.5L76.4 55.9 36.3 96.1l40.1 40.1 40.2-40.1 33.4 33.4V62.6z"/><path d="M257 89.4l-40.1 40.1 40.1 40.1 40.1-40.1z"/><path fill="#565656" d="M223.6 55.9l-33.5-33.4L150 62.6v66.9l33.4-33.4-6.5-6.6 6.5 6.6z"/><path fill="#1C1C1C" d="M297.1 62.6L257 22.5l-40.1 40.1-33.5 33.5 40.2 40.1 33.4-33.5z"/><path fill="#898989" d="M190.1 23l33.5 33.4L257 23z"/><path fill="#090909" d="M297.1 62.6l-33.4 33.5 33.4 33.4z"/><path fill="#8A8A8A" d="M43 23L2.9 62.9l33.4 33.3 40.1-40L109.9 23z"/><path fill="#9E3630" d="M-365.917 169.6l106.984-106.984L-151.95 169.6l-106.983 106.984z"/><path fill="#E5655F" d="M-259 276.6l-107-107 107-107z"/><path fill="#812525" d="M-325.91 209.705l66.892-66.89 66.892 66.89-66.892 66.892z"/><path fill="#8D2D29" d="M-192.1 209.7l-66.9 66.9V142.9z"/><path fill="#D35752" d="M-259 276.6l-66.9-66.9 66.9-66.8z"/><path fill="#812525" d="M-282.397 253.124l23.405-23.405 23.405 23.404-23.405 23.405z"/><path fill="#D04137" d="M-292.37 176.296l33.447-33.446 33.445 33.446-33.445 33.446z"/><path fill="#E24136" d="M-185.4 136.2l-40.2-40.1-33.4 33.4-33.4-33.4-40.2 40.1 40.2 40.1 33.4-33.4 33.4 33.4z"/><path fill="#F9726C" d="M-366 89.4l-23.9 23.9 17.2-17.2-33.4-33.5v66.9l40.1 40.1 40.1-40.1z"/><path fill="#F44336" d="M-299.1 22.5l-33.5 33.4-40.1 40.2 40.1 40.1 40.2-40.1 33.4 33.4V62.6z"/><path fill="#AC3C35" d="M-152 89.4l-40.1 40.1 40.1 40.1 40.1-40.1z"/><path fill="#F7716B" d="M-185.4 55.9l-33.5-33.4-40.1 40.1v66.9l33.4-33.4-6.5-6.6 6.5 6.6z"/><path fill="#F34235" d="M-111.9 62.6L-152 22.5l-40.1 40.1-33.5 33.5 40.2 40.1 33.4-33.5z"/><path fill="#FF9997" d="M-218.9 23l33.5 33.4L-152 23z"/><path fill="#CF4036" d="M-111.9 62.6l-33.4 33.5 33.4 33.4z"/><path fill="#FF9A98" d="M-366 23l-40.1 39.9 33.4 33.3 40.1-40 33.5-33.2z"/></svg>