<?xml version="1.0" standalone="no"?>
<!DOCTYPE svg PUBLIC "-//W3C//DTD SVG 1.1//EN" "http://www.w3.org/Graphics/SVG/1.1/DTD/svg11.dtd" >
<svg xmlns="http://www.w3.org/2000/svg">
<metadata></metadata>
<defs>
<font id="p22_underground_prodemi" horiz-adv-x="585" >
<font-face units-per-em="2048" ascent="1536" descent="-512" />
<missing-glyph horiz-adv-x="623" />
<glyph horiz-adv-x="0" />
<glyph horiz-adv-x="682" />
<glyph unicode=" "  horiz-adv-x="623" />
<glyph unicode="&#x09;" horiz-adv-x="623" />
<glyph unicode="&#xa0;" horiz-adv-x="623" />
<glyph unicode="!" d="M129 101v23l153 153h22l154 -153v-23l-154 -153h-22zM162 1307v258l12 12h238l12 -12v-258l-46 -875l-11 -11h-148l-12 11z" />
<glyph unicode="&#x22;" horiz-adv-x="1008" d="M162 1352v213l12 12h238l12 -12v-213l-54 -305l-11 -11h-131l-11 11zM585 1352v213l12 12h239l11 -12v-213l-54 -305l-11 -11h-131l-11 11z" />
<glyph unicode="#" horiz-adv-x="1350" d="M90 477v221l11 12h183l17 225h-177l-12 11v221l12 11h200l22 297l13 12h238l11 -12l-23 -297h217l27 297l11 12h239l11 -12l-24 -297h185l11 -11v-221l-11 -11h-208l-18 -225h203l11 -12v-221l-11 -11h-222l-26 -365l-11 -11h-239l-12 11l26 365h-219l-27 -365l-2 -11 h-248l-12 11l28 365h-163zM546 710h217l19 225h-219z" />
<glyph unicode="$" horiz-adv-x="1170" d="M43 301l205 146h23q54 -107 133 -160t170 -53q102 0 169.5 62.5t67.5 163.5q0 42 -24.5 78t-65.5 63.5t-94 53t-111.5 51.5t-117 55.5t-111.5 68.5t-94 85t-65.5 111.5t-24.5 142.5q0 157 96.5 274t255.5 152v196l11 11h239l11 -11v-200q96 -29 181.5 -94t140.5 -149 l-193 -149h-22q-36 40 -73.5 71t-82.5 52t-86 21q-97 0 -147.5 -48.5t-50.5 -125.5q0 -40 24 -74t65 -61t94 -52.5t111.5 -52t117.5 -56.5t112 -69.5t94 -86.5t65 -113t24 -144q0 -164 -105 -296.5t-269 -176.5v-201l-11 -12h-239l-11 12v192q-140 26 -250.5 110.5 t-161.5 212.5z" />
<glyph unicode="%" horiz-adv-x="1801" d="M90 1227.5q0 99.5 50.5 182.5t136 130.5t185.5 47.5t185.5 -47.5t136 -130.5t50.5 -182.5t-50.5 -182.5t-136 -130.5t-185.5 -47.5t-185.5 47.5t-136 130.5t-50.5 182.5zM226 11l1036 1554l22 12h281l12 -12l-1036 -1554l-23 -11h-282zM344 1227.5q0 -53.5 34.5 -88.5 t83.5 -35t83 35t34 88.5t-34 89t-83 35.5t-83.5 -35.5t-34.5 -89zM969 349q0 99 50.5 182t136 131t185.5 48t185 -48t135.5 -131t50.5 -182t-50.5 -182t-135.5 -130.5t-185 -47.5t-185.5 47t-136 130.5t-50.5 182.5zM1223 348.5q0 -53.5 34 -88t83.5 -34.5t83.5 34.5 t34 88.5t-34 89t-83 35t-83.5 -35.5t-34.5 -89z" />
<glyph unicode="&#x26;" horiz-adv-x="1549" d="M73 455q0 262 267 422q-69 79 -100 154t-31 175q0 110 52 203t145 147t206.5 54t206.5 -54t145 -147t52 -203q0 -121 -71 -217t-195 -162q46 -62 234 -264q89 104 188 282h283l11 -11q-178 -295 -294 -456q189 -193 367 -365l-11 -13h-352q-56 49 -176 169 q-87 -96 -196 -149.5t-232 -53.5q-104 0 -196.5 38.5t-159 103.5t-105 156t-38.5 191zM344 455q0 -91 67.5 -158t160.5 -67q34 0 67.5 8.5t64 25t58 40t51.5 52.5q-63 64 -177 188.5t-138 149.5q-154 -96 -154 -239zM469 1191q0 -101 114 -215q81 50 127.5 101t46.5 114 q0 46 -18.5 81.5t-51 55.5t-72.5 20q-65 0 -105.5 -44t-40.5 -113z" />
<glyph unicode="'" d="M162 1352v213l12 12h238l12 -12v-213l-54 -305l-11 -11h-131l-11 11z" />
<glyph unicode="(" horiz-adv-x="749" d="M90 518q0 188 25.5 365.5t68.5 316.5t86 240t91 182h284l11 -12q-54 -76 -103.5 -182t-93.5 -243.5t-70 -311t-26 -355.5q0 -146 17.5 -289t46.5 -259.5t67.5 -222t78.5 -183.5t83 -138l-11 -11h-284q-48 81 -91 182t-86 239.5t-68.5 316t-25.5 365.5z" />
<glyph unicode=")" horiz-adv-x="749" d="M97 -574q54 76 103.5 182t93 243.5t69.5 311t26 355.5t-26 355.5t-69.5 311t-93 243.5t-103.5 182l11 12h281q48 -81 91 -182t86 -240t68.5 -316.5t25.5 -365.5t-25.5 -365.5t-68.5 -316t-86 -239.5t-91 -182h-281z" />
<glyph unicode="*" horiz-adv-x="1178" d="M90 944v11l349 131l-349 124v11l129 215h11l284 -219l-63 348l11 12h254l12 -12l-64 -348l286 219h11l127 -215v-11l-349 -124l349 -131v-11l-127 -214h-11l-286 227l64 -349l-12 -11h-254l-11 11l63 349l-284 -227h-11z" />
<glyph unicode="+" horiz-adv-x="1170" d="M146 703v239l11 11h298v298l11 11h239l11 -11v-298h298l11 -11v-239l-11 -11h-298v-298l-11 -11h-239l-11 11v298h-298z" />
<glyph unicode="," d="M34 -236q30 10 53.5 31.5t40 53t25.5 73.5t9 93v237l12 12h238l12 -12v-224q0 -131 -84.5 -209.5t-233.5 -78.5q-34 0 -72 12v12z" />
<glyph unicode="-" horiz-adv-x="900" d="M90 410v239l11 11h699l11 -11v-239l-11 -12h-699z" />
<glyph unicode="." d="M162 11v241l12 12h238l12 -12v-241l-12 -11h-238z" />
<glyph unicode="/" horiz-adv-x="759" d="M22 -552l451 2117l11 12h239l12 -12l-451 -2117l-11 -11h-239z" />
<glyph unicode="0" horiz-adv-x="1272" d="M90 789q0 171 37.5 320.5t106 261t173 175.5t231.5 64q126 0 230 -64t172 -175.5t105 -261t37 -320.5t-37 -321t-105 -261.5t-172 -176t-230 -64.5q-127 0 -231.5 64.5t-173 176t-106 261.5t-37.5 321zM370 788.5q0 -163.5 31.5 -289.5t93 -197.5t143.5 -71.5 q81 0 141.5 71.5t92 197.5t31.5 289.5t-31.5 289.5t-92 198t-141.5 72q-82 0 -143.5 -72t-93 -198t-31.5 -289.5z" />
<glyph unicode="1" d="M162 11v1354l12 23l238 200l12 -11v-1566l-12 -11h-238z" />
<glyph unicode="2" horiz-adv-x="1081" d="M67 1075v344q86 90 183.5 140.5t222.5 50.5q99 0 187 -36t149.5 -98t97 -146.5t35.5 -177.5q0 -54 -11 -108.5t-24.5 -96t-42 -98.5t-47 -90t-56.5 -96q-7 -12 -11 -18l-225 -381h455l11 -12v-241l-11 -11h-892l-11 11l423 722q84 142 124 237.5t40 181.5q0 84 -55.5 140 t-135.5 56q-213 0 -394 -284z" />
<glyph unicode="3" horiz-adv-x="1163" d="M45 248l174 176h22q22 -33 40.5 -56.5t46 -51.5t54.5 -45.5t63 -29t75 -11.5q117 0 196 80t79 199q0 75 -42 137t-113.5 97t-155.5 35q-90 0 -180 -39l-11 11l307 563h-544l-11 11v241l11 12h960l11 -12l-307 -594q113 -34 193 -101t121 -158.5t41 -202.5 q0 -75 -19.5 -146t-54.5 -131t-86 -109.5t-111.5 -84t-133 -53.5t-150.5 -19q-141 0 -268 76.5t-207 205.5z" />
<glyph unicode="4" horiz-adv-x="1447" d="M22 396l1085 1221l11 -11v-959h297l11 -11v-240l-11 -11h-297v-374l-11 -11h-242l-11 11v374h-820zM570 647h284v342z" />
<glyph unicode="5" horiz-adv-x="1150" d="M54 200l160 196h22q65 -87 131 -126.5t147 -39.5q74 0 135 33t97 93t36 135q0 65 -27 118.5t-72.5 87.5t-103.5 52.5t-121 18.5q-65 0 -119.5 -11t-124.5 -39l-12 12l75 835l11 12h776l11 -12l-161 -252h-383l-24 -303q74 3 144.5 -12t131.5 -45t112.5 -76t88.5 -103.5 t57.5 -130t20.5 -152.5q0 -110 -43.5 -207.5t-117.5 -167t-175 -110t-212 -40.5q-138 0 -257.5 60t-202.5 174z" />
<glyph unicode="6" horiz-adv-x="1200" d="M90 608q0 114 34 237t89.5 230.5t126 206.5t144 173.5t142.5 121.5h322l11 -12q-74 -60 -146.5 -131t-142.5 -153t-129.5 -175t-97.5 -182q81 43 195 43q103 0 195.5 -39.5t158 -106.5t103.5 -158.5t38 -191.5q0 -83 -24.5 -160t-70 -139t-107.5 -108.5t-140.5 -72 t-164.5 -25.5q-80 0 -155.5 22.5t-145 73.5t-121.5 124t-83 182t-31 240zM365 597q2 -97 24 -170.5t59.5 -115t82 -61.5t95.5 -20q104 0 166 69t62 172q0 102 -63.5 167t-164.5 65q-86 0 -144 -23.5t-117 -82.5z" />
<glyph unicode="7" horiz-adv-x="1208" d="M95 1324v241l11 12h1079l11 -12l-770 -1554l-22 -11h-280l-12 11l651 1302h-657z" />
<glyph unicode="8" horiz-adv-x="1163" d="M90 443q0 134 75.5 241.5t204.5 185.5q-205 131 -205 338q0 115 55.5 207.5t150.5 143.5t210 51q116 0 211.5 -51t151.5 -143.5t56 -207.5q0 -207 -205 -338q84 -50 144.5 -111.5t98 -143t37.5 -172.5q0 -99 -39 -188t-105 -152t-157.5 -100t-193 -37t-192 37t-156 100 t-104 152t-38.5 188zM370 443q0 -99 59 -156t152 -57q94 0 154 57t60 156q0 50 -17.5 95t-50.5 82t-67.5 65t-78.5 56q-44 -28 -77.5 -56t-66 -65t-50 -82t-17.5 -95zM443 1208q0 -118 138 -208q139 89 139 208q0 66 -38.5 103t-100.5 37q-61 0 -99.5 -37t-38.5 -103z" />
<glyph unicode="9" horiz-adv-x="1200" d="M67 1107q0 103 38 196t104.5 160.5t160.5 107t202 39.5q80 0 156 -22.5t146 -73t122 -123.5t83.5 -181.5t31.5 -240.5q0 -113 -34.5 -236t-90.5 -231t-127 -207t-144.5 -173t-142.5 -122h-322l-11 11q159 127 302 298t216 344q-84 -43 -194 -43q-104 0 -196.5 40 t-158 107t-103.5 158t-38 192zM346 1107q0 -51 17 -94t46.5 -73.5t71.5 -48t91 -17.5q88 0 146.5 23.5t117.5 82.5q-1 79 -16.5 142t-40 104.5t-58.5 69.5t-71 40t-78 12q-102 0 -164 -69.5t-62 -171.5z" />
<glyph unicode=":" d="M162 11v241l12 12h238l12 -12v-241l-12 -11h-238zM162 733v241l12 10h238l12 -10v-241l-12 -13h-238z" />
<glyph unicode=";" d="M34 -236q30 10 53.5 31.5t40 53t25.5 73.5t9 93v237l12 12h238l12 -12v-224q0 -131 -84.5 -209.5t-233.5 -78.5q-34 0 -72 12v12zM162 733v241l12 10h238l12 -10v-241l-12 -13h-238z" />
<glyph unicode="&#x3c;" horiz-adv-x="1170" d="M124 714v214l11 11l879 357l11 -12v-265l-11 -13l-539 -183l539 -185l11 -12v-265l-11 -12l-879 354z" />
<glyph unicode="=" horiz-adv-x="1170" d="M146 477v239l11 12h857l11 -12v-239l-11 -11h-857zM146 928v239l11 11h857l11 -11v-239l-11 -11h-857z" />
<glyph unicode="&#x3e;" horiz-adv-x="1170" d="M146 361v265l11 12l539 185l-539 183l-11 13v265l11 12l879 -357l11 -11v-214l-11 -11l-879 -354z" />
<glyph unicode="?" horiz-adv-x="997" d="M58 1329q61 130 167.5 205.5t240.5 75.5q79 0 148.5 -19t123.5 -54.5t93.5 -84.5t60 -110t20.5 -130q0 -67 -18.5 -128.5t-48.5 -108t-66 -88t-72 -76t-66 -65.5t-48.5 -62t-18.5 -60t7.5 -49t20.5 -34.5t40 -35.5l-162 -165q-30 19 -58.5 44t-59 60.5t-49 82.5t-18.5 97 q0 46 14 88.5t37.5 74.5t53.5 65t61.5 60.5t61.5 59.5t53 63.5t37.5 72.5t14.5 86q0 68 -44.5 111t-117.5 43q-138 0 -218 -145h-16zM314 101v23l155 153h22l154 -153v-23l-154 -153h-22z" />
<glyph unicode="@" horiz-adv-x="1892" d="M135 541q0 100 22 194.5t62.5 175.5t96.5 152t126.5 125.5t150.5 94t170 60t183 20.5q168 0 318.5 -62t258 -166.5t171 -248t63.5 -301.5q0 -117 -31 -212.5t-83 -155t-117.5 -91t-137.5 -31.5q-85 0 -142.5 16.5t-112.5 68.5q-33 -27 -73 -46.5t-80.5 -29t-78.5 -9.5 q-31 0 -62.5 5t-63.5 15.5t-60.5 26.5t-53.5 39.5t-43.5 51.5t-28.5 64.5t-10 78.5q0 64 27.5 116t72.5 87t109.5 60t131 38.5t144.5 20.5q0 54 -35 80t-87 26q-80 0 -150.5 -23t-153.5 -83l-12 12l99 247q99 57 221 57q159 0 255.5 -93.5t96.5 -269.5v-167q0 -96 24 -132 t75 -36q49 0 80.5 66t31.5 203q0 114 -43.5 216.5t-118.5 176t-179.5 116.5t-221.5 43q-78 0 -152 -21t-135.5 -59.5t-113 -93t-87.5 -120t-55.5 -143t-19.5 -159.5q0 -122 44.5 -233t120.5 -190.5t180 -126.5t218 -47q82 0 149 17.5t137 60.5h23l93 -196 q-71 -41 -141 -65.5t-130.5 -33.5t-130.5 -9q-108 0 -212 28.5t-193.5 80t-164.5 126t-128 164.5t-83 199t-30 225zM811 376q0 -39 24.5 -58t65.5 -19q78 0 163 52v154q-130 -8 -191.5 -44.5t-61.5 -84.5z" />
<glyph unicode="A" horiz-adv-x="1549" d="M22 11l618 1554l11 12h250l11 -12l616 -1554l-12 -11h-277l-11 11l-131 343h-642l-133 -343l-11 -11h-277zM550 615h452l-226 608z" />
<glyph unicode="B" horiz-adv-x="1303" d="M162 11v1554l12 12h389q153 0 269.5 -49.5t181.5 -144t65 -220.5q0 -92 -38.5 -160t-105.5 -109q138 -51 213 -160.5t75 -249.5q0 -141 -68.5 -252t-188 -171.5t-268.5 -60.5h-524zM424 264h266q111 0 174.5 57t63.5 163q0 103 -64 162t-174 59h-266v-441zM424 969h139 q113 0 166 43t53 136q0 165 -219 165h-139v-344z" />
<glyph unicode="C" horiz-adv-x="1612" d="M103 789q0 111 30 217t83.5 196t130.5 166.5t168.5 129.5t200 82.5t221.5 29.5q319 0 540 -159v-297l-11 -12q-55 46 -116 82.5t-127.5 61t-138.5 37t-147 12.5q-109 0 -208.5 -43t-171 -116t-113.5 -174t-42 -213t42 -213.5t113.5 -175t171 -116.5t208.5 -43 q100 0 194 22.5t178 65.5t157 105l11 -10v-298q-222 -160 -540 -160q-76 0 -150 13.5t-141.5 38.5t-130 61t-116.5 82t-100 99t-82 115t-61.5 128t-39 138.5t-13.5 147.5z" />
<glyph unicode="D" horiz-adv-x="1636" d="M162 11v1554l12 12h529q178 0 334 -62t265 -168t172 -251t63 -307t-63 -307.5t-172 -251.5t-265 -168t-334 -62h-529zM424 264h279q117 0 218 40t171.5 109.5t110.5 166.5t40 209q0 89 -25.5 170t-73.5 145t-113.5 111.5t-149.5 72.5t-178 25h-279v-1049z" />
<glyph unicode="E" horiz-adv-x="1305" d="M162 11v1554l12 12h993l11 -12v-241l-11 -11h-743v-333h552l11 -11v-241l-11 -12h-552v-452h790l11 -12v-241l-11 -11h-1040z" />
<glyph unicode="F" horiz-adv-x="1234" d="M162 11v1554l12 12h982l11 -12v-241l-11 -11h-732v-342h543l11 -12v-241l-11 -11h-543v-696l-12 -11h-238z" />
<glyph unicode="G" horiz-adv-x="1673" d="M103 789q0 111 30 217t84.5 196.5t132.5 166t172 129t206 83t231 29.5q175 0 314.5 -28.5t248.5 -98.5v-296l-11 -11q-206 159 -552 159q-121 0 -226 -42.5t-177 -116.5t-113 -174t-41 -213q0 -115 42 -216t116 -174t181 -115.5t230 -42.5q172 0 302 58v348h-277l-12 11 v238l12 12h529l12 -12v-767q-251 -163 -566 -163q-119 0 -232 29t-208 81.5t-175 128t-135.5 165.5t-86.5 197.5t-31 221.5z" />
<glyph unicode="H" horiz-adv-x="1648" d="M162 11v1554l12 12h238l12 -12v-585h799v585l11 12h241l12 -12v-1554l-12 -11h-241l-11 11v705h-799v-705l-12 -11h-238z" />
<glyph unicode="I" d="M162 11v1554l12 12h238l12 -12v-1554l-12 -11h-238z" />
<glyph unicode="J" horiz-adv-x="1092" d="M22 277l214 110h18q50 -155 193 -155q113 0 157.5 71t44.5 222v1040l11 12h241l11 -12v-1131q0 -101 -31.5 -187t-91 -148.5t-150.5 -97.5t-205 -35q-150 0 -260 83.5t-152 227.5z" />
<glyph unicode="K" horiz-adv-x="1542" d="M162 11v1554l12 12h238l12 -12v-559l628 559l23 12h335l11 -12l-772 -698l871 -856l-11 -11h-353l-23 11l-709 705v-705l-12 -11h-238z" />
<glyph unicode="L" horiz-adv-x="1178" d="M162 9v1559l10 9h243l9 -9v-1304h677l10 -12v-243l-10 -9h-929z" />
<glyph unicode="M" horiz-adv-x="1898" d="M162 11v1554l12 12h232l22 -12l522 -639l521 639l23 12h234l11 -12v-1554l-11 -11h-241l-12 11v1167l-514 -628h-22l-515 628v-1167l-12 -11h-238z" />
<glyph unicode="N" horiz-adv-x="1739" d="M162 11v1554l12 12h250l23 -12l866 -1131v1131l11 12h241l12 -12v-1554l-12 -11h-252l-22 11l-867 1131v-1131l-12 -11h-238z" />
<glyph unicode="O" horiz-adv-x="1873" d="M103 789q0 168 66 320.5t177.5 262t266 174t324.5 64.5q113 0 221 -29t199.5 -81.5t168.5 -128.5t131 -166t84 -197t30 -219.5t-30 -219.5t-84 -197t-131 -166t-168.5 -128.5t-199.5 -82t-221 -29.5q-114 0 -222 29.5t-199.5 82t-168.5 128.5t-130.5 166t-83.5 197 t-30 220zM402 789q0 -113 42 -215t113.5 -175t171 -115.5t209 -42.5t208.5 42.5t170.5 115.5t114 175t42.5 215t-42.5 214.5t-114 174t-170.5 115t-208.5 42.5t-209 -42.5t-171 -115t-113.5 -174t-42 -214.5z" />
<glyph unicode="P" horiz-adv-x="1274" d="M162 11v1554l10 12h486q98 0 185 -25t153 -70.5t114 -107t73 -136t25 -154.5q0 -102 -39.5 -192t-110 -156.5t-174.5 -105.5t-226 -39h-234v-580l-12 -11h-238zM424 851h223q120 0 191.5 63t71.5 170q0 42 -12 78t-35 64t-55 47.5t-73 29.5t-88 10h-223v-462z" />
<glyph unicode="Q" horiz-adv-x="1873" d="M103 789q0 168 66 320.5t177.5 262t266 174t324.5 64.5q113 0 221 -29t199.5 -81.5t168.5 -128.5t131 -166t84 -197t30 -219q0 -261 -149 -473l147 -125v-15l-161 -183h-15l-157 138q-103 -78 -232.5 -121.5t-266.5 -43.5q-114 0 -222 29.5t-199.5 82t-168.5 128.5 t-130.5 166t-83.5 197t-30 220zM402 789q0 -113 42 -215t113.5 -175t171 -115.5t208.5 -42.5q159 0 277 77l-128 108v15l157 183h19l137 -119q74 123 74 284q0 113 -42.5 214.5t-114 174t-170.5 115t-208.5 42.5t-209 -42.5t-171 -115t-113.5 -174t-42 -214.5z" />
<glyph unicode="R" horiz-adv-x="1427" d="M162 11v1554l12 12h428q120 0 220 -35t167.5 -97t104.5 -146t37 -181q0 -90 -30.5 -167t-87.5 -135t-134 -91l527 -714l-11 -11h-309l-11 11l-484 647h-167v-647l-12 -11h-238zM424 920h178q73 0 125 23t79.5 67.5t27.5 107.5q0 94 -61 144.5t-171 50.5h-178v-393z" />
<glyph unicode="S" horiz-adv-x="1178" d="M75 301l207 152h22q89 -212 266 -212q100 0 162.5 64t62.5 168q0 39 -17 74t-39 59.5t-67.5 54.5t-76 46t-90.5 47q-53 27 -80.5 41.5t-76 43.5t-75 51t-61 57t-52 69t-30.5 79.5t-13 95.5q0 88 33.5 166t91 133.5t137.5 87.5t169 32q253 0 413 -240l-200 -149h-22 q-48 59 -92 86.5t-99 27.5q-64 0 -101 -39.5t-37 -104.5q0 -32 23.5 -61t62.5 -53t90 -48.5t107 -52t112 -59t107 -74.5t90.5 -94t62.5 -122t23 -154q0 -102 -40 -195.5t-109 -162t-165.5 -109t-203.5 -40.5q-173 0 -304.5 88.5t-190.5 246.5z" />
<glyph unicode="T" horiz-adv-x="1395" d="M67 1324v241l12 12h1239l11 -12v-241l-11 -11h-489v-1302l-12 -11h-238l-11 11v1302h-489z" />
<glyph unicode="U" horiz-adv-x="1718" d="M162 698v867l12 12h238l12 -12v-821q0 -121 34 -218t93.5 -158.5t138.5 -94t170 -32.5t169.5 32.5t138 94t94 158.5t34.5 218v821l11 12h241l11 -12v-867q0 -135 -36 -252.5t-100 -205t-151.5 -149.5t-192 -93.5t-219.5 -31.5t-219.5 31.5t-191.5 93.5t-151.5 149.5 t-100 205t-35.5 252.5z" />
<glyph unicode="V" horiz-adv-x="1524" d="M22 1565l12 12h273l11 -12l443 -1178l447 1178l11 12h273l11 -12l-604 -1554l-11 -11h-250l-12 11z" />
<glyph unicode="W" horiz-adv-x="2302" d="M22 1565l12 12h273l11 -12l360 -1150l332 1128l11 11h261l12 -11l331 -1128l359 1150l12 12h272l12 -12l-513 -1554l-13 -11h-256l-11 11l-335 1066l-339 -1066l-11 -11h-254l-12 11z" />
<glyph unicode="X" horiz-adv-x="1621" d="M22 11l625 823l-557 731l11 12h309l22 -12l379 -511l378 511l23 12h308l12 -12l-556 -731l623 -823l-11 -11h-309l-22 11l-446 602l-446 -602l-23 -11h-308z" />
<glyph unicode="Y" horiz-adv-x="1441" d="M22 1565l12 12h282l17 -12l387 -529l389 529l17 12h282l11 -12l-568 -789v-765l-11 -11h-238l-11 11v765z" />
<glyph unicode="Z" horiz-adv-x="1425" d="M22 11l852 1302h-790l-11 11v241l11 12h1264l10 -12l-851 -1301h851l12 -14v-239l-12 -11h-1324z" />
<glyph unicode="[" horiz-adv-x="675" d="M73 -574v2184l11 12h490l11 -12v-240l-11 -12h-241v-1680h241l11 -11v-241l-11 -11h-490z" />
<glyph unicode="\" horiz-adv-x="759" d="M22 1565l12 12h239l11 -12l451 -2117l-12 -11h-239l-11 11z" />
<glyph unicode="]" horiz-adv-x="675" d="M90 -333l11 11h241v1680h-241l-11 12v240l11 12h492l11 -12v-2184l-11 -11h-492l-11 11v241z" />
<glyph unicode="^" horiz-adv-x="1170" d="M112 688l354 877l11 12h215l11 -12l356 -877l-12 -13h-265l-12 13l-185 537l-183 -537l-13 -13h-265z" />
<glyph unicode="_" horiz-adv-x="1126" d="M90 -124l11 12h924l11 -12v-241l-11 -11h-924l-11 11v241z" />
<glyph unicode="`" horiz-adv-x="1344" d="M264 1516l9 12h299l23 -12l304 -327l-11 -11h-241l-23 11z" />
<glyph unicode="a" horiz-adv-x="1120" d="M90 279q0 87 35.5 155t93.5 112.5t141 75t170.5 45.5t189.5 21q0 72 -55.5 120t-146.5 48q-92 0 -179.5 -31.5t-190.5 -99.5l-10 12l110 288q132 67 281 67q94 0 175.5 -28t144.5 -82.5t99 -141.5t36 -198v-631l-10 -11h-241l-13 11v34q-118 -79 -258 -79 q-56 0 -108.5 11t-101 35.5t-84 60t-57 89t-21.5 117.5zM361 307q0 -51 36.5 -78t96.5 -27q107 0 226 69v215q-174 -8 -266.5 -55.5t-92.5 -123.5z" />
<glyph unicode="b" horiz-adv-x="1350" d="M162 11v1554l12 12h238l12 -12v-551q54 35 125.5 56.5t144.5 21.5q116 0 219.5 -44t176.5 -119.5t115.5 -179.5t42.5 -220t-42.5 -220t-115.5 -179.5t-176.5 -119.5t-219.5 -44q-73 0 -144.5 22t-125.5 57v-34l-12 -11h-238zM424 340q102 -121 261 -121q84 0 151.5 40 t105.5 111t38 159q0 134 -84 222.5t-211 88.5q-143 0 -261 -122v-378z" />
<glyph unicode="c" horiz-adv-x="1139" d="M103 529q0 116 43 219.5t119 179.5t186.5 120t238.5 44q209 0 359 -112v-266l-11 -11q-159 137 -348 137q-144 0 -231 -88.5t-87 -222t87 -222t231 -88.5q189 0 348 137l11 -12v-265q-152 -113 -359 -113q-128 0 -238.5 44.5t-186.5 120.5t-119 179t-43 219z" />
<glyph unicode="d" horiz-adv-x="1350" d="M103 529q0 77 19.5 150.5t54.5 135t85.5 113.5t111 88t133.5 56t151 20q73 0 144.5 -21.5t125.5 -56.5v551l11 12h239l11 -12v-1554l-11 -11h-239l-11 11v34q-54 -35 -125.5 -57t-144.5 -22q-116 0 -219.5 44t-176.5 119.5t-116 179.5t-43 220zM372 529q0 -134 84 -222 t211 -88q159 0 261 121v378q-118 122 -261 122q-84 0 -151.5 -40t-105.5 -111.5t-38 -159.5z" />
<glyph unicode="e" horiz-adv-x="1225" d="M103 538q0 114 39.5 215.5t109 176.5t173 118.5t224.5 43.5q109 0 202 -44t154 -117t95.5 -167t34.5 -194q0 -61 -11 -95l-17 -11h-737q23 -123 112.5 -192.5t220.5 -69.5q105 0 211.5 42t196.5 121l11 -11v-255q-85 -56 -196.5 -94.5t-222.5 -38.5q-127 0 -238.5 45 t-190.5 121.5t-125 182t-46 223.5zM378 662h494q-8 80 -73 137t-150 57q-105 0 -174 -54t-97 -140z" />
<glyph unicode="f" horiz-adv-x="939" d="M45 806v243l11 10h170v50q0 229 121.5 365t337.5 136q64 0 111 -10t98 -35v-263l-11 -11q-24 20 -48 33.5t-47.5 21t-45 10t-46.5 2.5q-68 0 -114.5 -29.5t-70 -87.5t-23.5 -144v-38h395l11 -12v-241l-11 -11h-395v-784l-11 -11h-241l-10 11v784h-170z" />
<glyph unicode="g" horiz-adv-x="1126" d="M18 -264q0 90 60.5 168.5t166.5 142.5q-85 65 -85 162q0 102 96 178q-61 60 -91 129.5t-30 158.5q0 114 57.5 210t156 151.5t214.5 55.5q83 0 170 -33h348l11 -12v-220l-11 -12h-116q26 -77 26 -140q0 -116 -54.5 -211t-152.5 -149.5t-221 -54.5q-71 0 -124 24 q-22 -22 -22 -45q0 -20 23.5 -35t63.5 -26.5t92 -23t109.5 -26.5t115 -34t109 -49.5t91.5 -69t64 -96t24 -127.5q0 -105 -65 -184t-183.5 -122t-275.5 -43q-98 0 -180.5 10.5t-155 35.5t-123 62.5t-79.5 95t-29 129.5zM288 -245q0 -120 297 -120q124 0 188.5 35.5t64.5 90.5 q0 32 -22.5 59t-55.5 45.5t-80 35t-87 26.5l-86 21.5t-68 19.5q-63 -39 -107 -94.5t-44 -118.5zM383 675.5q0 -76.5 52.5 -130.5t128 -54t128 54t52.5 130.5t-52.5 130.5t-128 54t-128 -54t-52.5 -130.5z" />
<glyph unicode="h" horiz-adv-x="1350" d="M162 11v1554l12 12h238l12 -12v-551q137 78 281 78q125 0 221.5 -34.5t159 -99t94.5 -155.5t32 -206v-586l-11 -11h-240l-11 11v557q0 135 -65.5 203.5t-192.5 68.5q-78 0 -150.5 -30t-117.5 -82v-717l-12 -11h-238z" />
<glyph unicode="i" d="M117 1324v24l165 161h22l165 -161v-24l-165 -164h-22zM162 11v1036l12 12h238l12 -12v-1036l-12 -11h-238z" />
<glyph unicode="j" d="M-63 -333l11 11q45 -22 90 -22q23 0 39.5 3.5t33.5 16.5t27 35.5t17 62t7 95.5v1178l12 12h238l12 -12v-1204q0 -219 -92 -329.5t-272 -110.5q-75 0 -123 23v241zM117 1324v24l165 161h22l165 -161v-24l-165 -164h-22z" />
<glyph unicode="k" horiz-adv-x="1189" d="M162 11v1554l12 12h238l12 -12v-871l369 353l22 12h296l11 -12l-500 -462l545 -574l-11 -11h-296l-22 11l-414 421v-421l-12 -11h-238z" />
<glyph unicode="l" horiz-adv-x="783" d="M140 385v1180l11 12h238l13 -12v-1163q0 -92 37.5 -137.5t103.5 -45.5q117 0 207 90l11 -12v-263q-47 -28 -107.5 -48t-115.5 -20q-192 0 -295 111t-103 308z" />
<glyph unicode="m" horiz-adv-x="2049" d="M162 11v1036l12 12h238l12 -12v-33q66 38 127.5 58t131.5 20q254 0 383 -146q76 68 171.5 107t188.5 39q124 0 217.5 -34t151.5 -99.5t87 -155.5t29 -206v-586l-12 -11h-239l-11 11v557q0 135 -58.5 203.5t-173.5 68.5q-138 0 -250 -112v-717l-11 -11h-239l-12 11v557 q0 90 -26 150.5t-77.5 91t-128.5 30.5q-137 0 -249 -112v-717l-12 -11h-238z" />
<glyph unicode="n" horiz-adv-x="1350" d="M162 11v1036l12 12h238l12 -12v-33q137 78 281 78q125 0 221.5 -34.5t159 -99t94.5 -155.5t32 -206v-586l-11 -11h-240l-11 11v557q0 135 -65.5 203.5t-192.5 68.5q-78 0 -150.5 -30t-117.5 -82v-717l-12 -11h-238z" />
<glyph unicode="o" horiz-adv-x="1333" d="M103 529.5q0 116.5 44 220.5t119 179t179.5 119t221.5 44q93 0 179 -28t155.5 -79.5t121 -120.5t79.5 -155.5t28 -179.5t-28 -179.5t-79.5 -155.5t-121 -120.5t-155.5 -79.5t-179 -28q-117 0 -221.5 44t-179.5 119t-119 179.5t-44 221zM372 529q0 -136 82.5 -223 t212.5 -87q128 0 210 87.5t82 223t-82 223t-210 87.5q-86 0 -153.5 -40t-104.5 -111t-37 -160z" />
<glyph unicode="p" horiz-adv-x="1350" d="M162 -507v1554l12 12h238l12 -12v-33q54 35 125.5 56.5t144.5 21.5q116 0 219.5 -44t176.5 -119.5t115.5 -179.5t42.5 -220t-42.5 -220t-115.5 -179.5t-176.5 -119.5t-219.5 -44q-73 0 -144.5 22t-125.5 57v-552l-12 -11h-238zM424 340q102 -121 261 -121q84 0 151.5 40 t105.5 111t38 159q0 134 -84 222.5t-211 88.5q-143 0 -261 -122v-378z" />
<glyph unicode="q" horiz-adv-x="1350" d="M103 529q0 77 19.5 150.5t54.5 135t85.5 113.5t111 88t133.5 56t151 20q73 0 144.5 -21.5t125.5 -56.5v33l11 12h239l11 -12v-1554l-11 -11h-239l-11 11v552q-54 -35 -125.5 -57t-144.5 -22q-116 0 -219.5 44t-176.5 119.5t-116 179.5t-43 220zM372 529q0 -134 84 -222 t211 -88q159 0 261 121v378q-118 122 -261 122q-84 0 -151.5 -40t-105.5 -111.5t-38 -159.5z" />
<glyph unicode="r" horiz-adv-x="954" d="M162 11v1036l12 12h238l12 -12v-33q137 78 281 78q114 0 203 -45l12 -263l-12 -12q-82 68 -216 68q-78 0 -150.5 -30t-117.5 -82v-717l-12 -11h-238z" />
<glyph unicode="s" horiz-adv-x="1058" d="M112 759q0 67 29 128t80.5 106.5t128 72t166.5 26.5q204 0 349 -90v-254l-11 -11q-89 58 -170 83t-168 25q-61 0 -97 -23.5t-36 -62.5q0 -25 20 -42.5t54 -28t78 -20t92.5 -20.5t97 -26t92.5 -40.5t78 -59.5t54 -87.5t20 -120.5q0 -72 -31 -135.5t-87 -110.5 t-139.5 -74.5t-182.5 -27.5q-107 0 -219.5 26.5t-185.5 74.5v260l11 11q93 -59 196.5 -91.5t197.5 -32.5q93 0 131 24.5t38 75.5q0 27 -20 47.5t-53.5 33.5t-77.5 23.5t-93 22t-97.5 26.5t-92.5 39t-78 56t-54 82.5t-20 114.5z" />
<glyph unicode="t" horiz-adv-x="961" d="M45 806v241l11 12h180v259l12 11h240l12 -13v-257h405l12 -12v-241l-12 -11h-405v-337q0 -127 47 -183t122 -56q127 0 236 78l12 -11v-252q-29 -18 -74 -33.5t-92 -25t-82 -9.5q-212 0 -322.5 123t-110.5 345v361h-180z" />
<glyph unicode="u" horiz-adv-x="1350" d="M140 462v585l11 12h238l13 -12v-556q0 -135 65.5 -203.5t192.5 -68.5q78 0 150.5 30t117.5 82v716l11 12h239l11 -12v-1036l-11 -11h-239l-11 11v34q-139 -79 -281 -79q-249 0 -378 131.5t-129 364.5z" />
<glyph unicode="v" horiz-adv-x="1144" d="M22 1047l12 12h267l13 -12l258 -691l262 691l11 12h266l11 -12l-424 -1036l-10 -11h-230l-11 11z" />
<glyph unicode="w" horiz-adv-x="1819" d="M22 1047l12 12h267l13 -12l258 -684l223 639l11 12h208l11 -12l223 -639l261 684l11 12h269l8 -12l-423 -1036l-11 -11h-230l-11 11l-212 552l-212 -552l-10 -11h-230l-11 11z" />
<glyph unicode="x" horiz-adv-x="1118" d="M22 11l384 541l-361 495l11 12h284l23 -12l196 -277l198 277l23 12h284l11 -12l-361 -495l383 -541l-11 -11h-284l-22 11l-221 311l-219 -311l-22 -11h-284z" />
<glyph unicode="y" horiz-adv-x="1247" d="M22 1047l12 12h275l22 -12l293 -639l293 639l22 12h275l11 -12l-651 -1307q-29 -50 -59.5 -89.5t-74.5 -76.5t-95 -61.5t-120 -39t-150 -14.5l-12 16v214l12 12q196 0 281 170l126 258z" />
<glyph unicode="z" horiz-adv-x="1021" d="M36 11l491 784h-437l-9 11v241l11 12h875l11 -12l-492 -783h481l11 -12v-241l-11 -11h-920z" />
<glyph unicode="{" horiz-adv-x="873" d="M90 398v240l11 11q121 0 179 57t58 150q0 62 -11 156t-11 142q0 97 23.5 176t65.5 133t100 90.5t124.5 52.5t142.5 16l12 -12v-240l-12 -12q-47 0 -83 -16.5t-57 -46t-31 -65t-10 -76.5q0 -48 12 -142t12 -156q0 -99 -44 -187.5t-132 -150.5q59 -42 99.5 -97.5 t58.5 -115.5t18 -125q0 -62 -12 -155t-12 -142q0 -42 10 -77.5t31 -65t57 -46t83 -16.5l12 -11v-241l-12 -11q-76 0 -142.5 16.5t-124.5 52.5t-100 90t-65.5 133t-23.5 176q0 49 11 142t11 155q0 93 -58 150t-179 57z" />
<glyph unicode="|" d="M162 -664v2229l12 12h238l12 -12v-2229l-12 -11h-238z" />
<glyph unicode="}" horiz-adv-x="873" d="M90 -333l11 11q48 0 84.5 16.5t58 46t32 65t10.5 77.5q0 49 -13 142t-13 155q0 99 44 187.5t133 150.5q-89 62 -133 150.5t-44 187.5q0 62 13 156t13 142q0 32 -6.5 61.5t-20.5 56t-35 45.5t-52.5 30t-70.5 11l-11 12v240l11 12q76 0 143 -16t125 -52.5t100 -90.5 t66 -133t24 -176q0 -48 -11.5 -142t-11.5 -156q0 -93 58 -150t178 -57l12 -11v-240l-12 -11q-61 0 -107.5 -16t-74 -44.5t-41 -65t-13.5 -81.5q0 -62 11.5 -155t11.5 -142q0 -97 -24 -176t-66 -133t-100 -90t-125 -52.5t-143 -16.5l-11 11v241z" />
<glyph unicode="~" horiz-adv-x="1170" d="M110 703q14 33 31 64t39 63.5t48.5 59t56.5 48t66 33t75 11.5q51 0 108.5 -13.5t103.5 -30t118.5 -30.5t148.5 -14q79 0 144 59l13 -11q-18 -41 -38.5 -77.5t-50.5 -74.5t-62.5 -65.5t-75.5 -45t-89 -17.5q-51 0 -109 13.5t-104 29.5t-119 29.5t-150 13.5q-75 0 -142 -56 z" />
<glyph unicode="&#xa1;" d="M129 912v23l153 153h22l154 -153v-23l-154 -153h-22zM162 -271l45 875l12 11h148l11 -11l46 -875v-258l-12 -12h-238l-12 12v258z" />
<glyph unicode="&#xa2;" horiz-adv-x="1161" d="M95 800q0 80 20 154.5t59 138t93 115t124 87.5t150 53v217l11 12h220l12 -12v-211q155 -22 257 -103v-267l-11 -10q-108 99 -246 127v-603q126 26 246 128l11 -11v-266q-100 -80 -257 -106v-232l-12 -11h-220l-11 11v239q-133 28 -235 107.5t-156.5 194t-54.5 248.5z M365 799.5q0 -96.5 46 -170.5t130 -113v568q-84 -39 -130 -113.5t-46 -171z" />
<glyph unicode="&#xa3;" horiz-adv-x="1378" d="M45 11q97 81 159 235.5t80 332.5h-174l-11 12l92 238l11 11h102q9 162 30 282.5t58 215t92 153.5t131.5 89t177.5 30q66 0 121.5 -19t100 -55t86.5 -92l-151 -272h-15q-6 33 -18.5 63t-31 56.5t-46 42.5t-59.5 16q-63 0 -102.5 -45t-63.5 -157t-33 -308h363l11 -11 l-93 -238l-11 -12h-288q-14 -185 -72 -315h857l10 -12l-137 -243l-22 -9h-1143z" />
<glyph unicode="&#xa4;" horiz-adv-x="1170" d="M36 421v22l121 122q-69 112 -69 246q0 141 74 253l-126 127v23l158 158h23l137 -138q109 52 220 52q126 0 234 -61l147 147h23l157 -158v-23l-139 -142q66 -111 66 -238q0 -125 -64 -230l137 -138v-22l-157 -157h-23l-138 138q-111 -66 -243 -66q-126 0 -230 56 l-127 -128h-23zM336 811q0 -98 70 -168.5t168 -70.5t168.5 70.5t70.5 168.5t-70.5 168t-168.5 70q-64 0 -119 -32t-87 -87t-32 -119z" />
<glyph unicode="&#xa5;" horiz-adv-x="1208" d="M22 1565l12 12h267l23 -12l280 -513l282 516l22 9h268l11 -12l-364 -615h263l11 -11v-241l-11 -10h-349v-136h349l11 -11v-242l-11 -11h-349v-277l-12 -11h-241l-11 11v277h-349l-12 11v242l12 11h349v136h-349l-12 10v241l12 11h263z" />
<glyph unicode="&#xa6;" d="M162 318l12 11h238l12 -11v-982l-12 -11h-238l-12 11v982zM162 583v982l12 12h238l12 -12v-982l-12 -11h-238z" />
<glyph unicode="&#xa7;" horiz-adv-x="1292" d="M95 789q0 111 47.5 208t132.5 166v54q0 90 32.5 165t88 124.5t127.5 76.5t152 27q240 0 406 -227l-191 -151h-11q-24 24 -39 37.5t-35.5 29t-38.5 23.5t-41 13.5t-50 5.5q-57 0 -85.5 -33.5t-28.5 -90.5q0 -29 18 -54t48.5 -45t71.5 -42.5t87 -43t94 -48t94 -57t87 -71 t71.5 -89t48.5 -111.5t18 -138q0 -113 -54 -212t-143 -171v-34q0 -116 -55 -209t-151.5 -144.5t-216.5 -51.5q-160 0 -275.5 75.5t-174.5 219.5l209 153h11q49 -102 99 -140t131 -38q62 0 100.5 36.5t38.5 98.5q0 30 -17.5 56t-47.5 46t-69.5 41.5t-84.5 41t-92.5 46 t-92.5 54.5t-85 68.5t-69.5 87t-47 110t-17.5 137.5zM387 789q0 -50 23 -91t59.5 -69.5t89 -58t102.5 -53t109 -58t102 -70.5q33 55 33 129q0 49 -22.5 90.5t-58.5 70t-87.5 58t-101 53t-108.5 58t-101 69.5q-39 -63 -39 -128z" />
<glyph unicode="&#xa8;" horiz-adv-x="1333" d="M254 1324v24l150 146h22l146 -146v-24l-146 -148h-22zM759 1324v24l149 146h23l146 -146v-24l-146 -148h-23z" />
<glyph unicode="&#xa9;" horiz-adv-x="1801" d="M90 789q0 99 22 194t62.5 176t96.5 151.5t126.5 125.5t150.5 94t170 59.5t183 20.5t183 -20.5t170 -59.5t150.5 -94t126.5 -125.5t96.5 -151.5t62.5 -176t22 -194q0 -116 -30 -225t-83 -199t-128.5 -165t-164.5 -126t-193 -79.5t-212.5 -28.5t-212 28.5t-193 79.5 t-164.5 126t-128 165t-83 199t-30 225zM338 789q0 -99 28.5 -191t80.5 -165t121.5 -127.5t155.5 -84.5t177 -30q114 0 218 47t179.5 126t120.5 190t45 234.5t-45 234.5t-120.5 190.5t-179.5 126t-218 46.5t-218 -46.5t-180 -126t-120.5 -190.5t-44.5 -234zM484 800 q0 87 35 166t93.5 136.5t140 91.5t171.5 34q77 0 143 -18.5t109 -51.5v-241l-11 -12q-95 86 -241 86q-79 0 -135 -56t-56 -135.5t56 -135.5t135 -56q134 0 241 97l11 -15v-237q-46 -35 -112.5 -58t-139.5 -23q-120 0 -221 57t-160 155.5t-59 215.5z" />
<glyph unicode="&#xaa;" horiz-adv-x="900" d="M79 1251q0 98 49.5 181t132.5 130.5t180 47.5q87 0 142 -37v15l12 11h220l12 -11v-676l-12 -11h-220l-12 11v16q-57 -38 -142 -38q-58 0 -112.5 18t-99.5 51.5t-78.5 77.5t-52.5 99.5t-19 114.5zM101 591v220l11 12h703l12 -12v-220l-12 -12h-703zM318 1250.5 q0 -58.5 38 -99t95 -40.5q86 0 132 80v118q-43 81 -132 81q-57 0 -95 -40.5t-38 -99z" />
<glyph unicode="&#xab;" horiz-adv-x="1028" d="M54 518v23l440 439l11 -11v-305l-140 -135l140 -135v-304l-11 -11zM477 518v23l440 439l11 -11v-305l-139 -135l139 -135v-304l-11 -11z" />
<glyph unicode="&#xac;" horiz-adv-x="1170" d="M146 683v241l11 11h857l11 -11v-530l-11 -11h-242l-11 11v277h-604z" />
<glyph unicode="&#xad;" horiz-adv-x="900" d="M90 410v239l11 11h699l11 -11v-239l-11 -12h-699z" />
<glyph unicode="&#xae;" horiz-adv-x="1170" d="M90 1148.5q0 100.5 39.5 192.5t105.5 158.5t158 105.5t192.5 39t192 -39t158 -105.5t106 -158.5t39.5 -192.5t-39.5 -192t-106 -158t-158 -106t-192 -39.5t-192.5 39.5t-158 106t-105.5 158t-39.5 192zM243 1148q0 -96 46 -177.5t124.5 -128.5t171.5 -47q69 0 132.5 28 t109.5 75t73.5 112.5t27.5 137.5q0 96 -46.5 178t-125.5 129.5t-171 47.5q-69 0 -132.5 -28t-109.5 -75.5t-73 -113t-27 -138.5zM412 912v485l12 11h157q54 0 98.5 -18.5t74.5 -61.5t30 -105q0 -52 -22 -85.5t-64 -60.5l110 -165l-10 -11h-125l-22 11l-81 135h-29v-135 l-12 -11h-105zM541 1167h40q13 0 24.5 3.5t20 10t14 17.5t5.5 25q0 27 -19 41.5t-45 14.5h-40v-112z" />
<glyph unicode="&#xaf;" horiz-adv-x="1333" d="M297 1223v223l12 12h716l11 -12v-223l-11 -11h-716z" />
<glyph unicode="&#xb0;" horiz-adv-x="900" d="M79 1273q0 98 50 181t135.5 131.5t186.5 48.5q75 0 144 -28.5t119 -77t79.5 -115.5t29.5 -140.5t-29.5 -140.5t-79.5 -115t-119 -76.5t-144 -28.5t-144 28.5t-119 76.5t-79.5 115t-29.5 141zM333 1273q0 -52 34.5 -88.5t83.5 -36.5t83 36.5t34 88.5t-34 88t-83 36 t-83.5 -36t-34.5 -88z" />
<glyph unicode="&#xb1;" horiz-adv-x="1170" d="M146 11v239l11 12h857l11 -12v-239l-11 -11h-857zM146 720v239l11 12h298v297l11 11h239l11 -11v-297h298l11 -12v-239l-11 -10h-298v-298l-11 -10h-239l-11 10v298h-298z" />
<glyph unicode="&#xb2;" horiz-adv-x="716" d="M45 1002l269 428q41 71 56 120.5t15 93.5q0 47 -27.5 77.5t-69.5 30.5q-39 0 -69.5 -9.5t-54 -31t-39.5 -42t-37 -54.5l-11 12v252q50 44 103.5 68t126.5 24q59 0 114.5 -23.5t98.5 -64t69 -101t26 -129.5q0 -127 -106 -310l-75 -133h181l11 -11v-197l-11 -11h-559z" />
<glyph unicode="&#xb3;" horiz-adv-x="738" d="M50 1104l137 158h11q38 -46 71.5 -66t76.5 -20q50 0 85 35.5t35 86.5q0 60 -36 95t-106 35q-60 0 -128 -22l-11 11l169 302h-289l-11 11v196l11 11h599l11 -11l-179 -338q95 -43 144.5 -116t49.5 -184q0 -90 -48 -167t-127 -120.5t-169 -43.5q-39 0 -79 9t-78.5 26.5 t-74.5 46t-64 65.5z" />
<glyph unicode="&#xb4;" horiz-adv-x="1333" d="M432 1189l305 327l22 12h300l9 -12l-361 -327l-22 -11h-242z" />
<glyph unicode="&#xb5;" horiz-adv-x="1359" d="M162 -507v1554l12 12h252l11 -12v-567q0 -131 68 -196t185 -65q82 0 156 30t123 82q-8 189 -8 462v254l13 12h240l11 -12v-258q0 -274 12.5 -455.5t44.5 -322.5l-12 -11h-240l-11 11l-13 68q-75 -57 -162.5 -85t-168.5 -28q-133 0 -238 43v-516l-11 -11h-252z" />
<glyph unicode="&#xb6;" horiz-adv-x="1509" d="M90 1084q0 101 38 191t106.5 157t171 106t224.5 39h690l9 -12v-1554l-11 -11h-241l-11 11v1302h-217v-1302l-11 -11h-241l-12 11v580q-110 6 -203.5 47.5t-157 107.5t-99 153.5t-35.5 184.5z" />
<glyph unicode="&#xb7;" d="M162 733v241l12 10h238l12 -10v-241l-12 -13h-238z" />
<glyph unicode="&#xb8;" horiz-adv-x="1333" d="M376 -447l99 123h11q55 -48 105 -48q33 0 53 18t20 47q0 16 -7 30.5t-24.5 28t-48 15t-77.5 -7.5l-11 11l72 230h198l-25 -103q40 -18 69 -45t46.5 -68t17.5 -91q0 -70 -39.5 -127t-104 -87.5t-139.5 -30.5q-64 0 -123.5 27t-91.5 78z" />
<glyph unicode="&#xb9;" horiz-adv-x="540" d="M162 1002v755l12 23l193 169l11 -12v-935l-11 -11h-193z" />
<glyph unicode="&#xba;" horiz-adv-x="900" d="M79 1251q0 73 29.5 140t79.5 115t119 76t144 28t144 -28t119 -76t79.5 -115t29.5 -140.5t-29.5 -140.5t-79.5 -115t-119 -76.5t-144 -28.5q-101 0 -186.5 48t-135.5 131t-50 182zM101 591v220l11 12h699l12 -12v-220l-12 -12h-699zM318 1250.5q0 -58.5 40 -99t93 -40.5 t92.5 40.5t39.5 99t-39.5 99t-92.5 40.5t-93 -40.5t-40 -99z" />
<glyph unicode="&#xbb;" horiz-adv-x="1028" d="M99 90v304l142 135l-142 135v305l11 11l440 -439v-23l-440 -439zM522 90v304l142 135l-142 135v305l12 11l440 -439v-23l-440 -439z" />
<glyph unicode="&#xbc;" horiz-adv-x="1801" d="M148 642v755l12 22l196 169l11 -11v-935l-11 -12h-196zM230 11l879 1554l22 12h262l11 -12l-879 -1554l-22 -11h-262zM901 217l672 770l11 -11v-570h148l12 -12v-177l-12 -12h-148v-194l-11 -11h-178l-12 11v194h-471zM1262 406h121v148z" />
<glyph unicode="&#xbd;" horiz-adv-x="1801" d="M148 642v755l12 22l196 169l11 -11v-935l-11 -12h-196zM212 11l878 1554l23 12h261l12 -12l-881 -1554l-23 -11h-259zM1126 11l269 428q15 25 26.5 48t19 42.5t12.5 36t8 32.5t4 29t1 26q0 31 -12.5 56t-34.5 38.5t-49 13.5q-32 0 -58.5 -7.5t-45.5 -18.5t-37.5 -30.5 t-30.5 -36.5t-29 -44l-11 12v252q24 21 46.5 36.5t50.5 28.5t61.5 20t71.5 7q59 0 114.5 -23.5t98.5 -64t69 -101t26 -129.5q0 -129 -105 -311l-75 -132h180l11 -12v-196l-11 -11h-559z" />
<glyph unicode="&#xbe;" horiz-adv-x="1801" d="M63 744l135 157h14q38 -46 72 -66t77 -20q24 0 45.5 9.5t37 25.5t24.5 39.5t9 49.5q0 59 -35.5 94t-103.5 35q-57 0 -129 -23l-11 12l167 301h-286l-10 9v201l10 9h599l12 -12l-181 -337q95 -44 144.5 -116t49.5 -181q0 -92 -48 -169t-126.5 -121t-167.5 -44 q-84 0 -164.5 37t-133.5 110zM346 11l879 1554l23 12h261l11 -12l-880 -1554l-23 -11h-258zM901 217l672 770l11 -11v-570h148l12 -12v-177l-12 -12h-148v-194l-11 -11h-178l-12 11v194h-471zM1262 406h121v148z" />
<glyph unicode="&#xbf;" horiz-adv-x="997" d="M86 -176q0 67 18.5 128.5t48.5 108t66 88.5t72 76.5t65.5 65t48.5 62t19 59.5q0 42 -14 65.5t-54 53.5l162 165q30 -19 58 -43.5t58.5 -60.5t49.5 -83t19 -97q0 -52 -18.5 -99t-48 -83.5t-65 -71l-71 -69t-65 -70t-47.5 -81t-18 -95.5q0 -68 44.5 -111t116.5 -43 q139 0 219 144h16l173 -126q-60 -130 -167 -205.5t-241 -75.5q-131 0 -232.5 51.5t-157 142t-55.5 204.5zM354 912v23l153 153h22l156 -153v-23l-156 -153h-22z" />
<glyph unicode="&#xc0;" horiz-adv-x="1549" d="M22 11l618 1554l11 12h250l11 -12l616 -1554l-12 -11h-277l-11 11l-131 343h-642l-133 -343l-11 -11h-277zM351 1989l10 12h322l22 -12l305 -282l-12 -11h-263l-23 11zM550 615h452l-226 608z" />
<glyph unicode="&#xc1;" horiz-adv-x="1549" d="M22 11l618 1554l11 12h250l11 -12l616 -1554l-12 -11h-277l-11 11l-131 343h-642l-133 -343l-11 -11h-277zM543 1707l304 282l23 12h321l10 -12l-361 -282l-23 -11h-263zM550 615h452l-226 608z" />
<glyph unicode="&#xc2;" horiz-adv-x="1549" d="M22 11l618 1554l11 12h250l11 -12l616 -1554l-12 -11h-277l-11 11l-131 343h-642l-133 -343l-11 -11h-277zM351 1707l271 280l23 14h263l23 -12l270 -282l-12 -11h-263l-23 11l-127 135l-127 -135l-23 -11h-263zM550 615h452l-226 608z" />
<glyph unicode="&#xc3;" horiz-adv-x="1549" d="M22 11l618 1554l11 12h250l11 -12l616 -1554l-12 -11h-277l-11 11l-131 343h-642l-133 -343l-11 -11h-277zM293 1730q42 116 122.5 189.5t190.5 73.5q52 0 116 -15t115 -33t118 -33.5t124 -15.5q29 0 58 8t58.5 25.5t50.5 43.5l11 -11q-42 -115 -122.5 -189.5 t-190.5 -74.5q-52 0 -116 15.5t-114.5 33.5t-117.5 33t-125 15q-46 0 -90.5 -18.5t-76.5 -57.5zM550 615h452l-226 608z" />
<glyph unicode="&#xc4;" horiz-adv-x="1549" d="M22 11l618 1554l11 12h250l11 -12l616 -1554l-12 -11h-277l-11 11l-131 343h-642l-133 -343l-11 -11h-277zM327 1836v23l159 157h23l158 -157v-23l-158 -160h-23zM550 615h452l-226 608zM883 1836v23l160 157h23l157 -157v-23l-157 -160h-23z" />
<glyph unicode="&#xc5;" horiz-adv-x="1549" d="M22 11l618 1554l11 12h250l11 -12l616 -1554l-12 -11h-277l-11 11l-131 343h-642l-133 -343l-11 -11h-277zM550 615h452l-226 608zM554 1832q0 85 65.5 145.5t156 60.5t155.5 -60.5t65 -145.5q0 -58 -30 -106t-80.5 -76t-109.5 -28q-91 0 -156.5 61.5t-65.5 148.5z M698 1832q0 -34 22.5 -56t55 -22t54 22t21.5 56q0 32 -21.5 53t-54 21t-55 -21.5t-22.5 -52.5z" />
<glyph unicode="&#xc6;" horiz-adv-x="2360" d="M22 11l1172 1554l23 12h1004l12 -12v-241l-12 -11h-740v-337h551l12 -11v-242l-12 -11h-551v-448h789l12 -12v-241l-12 -11h-1042l-11 11v343h-602l-252 -343l-23 -11h-306zM806 615h411v548z" />
<glyph unicode="&#xc7;" horiz-adv-x="1612" d="M103 789q0 111 30 217t83.5 196t130.5 166.5t168.5 129.5t200 82.5t221.5 29.5q319 0 540 -159v-297l-11 -12q-55 46 -116 82.5t-127.5 61t-138.5 37t-147 12.5q-109 0 -208.5 -43t-171 -116t-113.5 -174t-42 -213t42 -213.5t113.5 -175t171 -116.5t208.5 -43 q100 0 194 22.5t178 65.5t157 105l11 -10v-298q-222 -160 -540 -160q-76 0 -150 13.5t-141.5 38.5t-130 61t-116.5 82t-100 99t-82 115t-61.5 128t-39 138.5t-13.5 147.5zM768 -518l52 372l23 11h238l11 -11l-116 -372l-11 -11h-185z" />
<glyph unicode="&#xc8;" horiz-adv-x="1305" d="M162 11v1554l12 12h993l11 -12v-241l-11 -11h-743v-333h552l11 -11v-241l-11 -12h-552v-452h790l11 -12v-241l-11 -11h-1040zM275 1989l9 12h322l22 -12l305 -282l-11 -11h-264l-22 11z" />
<glyph unicode="&#xc9;" horiz-adv-x="1305" d="M162 11v1554l12 12h993l11 -12v-241l-11 -11h-743v-333h552l11 -11v-241l-11 -12h-552v-452h790l11 -12v-241l-11 -11h-1040zM466 1707l304 282l23 12h322l9 -12l-361 -282l-22 -11h-264z" />
<glyph unicode="&#xca;" horiz-adv-x="1305" d="M162 11v1554l12 12h993l11 -12v-241l-11 -11h-743v-333h552l11 -11v-241l-11 -12h-552v-452h790l11 -12v-241l-11 -11h-1040zM275 1707l271 280l22 14h264l22 -12l270 -282l-11 -11h-264l-22 11l-129 135l-126 -135l-22 -11h-264z" />
<glyph unicode="&#xcb;" horiz-adv-x="1305" d="M162 11v1554l12 12h993l11 -12v-241l-11 -11h-743v-333h552l11 -11v-241l-11 -12h-552v-452h790l11 -12v-241l-11 -11h-1040zM250 1836v23l160 157h22l159 -157v-23l-159 -160h-22zM806 1836v23l161 157h22l157 -157v-23l-157 -160h-22z" />
<glyph unicode="&#xcc;" d="M-90 1989l9 12h329l23 -12l254 -282l-11 -11h-266l-22 11zM162 11v1554l12 12h238l12 -12v-1554l-12 -11h-238z" />
<glyph unicode="&#xcd;" d="M60 1707l256 282l22 12h329l8 -12l-314 -282l-23 -11h-265zM162 11v1554l12 12h238l12 -12v-1554l-12 -11h-238z" />
<glyph unicode="&#xce;" d="M-90 1707l225 282l22 12h269l23 -12l224 -282l-11 -11h-256l-23 11l-90 107l-91 -107l-22 -11h-259zM162 11v1554l12 12h238l12 -12v-1554l-12 -11h-238z" />
<glyph unicode="&#xcf;" d="M-101 1836v23l159 157h23l158 -157v-23l-158 -160h-23zM162 11v1554l12 12h238l12 -12v-1554l-12 -11h-238zM346 1836v23l159 157h22l161 -157v-23l-161 -160h-22z" />
<glyph unicode="&#xd0;" horiz-adv-x="1636" d="M0 692v241l11 11h151v621l12 12h529q178 0 334 -62t265 -168t172 -251t63 -307t-63 -307.5t-172 -251.5t-265 -168t-334 -62h-529l-12 11v669h-151zM424 264h279q117 0 218 40t171.5 109.5t110.5 166.5t40 209q0 89 -25.5 170t-73.5 145t-113.5 111.5t-149.5 72.5 t-178 25h-279v-369h362l12 -11v-241l-12 -12h-362v-416z" />
<glyph unicode="&#xd1;" horiz-adv-x="1739" d="M162 11v1554l12 12h250l23 -12l866 -1131v1131l11 12h241l12 -12v-1554l-12 -11h-252l-22 11l-867 1131v-1131l-12 -11h-238zM421 1730q42 116 123 189.5t191 73.5q52 0 116 -15t115 -33t117.5 -33.5t124.5 -15.5q45 0 89.5 19.5t76.5 57.5l12 -11q-42 -115 -123 -189.5 t-191 -74.5q-52 0 -115.5 15.5t-114.5 33.5t-117.5 33t-124.5 15q-46 0 -91 -18.5t-77 -57.5z" />
<glyph unicode="&#xd2;" horiz-adv-x="1873" d="M103 789q0 168 66 320.5t177.5 262t266 174t324.5 64.5q113 0 221 -29t199.5 -81.5t168.5 -128.5t131 -166t84 -197t30 -219.5t-30 -219.5t-84 -197t-131 -166t-168.5 -128.5t-199.5 -82t-221 -29.5q-114 0 -222 29.5t-199.5 82t-168.5 128.5t-130.5 166t-83.5 197 t-30 220zM402 789q0 -113 42 -215t113.5 -175t171 -115.5t209 -42.5t208.5 42.5t170.5 115.5t114 175t42.5 215t-42.5 214.5t-114 174t-170.5 115t-208.5 42.5t-209 -42.5t-171 -115t-113.5 -174t-42 -214.5zM514 1989l8 12h323l22 -12l305 -282l-12 -11h-264l-22 11z" />
<glyph unicode="&#xd3;" horiz-adv-x="1873" d="M103 789q0 168 66 320.5t177.5 262t266 174t324.5 64.5q113 0 221 -29t199.5 -81.5t168.5 -128.5t131 -166t84 -197t30 -219.5t-30 -219.5t-84 -197t-131 -166t-168.5 -128.5t-199.5 -82t-221 -29.5q-114 0 -222 29.5t-199.5 82t-168.5 128.5t-130.5 166t-83.5 197 t-30 220zM402 789q0 -113 42 -215t113.5 -175t171 -115.5t209 -42.5t208.5 42.5t170.5 115.5t114 175t42.5 215t-42.5 214.5t-114 174t-170.5 115t-208.5 42.5t-209 -42.5t-171 -115t-113.5 -174t-42 -214.5zM705 1707l305 282l22 12h322l9 -12l-361 -282l-22 -11h-264z" />
<glyph unicode="&#xd4;" horiz-adv-x="1873" d="M103 789q0 168 66 320.5t177.5 262t266 174t324.5 64.5q113 0 221 -29t199.5 -81.5t168.5 -128.5t131 -166t84 -197t30 -219.5t-30 -219.5t-84 -197t-131 -166t-168.5 -128.5t-199.5 -82t-221 -29.5q-114 0 -222 29.5t-199.5 82t-168.5 128.5t-130.5 166t-83.5 197 t-30 220zM402 789q0 -113 42 -215t113.5 -175t171 -115.5t209 -42.5t208.5 42.5t170.5 115.5t114 175t42.5 215t-42.5 214.5t-114 174t-170.5 115t-208.5 42.5t-209 -42.5t-171 -115t-113.5 -174t-42 -214.5zM514 1707l270 280l22 14h264l22 -12l271 -282l-11 -11h-264 l-22 11l-129 135l-126 -135l-22 -11h-264z" />
<glyph unicode="&#xd5;" horiz-adv-x="1873" d="M103 789q0 168 66 320.5t177.5 262t266 174t324.5 64.5q113 0 221 -29t199.5 -81.5t168.5 -128.5t131 -166t84 -197t30 -219.5t-30 -219.5t-84 -197t-131 -166t-168.5 -128.5t-199.5 -82t-221 -29.5q-114 0 -222 29.5t-199.5 82t-168.5 128.5t-130.5 166t-83.5 197 t-30 220zM402 789q0 -113 42 -215t113.5 -175t171 -115.5t209 -42.5t208.5 42.5t170.5 115.5t114 175t42.5 215t-42.5 214.5t-114 174t-170.5 115t-208.5 42.5t-209 -42.5t-171 -115t-113.5 -174t-42 -214.5zM455 1730q20 55 49.5 101.5t68 83.5t88.5 57.5t107 20.5 q52 0 116 -15t115 -33t117.5 -33.5t124.5 -15.5q29 0 58 8t58 25.5t51 43.5l11 -11q-42 -115 -122.5 -189.5t-189.5 -74.5q-53 0 -116.5 15.5t-114.5 33.5t-118 33t-126 15q-45 0 -89.5 -18.5t-76.5 -57.5z" />
<glyph unicode="&#xd6;" horiz-adv-x="1873" d="M103 789q0 168 66 320.5t177.5 262t266 174t324.5 64.5q113 0 221 -29t199.5 -81.5t168.5 -128.5t131 -166t84 -197t30 -219.5t-30 -219.5t-84 -197t-131 -166t-168.5 -128.5t-199.5 -82t-221 -29.5q-114 0 -222 29.5t-199.5 82t-168.5 128.5t-130.5 166t-83.5 197 t-30 220zM402 789q0 -113 42 -215t113.5 -175t171 -115.5t209 -42.5t208.5 42.5t170.5 115.5t114 175t42.5 215t-42.5 214.5t-114 174t-170.5 115t-208.5 42.5t-209 -42.5t-171 -115t-113.5 -174t-42 -214.5zM488 1836v23l161 157h22l158 -157v-23l-158 -160h-22zM1045 1836 v23l161 157h22l158 -157v-23l-158 -160h-22z" />
<glyph unicode="&#xd7;" horiz-adv-x="1170" d="M155 554v22l251 247l-251 245v22l163 163h22l245 -251l247 251h22l162 -163v-22l-250 -245l250 -247v-22l-162 -162h-22l-247 250l-245 -250h-22z" />
<glyph unicode="&#xd8;" horiz-adv-x="1873" d="M36 86v11l218 217q-151 212 -151 475q0 168 66 320.5t177.5 262t266 174t324.5 64.5q265 0 482 -152l232 232h11l176 -176v-11l-230 -228q78 -104 120.5 -228t42.5 -258q0 -113 -30 -220t-84 -197t-131 -166t-168.5 -128.5t-199.5 -82t-221 -29.5q-270 0 -490 158 l-221 -219h-12zM402 789q0 -151 67 -269l745 737q-128 78 -277 78q-109 0 -208.5 -42.5t-171 -115t-113.5 -174t-42 -214.5zM651 327q130 -86 286 -86q110 0 209 42.5t170.5 115.5t114 175t42.5 215q0 152 -74 279z" />
<glyph unicode="&#xd9;" horiz-adv-x="1718" d="M162 698v867l12 12h238l12 -12v-821q0 -121 34 -218t93.5 -158.5t138.5 -94t170 -32.5t169.5 32.5t138 94t94 158.5t34.5 218v821l11 12h241l11 -12v-867q0 -135 -36 -252.5t-100 -205t-151.5 -149.5t-192 -93.5t-219.5 -31.5t-219.5 31.5t-191.5 93.5t-151.5 149.5 t-100 205t-35.5 252.5zM434 1989l9 12h323l23 -12l303 -282l-11 -11h-264l-22 11z" />
<glyph unicode="&#xda;" horiz-adv-x="1718" d="M162 698v867l12 12h238l12 -12v-821q0 -121 34 -218t93.5 -158.5t138.5 -94t170 -32.5t169.5 32.5t138 94t94 158.5t34.5 218v821l11 12h241l11 -12v-867q0 -135 -36 -252.5t-100 -205t-151.5 -149.5t-192 -93.5t-219.5 -31.5t-219.5 31.5t-191.5 93.5t-151.5 149.5 t-100 205t-35.5 252.5zM626 1707l305 282l22 12h322l9 -12l-360 -282l-23 -11h-263z" />
<glyph unicode="&#xdb;" horiz-adv-x="1718" d="M162 698v867l12 12h238l12 -12v-821q0 -121 34 -218t93.5 -158.5t138.5 -94t170 -32.5t169.5 32.5t138 94t94 158.5t34.5 218v821l11 12h241l11 -12v-867q0 -135 -36 -252.5t-100 -205t-151.5 -149.5t-192 -93.5t-219.5 -31.5t-219.5 31.5t-191.5 93.5t-151.5 149.5 t-100 205t-35.5 252.5zM434 1707l271 280l23 14h263l23 -12l270 -282l-11 -11h-263l-23 11l-129 135l-125 -135l-23 -11h-263z" />
<glyph unicode="&#xdc;" horiz-adv-x="1718" d="M162 698v867l12 12h238l12 -12v-821q0 -121 34 -218t93.5 -158.5t138.5 -94t170 -32.5t169.5 32.5t138 94t94 158.5t34.5 218v821l11 12h241l11 -12v-867q0 -135 -36 -252.5t-100 -205t-151.5 -149.5t-192 -93.5t-219.5 -31.5t-219.5 31.5t-191.5 93.5t-151.5 149.5 t-100 205t-35.5 252.5zM410 1836v23l160 157h23l157 -157v-23l-157 -160h-23zM967 1836v23l159 157h22l159 -157v-23l-159 -160h-22z" />
<glyph unicode="&#xdd;" horiz-adv-x="1441" d="M22 1565l12 12h282l17 -12l387 -529l389 529l17 12h282l11 -12l-568 -789v-765l-11 -11h-238l-11 11v765zM488 1707l305 282l22 12h322l9 -12l-360 -282l-23 -11h-263z" />
<glyph unicode="&#xde;" horiz-adv-x="1274" d="M162 11v1554l12 12h238l12 -12v-271h243q122 0 224.5 -39.5t171 -106.5t107 -157t38.5 -191.5t-38.5 -191t-107 -156.5t-171 -106t-224.5 -39h-243v-296l-12 -11h-238zM424 570h234q118 0 187 61.5t69 168t-69 168.5t-187 62h-234v-460z" />
<glyph unicode="&#xdf;" horiz-adv-x="1369" d="M162 11v1098q0 90 21.5 169.5t61.5 140t95 103.5t123.5 65.5t144.5 22.5q194 0 309 -99.5t115 -257.5q0 -66 -14 -123.5t-34 -97t-40 -74.5t-34 -71t-14 -72q0 -30 21.5 -56t55 -46.5t74.5 -43t82 -53t74.5 -69t54.5 -99t21 -134.5q0 -72 -29.5 -135.5t-82.5 -110.5 t-131 -74.5t-169 -27.5q-172 0 -315 79v264l11 11q63 -40 112.5 -63t94.5 -33t97 -10q45 0 77 13t47 35t15 52q0 34 -21 64t-55 53t-75 47t-82 53.5t-75 65t-55 89.5t-21 120q0 51 14 100.5t34 88t40.5 75t34.5 76t14 75.5q0 62 -39 101t-112 39q-83 0 -133.5 -65.5 t-50.5 -198.5v-1086l-12 -11h-238z" />
<glyph unicode="&#xe0;" horiz-adv-x="1120" d="M90 279q0 87 35.5 155t93.5 112.5t141 75t170.5 45.5t189.5 21q0 72 -55.5 120t-146.5 48q-92 0 -179.5 -31.5t-190.5 -99.5l-10 12l110 288q132 67 281 67q94 0 175.5 -28t144.5 -82.5t99 -141.5t36 -198v-631l-10 -11h-241l-13 11v34q-118 -79 -258 -79 q-56 0 -108.5 11t-101 35.5t-84 60t-57 89t-21.5 117.5zM153 1516l9 12h300l22 -12l305 -327l-11 -11h-242l-22 11zM361 307q0 -51 36.5 -78t96.5 -27q107 0 226 69v215q-174 -8 -266.5 -55.5t-92.5 -123.5z" />
<glyph unicode="&#xe1;" horiz-adv-x="1120" d="M90 279q0 87 35.5 155t93.5 112.5t141 75t170.5 45.5t189.5 21q0 72 -55.5 120t-146.5 48q-92 0 -179.5 -31.5t-190.5 -99.5l-10 12l110 288q132 67 281 67q94 0 175.5 -28t144.5 -82.5t99 -141.5t36 -198v-631l-10 -11h-241l-13 11v34q-118 -79 -258 -79 q-56 0 -108.5 11t-101 35.5t-84 60t-57 89t-21.5 117.5zM322 1189l304 327l23 12h299l9 -12l-360 -327l-23 -11h-241zM361 307q0 -51 36.5 -78t96.5 -27q107 0 226 69v215q-174 -8 -266.5 -55.5t-92.5 -123.5z" />
<glyph unicode="&#xe2;" horiz-adv-x="1120" d="M90 279q0 87 35.5 155t93.5 112.5t141 75t170.5 45.5t189.5 21q0 72 -55.5 120t-146.5 48q-92 0 -179.5 -31.5t-190.5 -99.5l-10 12l110 288q132 67 281 67q94 0 175.5 -28t144.5 -82.5t99 -141.5t36 -198v-631l-10 -11h-241l-13 11v34q-118 -79 -258 -79 q-56 0 -108.5 11t-101 35.5t-84 60t-57 89t-21.5 117.5zM131 1189l293 327l23 12h217l24 -12l292 -327l-11 -11h-253l-22 11l-137 161l-140 -161l-23 -11h-252zM361 307q0 -51 36.5 -78t96.5 -27q107 0 226 69v215q-174 -8 -266.5 -55.5t-92.5 -123.5z" />
<glyph unicode="&#xe3;" horiz-adv-x="1120" d="M90 279q0 87 35.5 155t93.5 112.5t141 75t170.5 45.5t189.5 21q0 72 -55.5 120t-146.5 48q-92 0 -179.5 -31.5t-190.5 -99.5l-10 12l110 288q132 67 281 67q94 0 175.5 -28t144.5 -82.5t99 -141.5t36 -198v-631l-10 -11h-241l-13 11v34q-118 -79 -258 -79 q-56 0 -108.5 11t-101 35.5t-84 60t-57 89t-21.5 117.5zM120 1214q36 115 117 191t187 76q31 0 63 -5.5t59.5 -14t55 -19t54 -21t53 -19.5t56.5 -14t60 -5q93 0 157 77l11 -11q-36 -113 -117.5 -190t-185.5 -77q-53 0 -109 15.5t-96.5 33.5t-94 33t-102.5 15q-94 0 -157 -76 zM361 307q0 -51 36.5 -78t96.5 -27q107 0 226 69v215q-174 -8 -266.5 -55.5t-92.5 -123.5z" />
<glyph unicode="&#xe4;" horiz-adv-x="1120" d="M90 279q0 87 35.5 155t93.5 112.5t141 75t170.5 45.5t189.5 21q0 72 -55.5 120t-146.5 48q-92 0 -179.5 -31.5t-190.5 -99.5l-10 12l110 288q132 67 281 67q94 0 175.5 -28t144.5 -82.5t99 -141.5t36 -198v-631l-10 -11h-241l-13 11v34q-118 -79 -258 -79 q-56 0 -108.5 11t-101 35.5t-84 60t-57 89t-21.5 117.5zM144 1324v24l149 146h23l146 -146v-24l-146 -148h-23zM361 307q0 -51 36.5 -78t96.5 -27q107 0 226 69v215q-174 -8 -266.5 -55.5t-92.5 -123.5zM649 1324v24l149 146h22l147 -146v-24l-147 -148h-22z" />
<glyph unicode="&#xe5;" horiz-adv-x="1120" d="M90 279q0 87 35.5 155t93.5 112.5t141 75t170.5 45.5t189.5 21q0 72 -55.5 120t-146.5 48q-92 0 -179.5 -31.5t-190.5 -99.5l-10 12l110 288q132 67 281 67q94 0 175.5 -28t144.5 -82.5t99 -141.5t36 -198v-631l-10 -11h-241l-13 11v34q-118 -79 -258 -79 q-56 0 -108.5 11t-101 35.5t-84 60t-57 89t-21.5 117.5zM311 1361q0 97 72.5 165.5t173.5 68.5q100 0 171.5 -68.5t71.5 -165.5t-71.5 -164.5t-171.5 -67.5q-101 0 -173.5 68t-72.5 164zM361 307q0 -51 36.5 -78t96.5 -27q107 0 226 69v215q-174 -8 -266.5 -55.5 t-92.5 -123.5zM471 1360.5q0 -35.5 25 -60.5t60.5 -25t60.5 25t25 60.5t-25 60.5t-60.5 25t-60.5 -25t-25 -60.5z" />
<glyph unicode="&#xe6;" horiz-adv-x="1855" d="M90 297q0 58 19.5 108t53.5 87.5t83 68.5t104 52t121 36.5t129.5 24.5t134.5 14q0 73 -58.5 120.5t-158.5 47.5q-92 0 -179.5 -31.5t-190.5 -99.5l-10 12l110 288q132 67 281 67q118 0 213 -38t152 -110q45 48 105 81.5t131 50t149 16.5q88 0 165.5 -28t136 -78.5 t100.5 -119t64 -151.5t22 -174q0 -36 -13 -66l-17 -11h-735q22 -123 111 -192.5t220 -69.5q105 0 211.5 42t196.5 121l11 -11v-255q-85 -56 -196 -94.5t-223 -38.5q-77 0 -153 17t-158.5 62.5t-142.5 116.5q-73 -94 -181.5 -145t-226.5 -51q-60 0 -113.5 11t-103 36.5 t-85.5 63t-57.5 94t-21.5 126.5zM349 307q0 -50 36 -77.5t95 -27.5q106 0 180.5 60t74.5 140v84q-88 -4 -160 -18.5t-122 -38t-77 -54.5t-27 -68zM1012 662h491q-9 80 -74 137t-150 57q-105 0 -173 -54t-94 -140z" />
<glyph unicode="&#xe7;" horiz-adv-x="1139" d="M103 529q0 116 43 219.5t119 179.5t186.5 120t238.5 44q209 0 359 -112v-266l-11 -11q-159 137 -348 137q-144 0 -231 -88.5t-87 -222t87 -222t231 -88.5q189 0 348 137l11 -12v-265q-152 -113 -359 -113q-128 0 -238.5 44.5t-186.5 120.5t-119 179t-43 219zM520 -518 l52 372l23 11h239l11 -11l-117 -372l-12 -11h-185z" />
<glyph unicode="&#xe8;" horiz-adv-x="1225" d="M103 538q0 114 39.5 215.5t109 176.5t173 118.5t224.5 43.5q109 0 202 -44t154 -117t95.5 -167t34.5 -194q0 -61 -11 -95l-17 -11h-737q23 -123 112.5 -192.5t220.5 -69.5q105 0 211.5 42t196.5 121l11 -11v-255q-85 -56 -196.5 -94.5t-222.5 -38.5q-127 0 -238.5 45 t-190.5 121.5t-125 182t-46 223.5zM228 1516l8 12h300l23 -12l303 -327l-11 -11h-241l-22 11zM378 662h494q-8 80 -73 137t-150 57q-105 0 -174 -54t-97 -140z" />
<glyph unicode="&#xe9;" horiz-adv-x="1225" d="M103 538q0 114 39.5 215.5t109 176.5t173 118.5t224.5 43.5q109 0 202 -44t154 -117t95.5 -167t34.5 -194q0 -61 -11 -95l-17 -11h-737q23 -123 112.5 -192.5t220.5 -69.5q105 0 211.5 42t196.5 121l11 -11v-255q-85 -56 -196.5 -94.5t-222.5 -38.5q-127 0 -238.5 45 t-190.5 121.5t-125 182t-46 223.5zM378 662h494q-8 80 -73 137t-150 57q-105 0 -174 -54t-97 -140zM396 1189l305 327l22 12h300l9 -12l-361 -327l-22 -11h-241z" />
<glyph unicode="&#xea;" horiz-adv-x="1225" d="M103 538q0 114 39.5 215.5t109 176.5t173 118.5t224.5 43.5q109 0 202 -44t154 -117t95.5 -167t34.5 -194q0 -61 -11 -95l-17 -11h-737q23 -123 112.5 -192.5t220.5 -69.5q105 0 211.5 42t196.5 121l11 -11v-255q-85 -56 -196.5 -94.5t-222.5 -38.5q-127 0 -238.5 45 t-190.5 121.5t-125 182t-46 223.5zM205 1189l293 327l22 12h219l22 -12l293 -327l-11 -11h-252l-23 11l-138 161l-139 -161l-22 -11h-252zM378 662h494q-8 80 -73 137t-150 57q-105 0 -174 -54t-97 -140z" />
<glyph unicode="&#xeb;" horiz-adv-x="1225" d="M103 538q0 114 39.5 215.5t109 176.5t173 118.5t224.5 43.5q109 0 202 -44t154 -117t95.5 -167t34.5 -194q0 -61 -11 -95l-17 -11h-737q23 -123 112.5 -192.5t220.5 -69.5q105 0 211.5 42t196.5 121l11 -11v-255q-85 -56 -196.5 -94.5t-222.5 -38.5q-127 0 -238.5 45 t-190.5 121.5t-125 182t-46 223.5zM219 1324v24l148 146h22l147 -146v-24l-147 -148h-22zM378 662h494q-8 80 -73 137t-150 57q-105 0 -174 -54t-97 -140zM723 1324v24l149 146h22l147 -146v-24l-147 -148h-22z" />
<glyph unicode="&#xec;" d="M-63 1516l9 12h280l22 -12l232 -327l-11 -11h-239l-23 11zM162 11v1036l12 12h238l12 -12v-1036l-12 -11h-238z" />
<glyph unicode="&#xed;" d="M106 1189l232 327l23 12h279l9 -12l-271 -327l-22 -11h-239zM162 11v1036l12 12h238l12 -12v-1036l-12 -11h-238z" />
<glyph unicode="&#xee;" d="M-86 1189l248 327l23 12h213l23 -12l250 -327l-11 -11h-250l-23 11l-94 124l-95 -124l-22 -11h-251zM162 11v1036l12 12h238l12 -12v-1036l-12 -11h-238z" />
<glyph unicode="&#xef;" d="M-79 1324v24l148 146h23l147 -146v-24l-147 -148h-23zM162 11v1036l12 12h238l12 -12v-1036l-12 -11h-238zM346 1324v24l148 146h22l148 -146v-24l-148 -148h-22z" />
<glyph unicode="&#xf0;" horiz-adv-x="1305" d="M90 507q0 109 44 209t118 172.5t176.5 115.5t213.5 43q107 0 214 -35q-42 98 -121 187l-341 -124l-11 11v219l11 22l163 59q-103 106 -211 179l13 12h329q30 -18 75 -56.5t57 -47.5l317 113l11 -11v-219l-11 -23l-146 -54q106 -148 166 -322t60 -344q0 -133 -34 -243 t-90.5 -183.5t-131.5 -124.5t-155 -73.5t-164 -22.5q-111 0 -213.5 43t-176.5 115.5t-118 173t-44 209.5zM365 507q0 -122 78.5 -205t198.5 -83q71 0 130.5 35t98.5 94.5t56.5 142t7.5 173.5q-63 72 -132 101.5t-161 29.5q-79 0 -142.5 -38t-99 -104t-35.5 -146z" />
<glyph unicode="&#xf1;" horiz-adv-x="1350" d="M162 11v1036l12 12h238l12 -12v-33q137 78 281 78q125 0 221.5 -34.5t159 -99t94.5 -155.5t32 -206v-586l-11 -11h-240l-11 11v557q0 135 -65.5 203.5t-192.5 68.5q-78 0 -150.5 -30t-117.5 -82v-717l-12 -11h-238zM262 1214q17 55 46 103t67.5 84.5t87.5 58t102 21.5 t109 -15.5t96.5 -34t94 -33.5t102.5 -15q93 0 157 77l11 -11q-36 -113 -117.5 -190t-185.5 -77q-53 0 -109 15.5t-96.5 33.5t-94 33t-102.5 15q-94 0 -157 -76z" />
<glyph unicode="&#xf2;" horiz-adv-x="1333" d="M103 529.5q0 116.5 44 220.5t119 179t179.5 119t221.5 44q93 0 179 -28t155.5 -79.5t121 -120.5t79.5 -155.5t28 -179.5t-28 -179.5t-79.5 -155.5t-121 -120.5t-155.5 -79.5t-179 -28q-117 0 -221.5 44t-179.5 119t-119 179.5t-44 221zM264 1516l9 12h299l23 -12 l304 -327l-11 -11h-241l-23 11zM372 529q0 -136 82.5 -223t212.5 -87q128 0 210 87.5t82 223t-82 223t-210 87.5q-86 0 -153.5 -40t-104.5 -111t-37 -160z" />
<glyph unicode="&#xf3;" horiz-adv-x="1333" d="M103 529.5q0 116.5 44 220.5t119 179t179.5 119t221.5 44q93 0 179 -28t155.5 -79.5t121 -120.5t79.5 -155.5t28 -179.5t-28 -179.5t-79.5 -155.5t-121 -120.5t-155.5 -79.5t-179 -28q-117 0 -221.5 44t-179.5 119t-119 179.5t-44 221zM372 529q0 -136 82.5 -223 t212.5 -87q128 0 210 87.5t82 223t-82 223t-210 87.5q-86 0 -153.5 -40t-104.5 -111t-37 -160zM432 1189l305 327l22 12h300l9 -12l-361 -327l-22 -11h-242z" />
<glyph unicode="&#xf4;" horiz-adv-x="1333" d="M103 529.5q0 116.5 44 220.5t119 179t179.5 119t221.5 44q93 0 179 -28t155.5 -79.5t121 -120.5t79.5 -155.5t28 -179.5t-28 -179.5t-79.5 -155.5t-121 -120.5t-155.5 -79.5t-179 -28q-117 0 -221.5 44t-179.5 119t-119 179.5t-44 221zM241 1189l293 327l23 12h219 l22 -12l292 -327l-11 -11h-252l-23 11l-137 161l-140 -161l-22 -11h-253zM372 529q0 -136 82.5 -223t212.5 -87q128 0 210 87.5t82 223t-82 223t-210 87.5q-86 0 -153.5 -40t-104.5 -111t-37 -160z" />
<glyph unicode="&#xf5;" horiz-adv-x="1333" d="M103 529.5q0 116.5 44 220.5t119 179t179.5 119t221.5 44q93 0 179 -28t155.5 -79.5t121 -120.5t79.5 -155.5t28 -179.5t-28 -179.5t-79.5 -155.5t-121 -120.5t-155.5 -79.5t-179 -28q-117 0 -221.5 44t-179.5 119t-119 179.5t-44 221zM230 1214q36 115 117 191t187 76 q31 0 63 -5.5t59.5 -14t55 -19t54 -21t53 -19.5t56.5 -14t60 -5q93 0 157 77l12 -11q-23 -73 -65.5 -132.5t-105.5 -97t-133 -37.5q-53 0 -109 15.5t-96.5 33.5t-94 33t-102.5 15q-94 0 -157 -76zM372 529q0 -136 82.5 -223t212.5 -87q128 0 210 87.5t82 223t-82 223 t-210 87.5q-86 0 -153.5 -40t-104.5 -111t-37 -160z" />
<glyph unicode="&#xf6;" horiz-adv-x="1333" d="M103 529.5q0 116.5 44 220.5t119 179t179.5 119t221.5 44q93 0 179 -28t155.5 -79.5t121 -120.5t79.5 -155.5t28 -179.5t-28 -179.5t-79.5 -155.5t-121 -120.5t-155.5 -79.5t-179 -28q-117 0 -221.5 44t-179.5 119t-119 179.5t-44 221zM254 1324v24l150 146h22l146 -146 v-24l-146 -148h-22zM372 529q0 -136 82.5 -223t212.5 -87q128 0 210 87.5t82 223t-82 223t-210 87.5q-86 0 -153.5 -40t-104.5 -111t-37 -160zM759 1324v24l149 146h23l146 -146v-24l-146 -148h-23z" />
<glyph unicode="&#xf7;" horiz-adv-x="1170" d="M146 712v221l11 11h857l11 -11v-221l-11 -11h-857zM426 469v22l148 149h23l149 -149v-22l-149 -149h-23zM426 1154v22l148 148h23l149 -148v-22l-149 -150h-23z" />
<glyph unicode="&#xf8;" horiz-adv-x="1305" d="M25 75v22l144 144q-79 134 -79 288q0 93 28.5 179t80 155t121 121t155.5 80t178 28q157 0 289 -78l144 144h23l173 -174v-23l-145 -144q80 -133 80 -288q0 -115 -44.5 -219.5t-119.5 -180t-179.5 -119.5t-220.5 -44q-154 0 -288 79l-144 -144h-23zM361 529 q0 -136 81.5 -223t210.5 -87q86 0 153 39.5t103.5 110.5t36.5 160q0 136 -81.5 223.5t-211 87.5t-211 -87.5t-81.5 -223.5z" />
<glyph unicode="&#xf9;" horiz-adv-x="1350" d="M140 462v585l11 12h238l13 -12v-556q0 -135 65.5 -203.5t192.5 -68.5q78 0 150.5 30t117.5 82v716l11 12h239l11 -12v-1036l-11 -11h-239l-11 11v34q-139 -79 -281 -79q-249 0 -378 131.5t-129 364.5zM266 1516l9 12h299l23 -12l304 -327l-11 -11h-241l-23 11z" />
<glyph unicode="&#xfa;" horiz-adv-x="1350" d="M140 462v585l11 12h238l13 -12v-556q0 -135 65.5 -203.5t192.5 -68.5q78 0 150.5 30t117.5 82v716l11 12h239l11 -12v-1036l-11 -11h-239l-11 11v34q-139 -79 -281 -79q-249 0 -378 131.5t-129 364.5zM434 1189l305 327l22 12h301l8 -12l-360 -327l-22 -11h-241z" />
<glyph unicode="&#xfb;" horiz-adv-x="1350" d="M140 462v585l11 12h238l13 -12v-556q0 -135 65.5 -203.5t192.5 -68.5q78 0 150.5 30t117.5 82v716l11 12h239l11 -12v-1036l-11 -11h-239l-11 11v34q-139 -79 -281 -79q-249 0 -378 131.5t-129 364.5zM243 1189l293 327l23 12h219l22 -12l292 -327l-11 -11h-252l-23 11 l-137 161l-140 -161l-22 -11h-253z" />
<glyph unicode="&#xfc;" horiz-adv-x="1350" d="M140 462v585l11 12h238l13 -12v-556q0 -135 65.5 -203.5t192.5 -68.5q78 0 150.5 30t117.5 82v716l11 12h239l11 -12v-1036l-11 -11h-239l-11 11v34q-139 -79 -281 -79q-249 0 -378 131.5t-129 364.5zM256 1324v24l150 146h22l146 -146v-24l-146 -148h-22zM761 1324v24 l149 146h23l146 -146v-24l-146 -148h-23z" />
<glyph unicode="&#xfd;" horiz-adv-x="1247" d="M22 1047l12 12h275l22 -12l293 -639l293 639l22 12h275l11 -12l-651 -1307q-29 -50 -59.5 -89.5t-74.5 -76.5t-95 -61.5t-120 -39t-150 -14.5l-12 16v214l12 12q196 0 281 170l126 258zM389 1189l305 327l22 12h300l9 -12l-361 -327l-22 -11h-240z" />
<glyph unicode="&#xfe;" horiz-adv-x="1337" d="M162 -507v2072l12 12h238l12 -12v-551q54 35 125.5 56.5t144.5 21.5q116 0 219.5 -44t176.5 -119.5t115.5 -179.5t42.5 -220t-42.5 -220t-115.5 -179.5t-176.5 -119.5t-219.5 -44q-73 0 -144.5 22t-125.5 57v-552l-12 -11h-238zM424 340q102 -121 261 -121q84 0 151.5 40 t105.5 111t38 159q0 134 -84 222.5t-211 88.5q-143 0 -261 -122v-378z" />
<glyph unicode="&#xff;" horiz-adv-x="1247" d="M22 1047l12 12h275l22 -12l293 -639l293 639l22 12h275l11 -12l-651 -1307q-29 -50 -59.5 -89.5t-74.5 -76.5t-95 -61.5t-120 -39t-150 -14.5l-12 16v214l12 12q196 0 281 170l126 258zM212 1324v24l149 146h22l146 -146v-24l-146 -148h-22zM716 1324v24l149 146h23 l146 -146v-24l-146 -148h-23z" />
<glyph unicode="&#x152;" horiz-adv-x="2432" d="M103 789q0 168 66 320.5t177.5 262t266 174t324.5 64.5q128 0 237 -33h1120l10 -12v-241l-10 -11h-717q121 -136 169 -337h356l11 -11v-242l-11 -11h-335q-25 -263 -190 -448h764l11 -12v-241l-11 -11h-1167q-113 -34 -237 -34q-114 0 -222 29.5t-199.5 82t-168.5 128.5 t-130.5 166t-83.5 197t-30 220zM402 789q0 -113 42 -215t113.5 -175t171 -115.5t209 -42.5t208.5 42.5t170.5 115.5t114 175t42.5 215t-42.5 214.5t-114 174t-170.5 115t-208.5 42.5t-209 -42.5t-171 -115t-113.5 -174t-42 -214.5z" />
<glyph unicode="&#x153;" horiz-adv-x="2094" d="M90 529q0 93 28 179.5t79.5 155.5t121 120.5t155.5 79.5t179 28q135 0 247.5 -53.5t189.5 -150.5q73 97 182 150.5t246 53.5q109 0 202 -44t154.5 -117t96 -167t34.5 -194q0 -57 -12 -95l-17 -11h-737q22 -122 112 -192t222 -70q105 0 211 42t196 121l11 -11v-255 q-54 -36 -117.5 -64.5t-144 -48.5t-156.5 -20q-147 0 -273.5 57t-205.5 160q-76 -105 -189 -161t-252 -56q-116 0 -220.5 44t-179.5 119t-119 179.5t-44 220.5zM361 529q0 -136 81.5 -223t210.5 -87q86 0 153 39.5t103.5 110.5t36.5 160q0 136 -81.5 223.5t-211 87.5 t-211 -87.5t-81.5 -223.5zM1248 662h493q-8 80 -73 137t-150 57q-106 0 -175 -54.5t-95 -139.5z" />
<glyph unicode="&#x178;" horiz-adv-x="1441" d="M22 1565l12 12h282l17 -12l387 -529l389 529l17 12h282l11 -12l-568 -789v-765l-11 -11h-238l-11 11v765zM273 1836v23l159 157h23l158 -157v-23l-158 -160h-23zM829 1836v23l160 157h23l157 -157v-23l-157 -160h-23z" />
<glyph unicode="&#x2c6;" horiz-adv-x="1333" d="M241 1189l293 327l23 12h219l22 -12l292 -327l-11 -11h-252l-23 11l-137 161l-140 -161l-22 -11h-253z" />
<glyph unicode="&#x2dc;" horiz-adv-x="1333" d="M230 1214q36 115 117 191t187 76q31 0 63 -5.5t59.5 -14t55 -19t54 -21t53 -19.5t56.5 -14t60 -5q93 0 157 77l12 -11q-23 -73 -65.5 -132.5t-105.5 -97t-133 -37.5q-53 0 -109 15.5t-96.5 33.5t-94 33t-102.5 15q-94 0 -157 -76z" />
<glyph unicode="&#x2000;" horiz-adv-x="1019" />
<glyph unicode="&#x2001;" horiz-adv-x="2038" />
<glyph unicode="&#x2002;" horiz-adv-x="1019" />
<glyph unicode="&#x2003;" horiz-adv-x="2038" />
<glyph unicode="&#x2004;" horiz-adv-x="679" />
<glyph unicode="&#x2005;" horiz-adv-x="509" />
<glyph unicode="&#x2006;" horiz-adv-x="339" />
<glyph unicode="&#x2007;" horiz-adv-x="339" />
<glyph unicode="&#x2008;" horiz-adv-x="254" />
<glyph unicode="&#x2009;" horiz-adv-x="407" />
<glyph unicode="&#x200a;" horiz-adv-x="113" />
<glyph unicode="&#x2010;" horiz-adv-x="900" d="M90 410v239l11 11h699l11 -11v-239l-11 -12h-699z" />
<glyph unicode="&#x2011;" horiz-adv-x="900" d="M90 410v239l11 11h699l11 -11v-239l-11 -12h-699z" />
<glyph unicode="&#x2012;" horiz-adv-x="900" d="M90 410v239l11 11h699l11 -11v-239l-11 -12h-699z" />
<glyph unicode="&#x2013;" horiz-adv-x="1126" d="M90 410v239l11 11h924l11 -11v-239l-11 -12h-924z" />
<glyph unicode="&#x2014;" horiz-adv-x="2252" d="M90 410v239l11 11h2051l11 -11v-239l-11 -12h-2051z" />
<glyph unicode="&#x2018;" d="M162 1030v232q0 78 29.5 139t81.5 99t119.5 57.5t145.5 19.5v-12q-38 -23 -60.5 -47.5t-34.5 -61t-15.5 -76.5t-3.5 -107v-243l-12 -11h-238z" />
<glyph unicode="&#x2019;" d="M47 1019v11q38 23 60.5 47.5t34.5 61t16 76.5t4 107v243l12 12h238l12 -12v-232q0 -78 -30 -139t-82 -99t-119 -57t-146 -19z" />
<glyph unicode="&#x201a;" d="M47 -304q38 24 60.5 48.5t34.5 61t16 76.5t4 107v243l12 11h238l12 -11v-232q0 -78 -30 -139.5t-82 -99.5t-119.5 -57.5t-145.5 -19.5v12z" />
<glyph unicode="&#x201c;" horiz-adv-x="1008" d="M162 1030v232q0 78 29.5 139t81.5 99t119.5 57.5t145.5 19.5v-12q-38 -23 -60.5 -47.5t-34.5 -61t-15.5 -76.5t-3.5 -107v-243l-12 -11h-238zM585 1097v165q0 78 30 139t82.5 99t120.5 57.5t147 19.5v-12q-73 -45 -94.5 -103.5t-21.5 -188.5v-176l-11 -11h-241z" />
<glyph unicode="&#x201d;" horiz-adv-x="1008" d="M47 1019v11q38 23 60.5 47.5t34.5 61t16 76.5t4 107v243l12 12h238l12 -12v-232q0 -78 -30 -139t-82 -99t-119 -57t-146 -19zM471 1086v11q38 23 60.5 48t34.5 61.5t15.5 76.5t3.5 107v175l12 12h241l11 -12v-164q0 -78 -30 -139t-82.5 -99t-120 -57.5t-145.5 -19.5z" />
<glyph unicode="&#x201e;" horiz-adv-x="1008" d="M47 -304q38 24 60.5 48.5t34.5 61t16 76.5t4 107v243l12 11h238l12 -11v-232q0 -78 -30 -139.5t-82 -99.5t-119.5 -57.5t-145.5 -19.5v12zM471 -236q38 23 60.5 47.5t34.5 61t15.5 76.5t3.5 107v176l12 11h241l11 -11v-165q0 -78 -30 -139t-82.5 -99t-120 -57.5 t-145.5 -19.5v12z" />
<glyph unicode="&#x2022;" horiz-adv-x="1126" d="M191 518v23l361 360h22l361 -360v-23l-361 -361h-22z" />
<glyph unicode="&#x2026;" horiz-adv-x="2252" d="M162 11v241l12 12h238l12 -12v-241l-12 -11h-238zM912 11v241l12 12h239l11 -12v-241l-11 -11h-239zM1662 11v241l12 12h239l11 -12v-241l-11 -11h-239z" />
<glyph unicode="&#x202f;" horiz-adv-x="407" />
<glyph unicode="&#x2039;" horiz-adv-x="602" d="M54 518v23l440 439l11 -11v-305l-140 -135l140 -135v-304l-11 -11z" />
<glyph unicode="&#x203a;" horiz-adv-x="602" d="M99 90v304l142 135l-142 135v305l11 11l440 -439v-23l-440 -439z" />
<glyph unicode="&#x205f;" horiz-adv-x="509" />
<glyph unicode="&#x20ac;" horiz-adv-x="1810" d="M20 662l201 239l22 11h68q23 145 96 274t181 222.5t250.5 147.5t296.5 54q320 0 541 -159v-297l-12 -12q-73 62 -157 105t-178 65.5t-194 22.5q-125 0 -234.5 -55t-184 -151t-101.5 -217h735l11 -11v-239l-11 -11h-735q46 -179 190.5 -294.5t329.5 -115.5q149 0 284 49.5 t245 143.5l12 -10v-298q-222 -160 -541 -160q-152 0 -292.5 53t-248 144t-182 218t-98.5 270h-282z" />
<glyph unicode="&#x2122;" horiz-adv-x="2245" d="M67 1324v241l12 12h788l12 -12v-241l-12 -11h-263v-580l-11 -13h-239l-12 13v580h-263zM1036 733v832l11 12h230l23 -12l250 -308l252 308l23 12h230l11 -12v-832l-11 -13h-241l-12 13v439l-241 -300h-22l-239 300v-439l-12 -13h-241z" />
<glyph unicode="&#x25fc;" horiz-adv-x="1058" d="M0 0v1059h1059v-1059h-1059z" />
<glyph unicode="&#xfb01;" horiz-adv-x="1524" d="M45 806v243l11 10h170v50q0 229 121.5 365t337.5 136q64 0 111 -10t98 -35v-263l-11 -11q-24 20 -48 33.5t-47.5 21t-45 10t-46.5 2.5q-68 0 -114.5 -29.5t-70 -87.5t-23.5 -144v-38h395l11 -12v-241l-11 -11h-395v-784l-11 -11h-241l-10 11v784h-170zM1057 1324v24 l164 161h22l165 -161v-24l-165 -164h-22zM1101 11v1036l12 12h239l11 -12v-1036l-11 -11h-239z" />
<glyph unicode="&#xfb02;" horiz-adv-x="1722" d="M45 806v243l11 10h170v50q0 229 121.5 365t337.5 136q64 0 111 -10t98 -35v-263l-11 -11q-24 20 -48 33.5t-47.5 21t-45 10t-46.5 2.5q-68 0 -114.5 -29.5t-70 -87.5t-23.5 -144v-38h395l11 -12v-241l-11 -11h-395v-784l-11 -11h-241l-10 11v784h-170zM1079 385v1180 l11 12h239l12 -12v-1163q0 -92 37.5 -137.5t104.5 -45.5q116 0 207 90l11 -12v-263q-47 -28 -107.5 -48t-116.5 -20q-192 0 -295 111t-103 308z" />
</font>
</defs>
</svg>
