<svg xmlns="http://www.w3.org/2000/svg" viewBox="0 0 300 300" enable-background="new 0 0 300 300"><path fill-rule="evenodd" clip-rule="evenodd" fill="#191313" d="M149.6 23.4C78 23.4 20 81.5 20 153c0 57.3 37.1 105.8 88.6 123 6.5 1.2 8.9-2.8 8.9-6.2 0-3.1-.1-13.3-.2-24.1-36.1 7.8-43.7-15.3-43.7-15.3-5.9-15-14.4-19-14.4-19-11.8-8 .9-7.9.9-7.9 13 .9 19.9 13.4 19.9 13.4 11.6 19.8 30.3 14.1 37.7 10.8 1.2-8.4 4.5-14.1 8.2-17.3-28.8-3.3-59-14.4-59-64 0-14.1 5.1-25.7 13.4-34.8-1.3-3.3-5.8-16.4 1.3-34.3 0 0 10.9-3.5 35.6 13.3 10.3-2.9 21.4-4.3 32.4-4.4 11 .1 22.1 1.5 32.5 4.4 24.7-16.8 35.6-13.3 35.6-13.3 7.1 17.9 2.6 31 1.3 34.3 8.3 9.1 13.3 20.6 13.3 34.8 0 49.8-30.3 60.7-59.2 63.9 4.6 4 8.8 11.9 8.8 24 0 17.3-.1 31.3-.1 35.6 0 3.4 2.3 7.5 8.9 6.2 51.5-17.2 88.6-65.7 88.6-123-.1-71.6-58.1-129.7-129.7-129.7z"/></svg>