<?xml version="1.0" encoding="utf-8"?>
<!-- Generator: Adobe Illustrator 17.1.0, SVG Export Plug-In . SVG Version: 6.00 Build 0)  -->
<!DOCTYPE svg PUBLIC "-//W3C//DTD SVG 1.1//EN" "http://www.w3.org/Graphics/SVG/1.1/DTD/svg11.dtd">
<svg version="1.1" id="Layer_2" xmlns="http://www.w3.org/2000/svg" xmlns:xlink="http://www.w3.org/1999/xlink" x="0px" y="0px"
	 width="10px" height="19px" viewBox="0 0 10 19" enable-background="new 0 0 10 19" xml:space="preserve">
<path fill="#ED6964" d="M6.4,18.4H3.1c-0.3,0-0.5-0.2-0.5-0.5v-7.5H0.5C0.2,10.4,0,10.2,0,10V6.9c0-0.3,0.2-0.5,0.5-0.5h2.2V4.6
	C2.7,1.8,4.4,0,7.1,0c1.2,0,2.2,0.1,2.5,0.1c0.2,0,0.4,0.2,0.4,0.5v2.8c0,0.3-0.2,0.5-0.5,0.5l-1.6,0c-1,0-1.1,0.3-1.1,1.1v1.5h2.6
	c0.1,0,0.3,0.1,0.3,0.2s0.1,0.2,0.1,0.4L9.5,10c0,0.2-0.2,0.4-0.5,0.4H6.8V18C6.8,18.2,6.6,18.4,6.4,18.4z M3.6,17.5h2.3V10
	c0-0.3,0.2-0.5,0.5-0.5h2.3l0.3-2.2H6.4c-0.3,0-0.5-0.2-0.5-0.5v-2c0-0.8,0.2-2,2-2l1.2,0V1C8.6,1,7.9,0.9,7.1,0.9
	c-2.2,0-3.5,1.4-3.5,3.7v2.3c0,0.3-0.2,0.5-0.5,0.5H0.9v2.2h2.2c0.3,0,0.5,0.2,0.5,0.5V17.5z"/>
</svg>
