<?xml version="1.0" encoding="utf-8"?>
<!-- Generator: Adobe Illustrator 17.1.0, SVG Export Plug-In . SVG Version: 6.00 Build 0)  -->
<!DOCTYPE svg PUBLIC "-//W3C//DTD SVG 1.1//EN" "http://www.w3.org/Graphics/SVG/1.1/DTD/svg11.dtd">
<svg version="1.1" id="Layer_2" xmlns="http://www.w3.org/2000/svg" xmlns:xlink="http://www.w3.org/1999/xlink" x="0px" y="0px"
	 width="19px" height="16px" viewBox="0 0 19 16" enable-background="new 0 0 19 16" xml:space="preserve">
<path fill="#ED6964" d="M6.2,15.6C4,15.6,2,15,0.2,13.9C0,13.8,0,13.5,0,13.3C0.1,13.1,0.3,13,0.5,13c1.4,0.2,2.9-0.1,4.2-0.8
	C3.5,11.8,2.5,10.8,2,9.5C2,9.4,2,9.2,2.1,9.1c0,0,0.1-0.1,0.2-0.1c-1-0.8-1.6-2-1.6-3.3c0-0.2,0.1-0.3,0.2-0.4
	c0.1-0.1,0.3-0.1,0.4-0.1C1,4.5,0.8,3.8,0.8,3c0-0.7,0.2-1.5,0.6-2.1c0.1-0.1,0.2-0.2,0.4-0.2c0.2,0,0.3,0.1,0.4,0.2
	c1.7,2.1,4.1,3.4,6.7,3.6c0-0.1,0-0.2,0-0.3C8.8,1.9,10.7,0,13,0c1.1,0,2.1,0.4,2.9,1.1c0.7-0.2,1.3-0.4,2-0.8
	c0.2-0.1,0.4-0.1,0.5,0c0.2,0.1,0.2,0.3,0.2,0.5c-0.1,0.4-0.3,0.7-0.5,1c0.1,0,0.2-0.1,0.3-0.1c0.2-0.1,0.4,0,0.6,0.1
	c0.1,0.2,0.1,0.4,0,0.6c-0.5,0.7-1.1,1.4-1.8,1.9c0,0.1,0,0.2,0,0.2C17.2,10,13,15.6,6.2,15.6z M2.4,13.9c1.2,0.5,2.5,0.7,3.8,0.7
	c6.3,0,10.1-5.1,10.1-10.1c0-0.2,0-0.3,0-0.5c0-0.2,0.1-0.3,0.2-0.4c0.2-0.2,0.5-0.4,0.7-0.6c-0.2,0-0.4,0.1-0.6,0.1
	c-0.2,0-0.4-0.1-0.5-0.3c-0.1-0.2,0-0.4,0.2-0.6c0.3-0.2,0.5-0.4,0.7-0.6c-0.4,0.1-0.7,0.2-1.1,0.3c-0.2,0-0.3,0-0.4-0.1
	c-0.6-0.6-1.5-1-2.4-1c-1.8,0-3.2,1.4-3.2,3.2c0,0.2,0,0.5,0.1,0.7c0,0.1,0,0.3-0.1,0.4C9.6,5.4,9.5,5.5,9.3,5.5
	C6.5,5.4,3.8,4.1,1.9,2C1.8,2.3,1.7,2.7,1.7,3c0,1.1,0.5,2.1,1.4,2.7C3.3,5.8,3.4,6,3.3,6.2C3.3,6.4,3.1,6.6,2.9,6.6
	c-0.4,0-0.7-0.1-1.1-0.2C2,7.6,3,8.6,4.3,8.8c0.2,0,0.4,0.2,0.4,0.4c0,0.2-0.1,0.4-0.3,0.5C4,9.9,3.6,9.9,3.3,9.9
	c0.6,0.9,1.6,1.5,2.7,1.6c0.2,0,0.4,0.1,0.4,0.3c0.1,0.2,0,0.4-0.2,0.5C5.1,13.2,3.8,13.8,2.4,13.9z"/>
</svg>
