<?xml version="1.0" encoding="utf-8"?>
<!-- Generator: Adobe Illustrator 17.1.0, SVG Export Plug-In . SVG Version: 6.00 Build 0)  -->
<!DOCTYPE svg PUBLIC "-//W3C//DTD SVG 1.1//EN" "http://www.w3.org/Graphics/SVG/1.1/DTD/svg11.dtd">
<svg version="1.1" id="レイヤー_1" xmlns="http://www.w3.org/2000/svg" xmlns:xlink="http://www.w3.org/1999/xlink" x="0px"
	 y="0px" width="151px" height="53px" viewBox="0 0 151 53" enable-background="new 0 0 151 53" xml:space="preserve">
<g>
	<g>
		<path fill="#FF6B66" d="M48.3,21.7c-0.2-0.7-0.6-1.5-1.1-2.4c2.3-1,4.1-2,5.5-3c1.4-1,2.4-2.2,3.1-3.4c0.7-1.2,1-2.5,1-4
			c0-1.1-0.1-2-0.3-2.8c-0.2-0.8-0.7-1.6-1.5-2.4c0.9-0.5,2-1.1,3.4-1.8c1.4-0.7,2.7-1.2,3.7-1.5l-0.4-0.5c-1,0.3-2.1,0.7-3.5,1.3
			c-1.3,0.6-2.6,1.3-3.8,2c-1.2-0.9-2.3-1.6-3.4-2.1c-1-0.4-2.2-0.8-3.4-1c-1.2-0.2-2.7-0.3-4.4-0.3c-3.8,0-7.4,0.5-10.9,1.6
			c-3.5,1-6.6,2.4-9.3,4.1c-2.7,1.7-4.8,3.6-6.4,5.8c-1.6,2.1-2.3,4.2-2.3,6.3c0,1.5,0.4,2.6,1.2,3.4c0.8,0.8,2,1.2,3.5,1.2
			c1.8,0,3.9-0.6,6.2-1.7c2.3-1.1,4.6-2.6,6.7-4.5c2.1-1.8,3.9-3.9,5.3-6.1c1.4-2.2,2.1-4.3,2.1-6.4l-0.6-0.1c0,2-0.7,4.1-2,6.2
			c-1.3,2.1-3.1,4.1-5.1,5.9c-2.1,1.8-4.3,3.2-6.6,4.4c-2.3,1.1-4.3,1.7-6,1.7c-1.3,0-2.3-0.4-3-1.1c-0.7-0.8-1.1-1.8-1.1-3.1
			c0-1.8,0.7-3.7,2.2-5.8c1.4-2,3.5-3.9,6-5.7C25.8,4.4,28.8,3,32.3,2c3.5-1.1,7.2-1.6,11.2-1.6c4.4,0,7.9,1.1,10.4,3.2
			c-2.3,1.3-4.1,2.4-5.2,3.3c-1.2,0.9-3.5,2.9-6.9,5.9l-2.2,2c-0.5,0.4-1.4,1.4-2.7,2.8c-1.3,1.4-2.8,3-4.4,4.9
			c-1.6,1.8-3,3.4-4.1,4.6c-1.1,1.2-1.9,2.1-2.4,2.6c-2.3,2.3-4.3,4.1-6,5.3c-1.7,1.2-3.6,2.1-5.5,2.7c-1.9,0.6-4.1,0.9-6.6,0.9
			c-2.3,0-4.2-0.3-5.4-0.9c-1.3-0.6-1.9-1.4-1.9-2.4c0-0.4,0-0.6,0.1-0.6c0.1,0,0.2,0,0.2,0.1c0.3,0.4,0.7,0.6,1.1,0.6
			c0.3,0,0.5-0.1,0.8-0.3c0.3-0.2,0.4-0.5,0.4-0.8c0-0.3-0.1-0.6-0.4-0.9C2.6,33.2,2.3,33,1.9,33c-0.6,0-1.1,0.2-1.4,0.6
			C0.2,34,0,34.5,0,35.2C0,37.7,2.7,39,8.1,39c1.8,0,3.5-0.2,5.2-0.5c1.6-0.3,3.3-0.8,4.9-1.5c1.7-0.7,3.4-1.7,5.3-2.9
			c1.9-1.3,3.8-2.7,5.7-4.4c1.8-1.6,3.3-3,4.5-4.3c1.2-1.3,2.6-3.1,4.2-5.4c3.2-4.4,6.1-7.8,8.8-10.2C49.4,7.3,52,5.4,54.5,4
			c0.6,0.6,1,1.6,1,3c0,1.3-0.4,2.7-1.1,4.3c-0.8,1.5-1.8,3-3.2,4.3c-1.3,1.3-2.8,2.4-4.3,3.2c-1.3-1.5-2.7-2.2-4.1-2.2
			c-0.7,0-1.3,0.2-1.7,0.6c-0.4,0.4-0.6,0.8-0.6,1.4c0,0.6,0.2,1,0.6,1.4c0.4,0.3,1.1,0.5,2.1,0.5c1.3,0,2.6-0.3,3.7-0.9
			c0.3,0.6,0.4,1.3,0.4,2.1c0,1.2-0.4,2.7-1.2,4.6c-0.8,1.9-2,3.8-3.5,5.7c-1.5,1.9-3.2,3.5-5.1,4.7c-1.9,1.2-3.9,1.9-6,1.9
			c-2,0-2.9-0.7-2.9-2.1c0-0.9,0.4-2,1.1-3.1c0.7-1.2,1.7-2.3,2.9-3.4c1.8-1.6,4.4-3,7.8-4.1l-0.1-0.5c-2,0.5-4,1.4-5.9,2.6
			c-1.9,1.2-3.4,2.6-4.5,4.1C28.6,33.6,28,35,28,36.3c0,1.8,1.1,2.7,3.4,2.7c2,0,4.1-0.4,6.2-1.3c2.1-0.9,3.9-2,5.6-3.4
			c1.7-1.4,3-3,4-4.8c1-1.8,1.5-3.5,1.5-5.3C48.6,23.3,48.5,22.4,48.3,21.7z M44.7,19.7c-0.5,0.1-1,0.2-1.5,0.3
			C41.7,20,41,19.6,41,18.7c0-0.4,0.2-0.8,0.5-1.1c0.3-0.3,0.7-0.5,1.2-0.5c1.4,0,2.6,0.6,3.7,1.9C45.8,19.3,45.2,19.5,44.7,19.7z
			 M116.4,35.1c-0.4,1-0.7,2-0.7,3c0,0.8,0.3,1.1,1,1.1c1.7,0,5.8-2.6,12.2-7.8v-0.6c-2.9,2.3-5.4,4.2-7.6,5.7
			c-2.2,1.5-3.6,2.2-4.3,2.2c-0.5,0-0.7-0.2-0.7-0.5s0.3-0.8,0.8-1.5c0.6-0.6,1.5-1.7,3-3.2c1.4-1.5,2.4-2.6,3-3.3
			c0.6-0.7,0.9-1.2,0.9-1.6c0-0.5-0.1-0.9-0.2-1.2c-0.1-0.3-0.3-0.5-0.5-0.5c-0.1,0-0.4,0-0.9,0.1c-0.4,0.1-0.8,0.1-1,0.1
			c-0.3,0-0.6-0.1-0.8-0.4c-0.3-0.2-0.4-0.5-0.3-0.8c0-0.3,0.1-0.6,0.2-0.8c0.5,0.5,0.9,0.7,1.2,0.7s0.5-0.1,0.7-0.3
			c0.2-0.2,0.3-0.4,0.3-0.7c0-0.3-0.1-0.5-0.4-0.6c-0.2-0.2-0.5-0.3-0.8-0.3c-0.6,0-1,0.3-1.4,0.8c-0.4,0.6-0.5,1.2-0.3,1.9
			c-1.1,0.8-2.1,1.5-3.2,2.4c-0.8,0.6-1.6,1.2-2.4,1.8v-0.2c-5.6,5.3-10.3,7.9-14.1,7.9c-0.6,0-1.1-0.1-1.5-0.4
			c-0.4-0.2-0.6-0.5-0.6-0.9c0-1,0.9-2.5,2.7-4.5c2.1-0.1,4-0.3,5.6-0.7c1.6-0.4,2.8-1,3.7-1.6c0.9-0.6,1.3-1.4,1.3-2.1
			c0-0.5-0.2-0.9-0.6-1.2c-0.4-0.3-0.9-0.5-1.6-0.5c-1.2,0-2.8,0.4-4.8,1.1c-2,0.7-3.6,1.8-5.1,3.2c0,0,0,0.1-0.1,0.1
			c-1.9,1.6-4,3.2-6.1,4.9c-2.3,1.8-3.8,2.6-4.4,2.6c-0.5,0-0.6-0.2-0.5-0.5c0.1-0.4,0.3-0.7,0.6-1.1c0.3-0.4,0.7-0.9,1.3-1.6
			c0.6-0.7,1.1-1.3,1.7-1.8l22.6-24.6h-2.9L92.1,30.1c0.3-0.5,0.4-1.1,0.4-1.8c0-1-0.6-1.5-1.8-1.5c-1.5,0-3.3,0.4-5.2,1.2
			c-1.9,0.8-3.5,1.8-4.8,3.1v-0.4c-2.9,2.3-5.4,4.2-7.6,5.7c-2.2,1.5-3.6,2.2-4.3,2.2c-0.5,0-0.7-0.2-0.7-0.5s0.3-0.8,0.8-1.5
			c0.6-0.6,1.5-1.7,3-3.2c1.4-1.5,2.4-2.6,3-3.3c0.6-0.7,0.9-1.2,0.9-1.6c0-0.5-0.1-0.9-0.2-1.2c-0.1-0.3-0.3-0.5-0.5-0.5
			c-0.1,0-0.4,0-0.9,0.1c-0.4,0.1-0.8,0.1-1,0.1c-0.3,0-0.6-0.1-0.8-0.4C72.1,26.5,72,26.3,72,26c0-0.3,0.1-0.6,0.2-0.8
			c0.5,0.5,0.9,0.7,1.2,0.7c0.3,0,0.5-0.1,0.7-0.3c0.2-0.2,0.3-0.4,0.3-0.7c0-0.3-0.1-0.5-0.4-0.6c-0.2-0.2-0.5-0.3-0.8-0.3
			c-0.6,0-1,0.3-1.4,0.8c-0.4,0.6-0.5,1.2-0.3,1.9c-1.1,0.8-2.1,1.5-3.2,2.4c-0.8,0.6-1.6,1.2-2.4,1.8v-0.2
			c-0.2,0.3-0.5,0.5-0.7,0.8c0,0-0.1,0.1-0.1,0.1v0c-1.1,1-2.3,1.5-3.5,1.5c-0.3,0-0.6,0-0.8-0.1c1.2-1.5,1.8-2.9,1.8-4.1
			c0-1.4-0.8-2.2-2.4-2.2c-1.5,0-3.3,0.5-5.3,1.4c-2,0.9-3.7,2.1-5.1,3.6c-1.4,1.5-2.1,3-2.1,4.5c0,0.6,0.1,1.1,0.3,1.5
			c0.2,0.4,0.6,0.8,1,1c0.4,0.3,0.9,0.4,1.5,0.4c2.8,0,6.1-1.9,9.9-5.7c0.2,0,0.4,0,0.6,0.1c0.2,0,0.3,0,0.5,0.1
			c1.4,0,2.6-0.5,3.8-1.6c1.2-0.9,3.3-2.5,6.4-4.9c0.1,0.3,0.5,0.5,1.2,0.5c0.6,0,1.2-0.1,1.7-0.2l-4.2,4.4
			c-1.1,1.2-1.8,2.2-2.3,3.2c-0.4,1-0.7,2-0.7,3c0,0.8,0.3,1.1,1,1.1c1.6,0,5.5-2.4,11.5-7.3c-1,1.3-1.5,2.6-1.5,4.1
			c0,2.1,0.7,3.2,2,3.2c1.9,0,4.5-1.6,7.9-4.8c0,0,0.1,0,0.1,0.1c0,0,0.1,0.1,0.1,0.1c-0.7,1.5-1,2.6-1,3.6c0,0.7,0.3,1.1,0.9,1.1
			c0.9,0,2.3-0.7,4.2-2.2c1.5-1.1,3.3-2.5,5.4-4.2c-0.5,0.9-0.8,2-0.8,3.1c0,2.2,1,3.3,3,3.3c2.3,0,4.5-0.7,6.7-2
			c2-1.2,4.2-2.9,6.5-5v0c1.2-0.8,3.3-2.5,6.5-5c0.1,0.3,0.5,0.5,1.2,0.5c0.6,0,1.2-0.1,1.7-0.2l-4.2,4.4
			C117.6,33,116.8,34.1,116.4,35.1z M105.8,28.7c1.4-0.9,2.7-1.4,3.8-1.4c0.8,0,1.2,0.3,1.2,1c0,0.4-0.4,0.9-1.1,1.6
			c-0.7,0.7-1.7,1.2-3.1,1.7c-1.4,0.5-3,0.7-5,0.7C102.9,30.8,104.3,29.6,105.8,28.7z M60.2,32.7c-1.4,1.6-2.9,3-4.7,4.2
			c-1.8,1.2-3.3,1.8-4.6,1.8c-0.5,0-1-0.1-1.3-0.4c-0.3-0.2-0.5-0.5-0.5-0.9c0-0.4,0.7-1.5,2.1-3.2c1.4-1.7,2.9-3.3,4.7-4.8
			c1.7-1.4,3.3-2.2,4.6-2.2c0.5,0,1,0.1,1.3,0.4c0.3,0.3,0.5,0.7,0.5,1.1C62.2,29.8,61.5,31.1,60.2,32.7z M84.9,36.8
			c-1.9,1.3-3.3,2-4.4,2c-0.7,0-1.1-0.4-1.1-1.1c0-0.9,0.7-2.2,2.1-3.9c1.4-1.7,3-3.1,4.8-4.4c1.8-1.3,3.2-2,4.2-2
			c1,0,1.5,0.4,1.5,1.3c0,0.9-0.7,2.1-2.2,3.8C88.4,34,86.7,35.5,84.9,36.8z M126.8,39.3c0.2,0.1,0.6-0.1,0.8-0.3
			c6.8-7.4,17.3-18.7,22-23.7c1.7-1.8,1.5-2,0.6-2c-1.2,0-1.8,0.6-2.8,1.7c-3.8,4.5-13.6,15.8-20.2,23.5
			C127,38.7,126.6,39.1,126.8,39.3z M5.5,52.2c-0.1-0.1-0.2-0.1-0.3-0.2c-0.1-0.1-0.2-0.3-0.4-0.6l-0.5-0.9
			c-0.2-0.3-0.3-0.5-0.4-0.7c0.1,0,0.1-0.1,0.2-0.1c0.5-0.3,0.8-0.7,0.8-1.2c0-0.3-0.1-0.5-0.2-0.7c-0.2-0.2-0.4-0.4-0.6-0.5
			C3.7,47.1,3.3,47,2.7,47l-1.1,0H1.2c-0.1,0-0.1,0-0.2,0c-0.1,0-0.1,0-0.1,0c-0.1,0-0.2,0-0.2,0c0,0,0,0.1,0,0.1c0,0,0,0.1,0,0.1
			c0,0,0.1,0,0.4,0.1c0.2,0,0.4,0.1,0.4,0.2c0.1,0.1,0.1,0.3,0.1,0.6l0,0.8l0,1.1l0,0.6l0,0.5c0,0.1,0,0.2,0,0.4c0,0.4,0,0.7,0,0.8
			v0c0,0.1-0.1,0.1-0.1,0.1c-0.1,0-0.3,0.1-0.7,0.1c0,0-0.1,0.1-0.1,0.1l0,0l0.1,0c0.2,0,0.4,0,0.4,0l0.6,0l0.6,0c0,0,0.1,0,0.1,0
			c0.1,0,0.3,0,0.5,0c0,0,0.1,0,0.2,0c0,0,0-0.1,0-0.1l-0.2,0c-0.3-0.1-0.4-0.1-0.5-0.1c-0.1,0-0.1-0.1-0.1-0.1c0-0.1,0-0.2,0-0.2
			v-1.5c0-0.3,0-0.5,0-0.6l0.1,0l0.4,0c0.1,0,0.2,0,0.2,0c0.1,0,0.1,0.1,0.2,0.2l0.6,1.1c0.3,0.5,0.5,0.9,0.7,1.3c0.1,0,0.1,0,0.2,0
			c0.5,0,1,0,1.4,0c0,0,0,0,0-0.1c0,0,0,0,0-0.1C5.8,52.3,5.6,52.3,5.5,52.2z M3.2,49.5c-0.3,0-0.5,0.1-0.7,0.1c0,0-0.1,0-0.2,0
			c0-0.3,0-0.6,0-0.8l0-0.3l0-0.8c0-0.1,0-0.2,0-0.3c0.1,0,0.2,0,0.3,0c0.3,0,0.6,0.1,0.8,0.2c0.2,0.1,0.4,0.2,0.5,0.4
			c0.1,0.2,0.2,0.4,0.2,0.6c0,0.2,0,0.3-0.1,0.5c-0.1,0.2-0.2,0.3-0.3,0.4C3.5,49.4,3.4,49.5,3.2,49.5z M12,47l-0.8,0L11,47
			c0,0,0,0,0,0.1c0,0,0,0.1,0,0.1c0,0,0.1,0,0.1,0c0.3,0,0.5,0.1,0.6,0.1c0.1,0,0.1,0.1,0.1,0.1c0,0,0,0,0,0.1c0,0,0,0.1-0.1,0.2
			l-0.7,1.1l-0.6,0.9c-0.1,0.1-0.1,0.2-0.2,0.2l-0.6-1c-0.1-0.1-0.1-0.2-0.2-0.3C9.2,48.4,9,48.2,8.9,48c-0.1-0.1-0.2-0.2-0.2-0.3
			c0,0-0.1-0.1-0.1-0.1c0-0.1-0.1-0.1-0.1-0.1c0,0,0-0.1,0.1-0.1c0.1,0,0.1-0.1,0.2-0.1l0.1,0l0.2,0h0l0.1-0.1v0c0,0,0,0,0-0.1
			c-0.1,0-0.1,0-0.2,0l-0.5,0c-0.3,0-0.6,0-1,0c-0.2,0-0.4,0-0.5,0H7l0,0.2c0,0,0.1,0,0.1,0c0.2,0,0.3,0,0.4,0.1
			c0.1,0.1,0.3,0.2,0.4,0.5l0.9,1.4L9.4,50c0.1,0.2,0.2,0.3,0.2,0.3c0,0.1,0,0.2,0,0.5c0,0.7,0,1.1,0,1.2c0,0.1,0,0.1-0.1,0.2
			c0,0-0.1,0.1-0.3,0.1l-0.6,0.1c0,0,0,0-0.1,0c0,0,0,0,0,0.1c0,0,0,0,0,0.1c0.1,0,0.1,0,0.2,0h0.6l0.7,0l1.1,0c0,0,0-0.1,0-0.1v0
			c-0.5-0.1-0.8-0.1-0.9-0.1c0,0-0.1-0.1-0.1-0.1c0-0.2,0-0.7,0-1.6c0-0.2,0-0.4,0-0.5c0,0,0.1-0.1,0.1-0.2c0-0.1,0.1-0.1,0.2-0.2
			c0.2-0.3,0.4-0.7,0.7-1.1s0.6-0.8,1.1-1.2c0,0,0.1,0,0.1-0.1c0,0,0.1,0,0.1,0l0.1,0c0,0,0.1,0,0.1,0l0-0.1c-0.1,0-0.2,0-0.2,0
			L12,47z M19.8,48.1c-0.2-0.3-0.5-0.5-0.7-0.7c-0.2-0.1-0.5-0.3-0.8-0.3S17.7,47,17.4,47c-0.4,0-0.8,0-1.1,0.1
			c-0.4,0.1-0.7,0.3-1,0.5c-0.2,0.2-0.4,0.4-0.6,0.7c-0.2,0.3-0.3,0.5-0.4,0.7c-0.1,0.2-0.1,0.5-0.1,0.8c0,0.4,0.1,0.7,0.2,1
			c0.1,0.3,0.3,0.6,0.5,0.8c0.2,0.2,0.4,0.4,0.6,0.6c0.2,0.1,0.4,0.2,0.7,0.3c0.3,0.1,0.6,0.1,1,0.1c0.4,0,0.7-0.1,1-0.2
			c0.3-0.1,0.6-0.2,0.8-0.4c0.3-0.2,0.6-0.5,0.7-0.6c0.2-0.2,0.3-0.5,0.4-0.7s0.1-0.6,0.1-0.9c0-0.3-0.1-0.6-0.2-1
			C20,48.5,19.9,48.3,19.8,48.1z M19.4,50.7c-0.1,0.3-0.2,0.6-0.3,0.8c-0.1,0.2-0.3,0.4-0.5,0.5c-0.2,0.2-0.4,0.3-0.7,0.3
			c-0.3,0.1-0.5,0.1-0.7,0.1c-0.3,0-0.5,0-0.7-0.1c-0.2-0.1-0.4-0.2-0.6-0.4c-0.2-0.2-0.3-0.4-0.5-0.6c-0.1-0.2-0.2-0.5-0.3-0.8
			s-0.1-0.6-0.1-0.8c0-0.2,0-0.5,0.1-0.8c0.1-0.3,0.2-0.6,0.3-0.8c0.1-0.2,0.3-0.4,0.4-0.6c0.2-0.1,0.4-0.2,0.6-0.3
			c0.2-0.1,0.5-0.1,0.8-0.1c0.3,0,0.6,0.1,0.9,0.2c0.3,0.1,0.5,0.3,0.7,0.5c0.2,0.2,0.3,0.5,0.4,0.8c0.1,0.4,0.2,0.8,0.2,1.1
			C19.5,50.1,19.5,50.4,19.4,50.7z M31.1,47.1c-0.3,0-0.5,0-0.6,0c-0.1,0-0.2,0-0.3,0c-0.1,0-0.2,0-0.3,0c-0.1,0-0.1,0-0.2,0
			c0,0,0,0.1,0,0.1c0,0,0,0.1,0.1,0.1c0,0,0.1,0,0.2,0c0.1,0,0.2,0,0.2,0c0.2,0,0.3,0.1,0.4,0.1c0,0.1,0.1,0.2,0.1,0.5
			c0,0.2,0,0.4,0,0.6c0,0.2,0,0.4,0,0.5c0,0.6,0,1,0,1.1v0.2l0,0.4l0,0.3c0,0,0,0.2,0,0.6l0,0.1c-0.2-0.2-0.3-0.3-0.4-0.4l-1-1.1
			c-0.4-0.5-0.7-0.8-0.9-0.9c-0.1-0.2-0.3-0.3-0.5-0.5l-0.1-0.2l-0.9-1c0,0-0.1-0.1-0.1-0.1c-0.1-0.1-0.2-0.2-0.3-0.3
			c-0.1,0-0.1,0-0.1,0c0,0-0.1,0-0.2,0c-0.2,0-0.5,0-1,0l0,0.2c0.1,0,0.2,0,0.3,0.1c0.2,0,0.3,0.1,0.4,0.1c0.1,0,0.1,0.1,0.1,0.1
			c0,0.1,0,0.4,0.1,1l0,1.2v0.6c0,0.5,0,0.8,0,1c0,0.4,0,0.7,0,0.9c0,0-0.1,0.1-0.1,0.1c-0.1,0-0.2,0.1-0.4,0.1l-0.2,0l-0.1,0.1
			l0,0.1c0,0,0.1,0,0.1,0l0.1,0c0.2,0,0.5,0,0.7,0c0.4,0,0.7,0,1,0c0,0,0.1,0,0.1,0c0,0,0.1,0,0.1,0l0-0.2c0,0,0,0-0.1,0
			c-0.3-0.1-0.5-0.1-0.8-0.1l-0.1,0c0-0.1,0-0.2,0-0.3l0-1.4c0-1,0-1.7,0-2.3l0-0.1c0.1,0.1,0.1,0.1,0.2,0.1c0,0,0.1,0.2,0.3,0.3
			c0.3,0.3,0.5,0.5,0.6,0.7c0.5,0.5,0.9,1,1.2,1.3c0,0,0.1,0.1,0.1,0.1c0,0,0.1,0.1,0.3,0.3l0.4,0.4c0,0.1,0.1,0.2,0.3,0.3
			c0.6,0.6,0.9,1,1,1.1l0.2,0c0-0.3,0-0.5,0-0.6c0-0.4,0-0.9,0-1.5l0-0.9l0-0.2l0-0.6l0-1.3c0-0.1,0-0.2,0.1-0.2c0,0,0.1,0,0.2-0.1
			c0.1,0,0.1,0,0.2,0c0.1,0,0.1,0,0.2,0l0-0.1h-0.1C31.4,47.1,31.3,47.1,31.1,47.1z M38.5,52.3c0,0-0.1,0-0.2-0.1
			c-0.1,0-0.1,0-0.2-0.1c0,0-0.1-0.1-0.2-0.2c-0.1-0.1-0.2-0.5-0.4-1L37.3,50l-0.6-1.7c-0.1-0.3-0.2-0.5-0.3-0.7
			c-0.1-0.3-0.2-0.5-0.3-0.8l-0.1,0l-0.1,0c-0.1,0.3-0.2,0.5-0.2,0.6c-0.2,0.6-0.4,1-0.5,1.2l-0.4,1.1c-0.1,0.2-0.1,0.4-0.2,0.5
			c0,0.1-0.1,0.2-0.2,0.5c-0.2,0.5-0.3,0.9-0.5,1.2c-0.1,0.1-0.2,0.2-0.3,0.3c0,0-0.2,0-0.4,0.1c0,0-0.1,0-0.1,0H33c0,0-0.1,0-0.1,0
			c0,0,0,0.1,0,0.1v0c0.1,0,0.2,0,0.3,0c0,0,0.1,0,0.2,0c0.1,0,0.3,0,0.3,0s0.2,0,0.3,0c0.3,0,0.6,0,0.8,0c0.1,0,0.2,0,0.3,0
			c0,0,0,0,0-0.1c0,0,0,0,0-0.1l-0.6-0.1c-0.1,0-0.2,0-0.2,0c0-0.1,0-0.1,0-0.1c0,0,0.1-0.3,0.2-0.7l0.4-1.2c0,0,0-0.1,0.1-0.2
			c0.1,0,0.2,0,0.3,0l0.3,0l0.9,0c0.1,0,0.2,0,0.3,0c0.3,0.7,0.4,1.1,0.5,1.3c0,0.1,0.1,0.3,0.1,0.4c0.1,0.2,0.1,0.3,0.1,0.4
			c0,0,0,0.1,0,0.1c-0.1,0-0.1,0-0.3,0l-0.4,0c0,0-0.1,0-0.1,0c0,0,0,0.1,0,0.1c0,0,0.1,0,0.1,0h0.1c0,0,0.1,0,0.1,0
			c0,0,0.1,0,0.1,0l0.5,0l0.4,0c0.4,0,0.6,0,0.8,0c0,0,0.1,0,0.2,0c0,0,0,0,0-0.1c0,0,0,0,0-0.1C38.7,52.3,38.6,52.3,38.5,52.3z
			 M36,49.8c-0.4,0-0.7,0-1,0l0,0c0,0,0-0.1,0-0.1s0-0.1,0.1-0.2c0-0.1,0.1-0.2,0.1-0.3c0.1-0.2,0.2-0.6,0.4-1
			c0.1-0.3,0.2-0.4,0.2-0.4l0,0.1l0.4,1c0,0.1,0.1,0.3,0.3,0.8c0,0.1,0.1,0.2,0.1,0.3C36.4,49.8,36.2,49.8,36,49.8z M46.4,52.4
			c-0.4,0-0.8-0.3-1.2-0.7c-0.3-0.3-0.7-0.6-1.2-1c-0.5-0.4-0.9-0.7-1.2-1c-0.1-0.1-0.1-0.1-0.1-0.1c0,0,0,0-0.1-0.1l0.7-0.5
			l1.1-0.9c0.2-0.1,0.3-0.3,0.5-0.4c0.3-0.2,0.4-0.2,0.5-0.3c0.1-0.1,0.4-0.1,0.7-0.1c0,0,0-0.1,0-0.2c-0.1,0-0.1,0-0.2,0
			c0,0-0.1,0-0.2,0l-0.7,0c0,0-0.1,0-0.1,0c-0.3,0-0.5,0-0.5,0c-0.1,0-0.2,0-0.3,0c-0.1,0-0.1,0-0.2,0c0,0,0,0,0,0.1
			c0,0,0,0.1,0,0.1c0,0,0.1,0,0.3,0c0.1,0,0.2,0,0.3,0c0.1,0,0.1,0,0.2,0.1c0,0,0,0.1-0.1,0.1c-0.1,0.2-0.4,0.4-0.7,0.6l-1.2,1
			c-0.4,0.3-0.7,0.5-0.8,0.6c-0.1,0-0.1,0.1-0.2,0.1c0.5,0.3,0.8,0.6,1.1,0.8l0.8,0.7l0.5,0.4c0.2,0.1,0.3,0.2,0.3,0.3
			c0.1,0.1,0.1,0.1,0.1,0.1c0.1,0.1,0.1,0.1,0.1,0.2c0,0-0.1,0-0.1,0c-0.2,0-0.3,0-0.5,0.1c-0.1,0-0.2,0.1-0.2,0.1l0,0
			c0,0,0,0,0,0.1c0.5,0,1-0.1,1.4-0.1c0.1,0,0.2,0,0.4,0c0.3,0,0.5,0,0.6,0c0,0,0.1,0,0.2,0l0-0.1l0,0
			C46.6,52.4,46.5,52.4,46.4,52.4z M42.3,52.4c-0.2,0-0.4-0.1-0.5-0.1c0,0-0.1,0-0.1-0.1c0,0,0-0.2,0-0.6l0-1.1v-2.7l0-0.1
			c0-0.2,0-0.3,0.1-0.3c0.1-0.1,0.3-0.1,0.5-0.2c0.1,0,0.2,0,0.2,0c0,0,0,0,0-0.1c0,0,0,0,0-0.1c-0.1,0-0.2,0-0.3,0
			c-0.2,0-0.4,0-0.6,0c-0.1,0-0.3,0-0.4,0c-0.4,0-0.7,0-0.8,0c0,0,0,0,0,0.1c0,0,0,0.1,0.1,0.1c0.2,0,0.3,0,0.5,0c0,0,0.1,0,0.1,0.1
			c0,0.1,0,0.1,0.1,0.2c0,0.2,0,0.4,0,0.9l0,0.8l0,1.2l0,0.3v0.8l0,0.4c0,0.1,0,0.2-0.1,0.3c-0.2,0.1-0.4,0.1-0.7,0.2c0,0,0,0-0.1,0
			l0,0.1c0.1,0,0.1,0,0.2,0c0.3,0,0.5,0,0.6,0c0.2,0,0.3,0,0.4,0c0.1,0,0.3,0,0.5,0c0.2,0,0.4,0,0.4,0l0.1,0c0,0,0.1-0.1,0.1-0.1
			c0,0,0-0.1,0-0.1C42.4,52.4,42.4,52.4,42.3,52.4z M53.1,52.3c0,0-0.1,0-0.2-0.1c-0.1,0-0.1,0-0.2-0.1c0,0-0.1-0.1-0.2-0.2
			c-0.1-0.1-0.2-0.5-0.4-1L51.9,50l-0.6-1.7c-0.1-0.3-0.2-0.5-0.3-0.7c-0.1-0.3-0.2-0.5-0.3-0.8l-0.1,0l-0.1,0
			c-0.1,0.3-0.2,0.5-0.2,0.6c-0.2,0.6-0.4,1-0.5,1.2l-0.4,1.1c-0.1,0.2-0.1,0.4-0.2,0.5c0,0.1-0.1,0.2-0.2,0.5
			c-0.2,0.5-0.3,0.9-0.5,1.2c-0.1,0.1-0.2,0.2-0.3,0.3c0,0-0.2,0-0.4,0.1c0,0-0.1,0-0.1,0h-0.1c0,0-0.1,0-0.1,0c0,0,0,0.1,0,0.1v0
			c0.1,0,0.2,0,0.3,0c0,0,0.1,0,0.2,0c0.1,0,0.3,0,0.3,0s0.2,0,0.3,0c0.3,0,0.6,0,0.8,0c0.1,0,0.2,0,0.3,0c0,0,0,0,0-0.1
			c0,0,0,0,0-0.1l-0.6-0.1c-0.1,0-0.2,0-0.2,0c0-0.1,0-0.1,0-0.1c0,0,0.1-0.3,0.2-0.7l0.4-1.2c0,0,0-0.1,0.1-0.2c0.1,0,0.2,0,0.3,0
			l0.3,0l0.9,0c0.1,0,0.2,0,0.3,0c0.3,0.7,0.4,1.1,0.5,1.3c0,0.1,0.1,0.3,0.1,0.4c0.1,0.2,0.1,0.3,0.1,0.4c0,0,0,0.1,0,0.1
			c-0.1,0-0.1,0-0.3,0l-0.4,0c0,0-0.1,0-0.1,0c0,0,0,0.1,0,0.1c0,0,0.1,0,0.1,0h0.1c0,0,0.1,0,0.1,0c0,0,0.1,0,0.1,0l0.5,0l0.4,0
			c0.4,0,0.6,0,0.8,0c0,0,0.1,0,0.2,0c0,0,0,0,0-0.1c0,0,0,0,0-0.1C53.3,52.3,53.2,52.3,53.1,52.3z M50.6,49.8c-0.4,0-0.7,0-1,0l0,0
			c0,0,0-0.1,0-0.1c0,0,0-0.1,0.1-0.2c0-0.1,0.1-0.2,0.1-0.3c0.1-0.2,0.2-0.6,0.4-1c0.1-0.3,0.2-0.4,0.2-0.4l0,0.1l0.4,1
			c0,0.1,0.1,0.3,0.3,0.8c0,0.1,0.1,0.2,0.1,0.3C51,49.8,50.8,49.8,50.6,49.8z M59.8,51.2c-0.2,0.4-0.3,0.7-0.4,0.8
			c-0.1,0.1-0.3,0.2-0.4,0.2c-0.2,0-0.5,0.1-1.1,0.1c-0.2,0-0.4,0-0.6,0c-0.2,0-0.2,0-0.3,0l-0.3,0c-0.2,0-0.3,0-0.3-0.1
			c0,0-0.1-0.2-0.1-0.5l0-0.5l0-0.5l0-0.8l0-0.1c0.1,0,0.4,0,0.8,0h0.3c0.2,0,0.4,0,0.5,0c0.1,0,0.2,0,0.2,0c0.2,0,0.3,0,0.4,0.1
			c0.1,0.1,0.2,0.3,0.2,0.5c0,0.2,0.1,0.3,0.1,0.4h0c0,0,0,0,0.1,0c0,0,0-0.1,0-0.1c0,0,0-0.1,0-0.3c0-0.2,0-0.3,0-0.5
			c0-0.6,0-0.9,0-1c0,0,0-0.1,0-0.1c0,0,0,0,0-0.1c0,0-0.1,0-0.1,0c-0.1,0-0.1,0.2-0.1,0.4c0,0.2-0.1,0.3-0.1,0.4
			c0,0-0.1,0.1-0.3,0.1c-0.5,0-0.9,0-1.2,0c0,0-0.1,0-0.1,0c-0.1,0-0.2,0-0.3,0c-0.1,0-0.2,0-0.2,0h-0.1c0,0-0.1,0-0.1,0V49
			c0-0.6,0-1,0-1c0-0.3,0-0.5,0.1-0.6c0,0,0.1-0.1,0.3-0.1h0.1l1.2,0c0.1,0,0.1,0,0.2,0c0.2,0,0.4,0,0.4,0c0.1,0,0.2,0,0.2,0
			c0,0,0.1,0.1,0.2,0.2c0.1,0.2,0.2,0.3,0.2,0.5c0.1,0.1,0.1,0.2,0.1,0.3c0,0,0.1,0,0.1,0c0,0,0,0,0,0c0-0.2,0-0.5,0-0.7
			c0,0,0-0.1,0-0.2c0-0.1,0-0.1,0-0.2c0,0,0,0,0-0.1l0,0l-0.4,0l-0.1,0l-0.6,0c-0.3,0-0.4,0-0.5,0c-0.1,0-0.2,0-0.4,0s-0.5,0-0.9,0
			l-0.7,0l-0.3,0c-0.2,0-0.4,0-0.5,0c-0.1,0-0.1,0-0.1,0c0,0,0,0-0.1,0c0,0,0,0.1,0,0.1c0,0,0,0.1,0.1,0.1c0.1,0,0.2,0,0.3,0
			c0.3,0,0.4,0,0.5,0.1c0,0,0.1,0.2,0.1,0.5l0,1.2l0,1.1l0,0.5l0,1.1l0,0.3c0,0.1,0,0.2-0.1,0.2c-0.1,0-0.2,0.1-0.5,0.1
			c-0.1,0-0.2,0-0.2,0c0,0,0,0-0.1,0l0,0c0,0,0,0,0,0.1c0,0,0,0,0.1,0c0.2,0,0.6,0,1.1,0c0.1,0,0.1,0,0.2,0h0.5l1.3,0l0.5,0l1.2,0
			h0.1c0-0.1,0.1-0.1,0.1-0.2c0-0.2,0-0.4,0.1-0.6c0-0.1,0.1-0.3,0.1-0.6c0,0-0.1,0-0.1,0C60,51.1,59.9,51.1,59.8,51.2z M62.3,47
			c-0.1,0-0.2,0-0.3,0.1c-0.1,0.1-0.1,0.1-0.1,0.2c0,0.1,0,0.2,0.1,0.2c0.1,0.1,0.1,0.1,0.2,0.1l0.3,0c0,0,0.1,0,0.1,0.1
			c0,0.1,0.1,0.1,0.1,0.2c0,0.1,0,0.1-0.1,0.2c-0.1,0.2-0.2,0.3-0.3,0.4c-0.1,0.1-0.2,0.2-0.4,0.3l0,0.2c0.2,0,0.4-0.1,0.8-0.4
			c0.3-0.3,0.5-0.6,0.5-0.9c0-0.2-0.1-0.4-0.2-0.5C62.7,47,62.5,47,62.3,47z M66.8,50.8c-0.1-0.1-0.4-0.2-0.7-0.4s-0.5-0.2-0.6-0.3
			c-0.1-0.1-0.1-0.2-0.1-0.3c0-0.2,0.1-0.3,0.2-0.4c0.1-0.1,0.2-0.2,0.4-0.2c0.2,0,0.3,0.1,0.5,0.2s0.3,0.3,0.4,0.6H67
			c0,0,0.1,0,0.1,0l0-0.1c0-0.3,0-0.5-0.1-0.6c-0.1-0.1-0.3-0.1-0.4-0.1c-0.2,0-0.3,0-0.5,0c-0.2,0-0.3,0-0.5,0.1
			c-0.2,0.1-0.3,0.2-0.4,0.3c-0.1,0.1-0.2,0.3-0.2,0.5c0,0.2,0.1,0.4,0.2,0.5c0.1,0.2,0.4,0.3,0.7,0.4c0.4,0.1,0.6,0.3,0.8,0.4
			c0.1,0.2,0.2,0.3,0.2,0.5c0,0.1-0.1,0.3-0.2,0.4c-0.2,0.1-0.3,0.2-0.5,0.2c-0.2,0-0.3,0-0.5-0.1c-0.2-0.1-0.3-0.2-0.4-0.4
			c-0.1-0.1-0.1-0.3-0.2-0.5c-0.1,0-0.1,0-0.1,0s0,0,0,0.1c0,0.1,0,0.3,0.1,0.7c0,0.1,0,0.1,0,0.1c0,0.1,0,0.1,0,0.1
			c0.3,0.1,0.6,0.2,1,0.2c0.2,0,0.3,0,0.5-0.1c0.2-0.1,0.4-0.2,0.5-0.4c0.1-0.2,0.2-0.4,0.2-0.5c0-0.1,0-0.3-0.1-0.4
			C67.1,51,67,50.9,66.8,50.8z M75.9,47.2c-0.3-0.1-0.6-0.2-1.1-0.2c-0.3,0-0.5,0-0.7,0l-0.7,0c-0.2,0-0.3,0-0.4,0c0,0-0.1,0-0.2,0
			c-0.2,0-0.4,0-0.5,0c0,0,0,0-0.1,0c0,0,0,0.1,0,0.1c0,0,0,0,0,0.1c0.4,0.1,0.7,0.1,0.8,0.2c0.1,0.1,0.1,0.2,0.1,0.4v0.1
			c0,0.5,0,1,0,1.6c0,1.1,0,1.8,0,2.1c0,0.1,0,0.2,0,0.2c0,0.1,0,0.1,0,0.2c0,0.1,0,0.2,0,0.2c0,0-0.1,0.1-0.2,0.1l-0.6,0.1l0,0.1
			c0.1,0,0.2,0,0.2,0l0.4,0l0.7,0c0.1,0,0.3,0,0.6,0c0.1,0,0.2,0,0.2,0c0.1,0,0.1,0,0.1,0c0,0,0,0,0-0.1c0,0,0,0-0.1-0.1
			c0,0-0.1,0-0.3-0.1c-0.3-0.1-0.5-0.1-0.6-0.1c0-0.1,0-0.2,0-0.3c0-0.1,0-0.1,0-0.2c0-0.1,0-0.1,0-0.2l-0.1-1.9v-0.2
			c0-0.1,0-0.5,0-1.1c0-0.2,0-0.3,0-0.4l0-0.1l0-0.5l0-0.1c0.1-0.1,0.3-0.1,0.6-0.1c0.1,0,0.3,0,0.5,0.1c0.2,0,0.4,0.1,0.5,0.2
			c0.2,0.1,0.3,0.3,0.4,0.5c0.1,0.2,0.2,0.4,0.2,0.6c0,0.2-0.1,0.4-0.2,0.6c-0.1,0.2-0.3,0.4-0.5,0.5c-0.2,0.1-0.4,0.2-0.6,0.2
			c-0.1,0-0.3,0-0.4-0.1c0,0-0.1,0-0.1,0c0,0,0,0,0,0c0,0,0,0.1,0.1,0.1c0.1,0.1,0.2,0.1,0.3,0.2c0.1,0,0.2,0,0.4,0
			c0.5,0,0.9-0.2,1.3-0.5c0.3-0.3,0.5-0.7,0.5-1.1c0-0.3-0.1-0.5-0.2-0.8C76.4,47.5,76.2,47.3,75.9,47.2z M80.4,49
			c-0.4,0-0.7,0.1-0.9,0.2c-0.2,0.1-0.4,0.2-0.5,0.4c-0.2,0.2-0.3,0.4-0.4,0.6c-0.1,0.2-0.1,0.4-0.1,0.6c0,0.3,0.1,0.7,0.3,0.9
			c0.2,0.3,0.4,0.5,0.6,0.6c0.3,0.2,0.6,0.3,1,0.3c0.6,0,1-0.2,1.4-0.5c0.4-0.4,0.6-0.8,0.6-1.2c0-0.5-0.2-0.9-0.5-1.3
			C81.3,49.2,80.9,49,80.4,49z M81.4,51.7c-0.1,0.3-0.3,0.4-0.5,0.6c-0.2,0.1-0.4,0.2-0.6,0.2c-0.3,0-0.6-0.1-0.9-0.4
			c-0.2-0.3-0.4-0.7-0.4-1.2c0-0.5,0.1-0.8,0.2-1.1c0.1-0.2,0.3-0.4,0.5-0.5c0.2-0.1,0.4-0.1,0.6-0.1c0.3,0,0.5,0.1,0.7,0.2
			c0.2,0.1,0.3,0.4,0.4,0.7c0.1,0.3,0.1,0.5,0.1,0.8C81.6,51.2,81.5,51.5,81.4,51.7z M86.1,49c-0.1,0-0.2,0.1-0.4,0.2
			c0,0-0.1,0.1-0.1,0.1l-0.1,0.1c-0.2,0.2-0.3,0.3-0.4,0.5c0,0,0-0.1,0-0.1l0-0.1c0-0.5,0-0.8,0-0.9l-0.1,0
			c-0.1,0.2-0.2,0.4-0.4,0.5c-0.1,0.1-0.3,0.2-0.6,0.3l0,0.1c0.1,0,0.1,0,0.2,0.1c0.2,0,0.3,0.1,0.3,0.1c0,0,0.1,0.1,0.1,0.3
			c0,0.1,0,0.7,0,1.7c0,0.2,0,0.3,0,0.3c0,0,0,0-0.1,0.1l-0.4,0.1l-0.3,0.1c0,0,0,0.1,0,0.1l0,0.1l0.7,0l0.2,0h0.4l0.3,0l0.2,0
			l0.5,0c0,0,0-0.1,0-0.1c0,0,0,0,0-0.1c0,0-0.1,0-0.3-0.1c0,0,0,0-0.1,0c-0.1,0-0.2,0-0.5-0.1c0,0-0.1-0.1-0.1-0.1c0,0,0-0.1,0-0.2
			l0-0.8l0-0.7c0-0.1,0-0.3,0.1-0.4c0.1-0.2,0.2-0.3,0.3-0.4c0,0,0.1,0,0.2,0c0,0,0.1,0,0.3,0.1c0.1,0,0.2,0.1,0.3,0.1
			c0.1,0,0.2,0,0.3-0.1c0.1-0.1,0.1-0.1,0.1-0.2c0-0.1,0-0.2-0.1-0.3C86.4,49,86.3,49,86.1,49z M90.2,52.1L90.2,52.1
			c-0.1,0.1-0.2,0.1-0.3,0.1c-0.2,0-0.3,0.1-0.4,0.1c-0.1,0-0.3,0-0.3-0.1c-0.1-0.1-0.1-0.3-0.1-0.6l0-1.1l0-0.6c0-0.1,0-0.2,0-0.2
			l0.1,0l0.3,0l0.7,0h0.1c0-0.1,0-0.1,0-0.2c0,0,0-0.1,0-0.1c-0.1,0-0.2,0-0.3,0c-0.1,0-0.2,0-0.4,0c-0.2,0-0.3,0-0.4,0
			c0,0,0,0-0.1,0l0-0.5l0-0.4l-0.1,0c0,0-0.1,0.1-0.1,0.2c-0.1,0.2-0.1,0.3-0.1,0.3c-0.1,0.1-0.2,0.2-0.2,0.3
			c-0.1,0.1-0.2,0.1-0.3,0.2c-0.1,0-0.2,0.1-0.2,0.1c0,0,0,0,0,0.1c0,0,0,0,0,0.1c0,0,0,0,0.1,0l0,0l0.3,0l0.1,0c0,0.1,0,0.2,0,0.2
			V50l0,0.5l0,1c0,0.4,0,0.6,0.1,0.8c0,0.1,0.1,0.2,0.2,0.3c0.1,0.1,0.3,0.1,0.5,0.1c0.3,0,0.5,0,0.6-0.1c0.2-0.1,0.3-0.2,0.4-0.3
			L90.2,52.1C90.3,52.2,90.3,52.1,90.2,52.1C90.2,52.1,90.2,52.1,90.2,52.1z M94.2,46.8c-0.2,0-0.4,0-0.5,0.1
			c-0.2,0.1-0.3,0.1-0.4,0.2c-0.2,0.1-0.3,0.3-0.4,0.5c-0.1,0.2-0.2,0.4-0.3,0.6c0,0.1,0,0.2-0.1,0.5c0,0.1,0,0.2,0,0.2
			c0,0.1,0,0.2,0,0.2c0,0.1-0.1,0.1-0.2,0.1c-0.2,0.1-0.3,0.2-0.4,0.2c0,0,0,0.1,0,0.1l0,0c0.1,0,0.2,0,0.3,0c0.2,0,0.3,0,0.3,0
			c0,0.5,0,1.1,0,1.9c0,0.3,0,0.4,0,0.5c0,0.1,0,0.1-0.1,0.1c-0.1,0.1-0.2,0.1-0.5,0.2c0,0-0.1,0-0.1,0l0,0.1h0.1l1.1,0l0.3,0
			c0.2,0,0.4,0,0.5,0l0.1,0c0,0,0-0.1,0-0.1c-0.1,0-0.2,0-0.3,0c-0.2,0-0.3-0.1-0.4-0.1c-0.1,0-0.1-0.1-0.2-0.1
			C93,52,93,51.8,93,51.7l0-1.1c0-0.1,0-0.4,0-0.8c0,0,0,0,0-0.1c0,0,0-0.1,0-0.1c0.1,0,0.4,0,0.7,0h0.2c0.1,0,0.1,0,0.2,0
			c0-0.1,0-0.1,0-0.2c0,0,0-0.1,0-0.1c0,0-0.4,0-1.1,0c0-0.2,0-0.3,0-0.5c0-0.5,0-0.8,0.1-1c0-0.1,0.1-0.3,0.2-0.4
			c0.1-0.1,0.3-0.1,0.4-0.1c0.1,0,0.1,0,0.2,0c0,0,0.2,0.1,0.4,0.2c0.1,0.1,0.2,0.1,0.3,0.1c0.1,0,0.2,0,0.2-0.1
			c0.1-0.1,0.1-0.1,0.1-0.2c0-0.1,0-0.2-0.1-0.2C94.6,46.9,94.4,46.8,94.2,46.8z M97.6,49c-0.4,0-0.7,0.1-0.9,0.2
			c-0.2,0.1-0.4,0.2-0.5,0.4c-0.2,0.2-0.3,0.4-0.4,0.6c-0.1,0.2-0.1,0.4-0.1,0.6c0,0.3,0.1,0.7,0.3,0.9c0.2,0.3,0.4,0.5,0.6,0.6
			c0.3,0.2,0.6,0.3,1,0.3c0.6,0,1-0.2,1.4-0.5c0.4-0.4,0.6-0.8,0.6-1.2c0-0.5-0.2-0.9-0.5-1.3C98.5,49.2,98.1,49,97.6,49z
			 M98.6,51.7c-0.1,0.3-0.3,0.4-0.5,0.6s-0.4,0.2-0.6,0.2c-0.3,0-0.6-0.1-0.9-0.4c-0.2-0.3-0.4-0.7-0.4-1.2c0-0.5,0.1-0.8,0.2-1.1
			c0.1-0.2,0.3-0.4,0.5-0.5c0.2-0.1,0.4-0.1,0.6-0.1c0.3,0,0.5,0.1,0.7,0.2c0.2,0.1,0.3,0.4,0.4,0.7c0.1,0.3,0.1,0.5,0.1,0.8
			C98.8,51.2,98.7,51.5,98.6,51.7z M102.5,52.3c-0.2,0-0.3-0.1-0.3-0.1c0,0,0-0.2,0-0.5c0,0,0-0.2,0-0.4c0-0.4,0-1.8,0-4.2v-0.2H102
			c-0.3,0.1-0.5,0.2-0.6,0.2c-0.1,0-0.2,0.1-0.3,0.1v0.1c0.1,0,0.2,0.1,0.3,0.1c0.1,0,0.2,0.1,0.2,0.1c0,0,0,0.1,0,0.2l0,0.5l0,1
			l0,1l0,1c0,0.5,0,0.8,0,0.9c0,0.1,0,0.1-0.1,0.1c0,0-0.1,0-0.3,0.1c-0.2,0-0.3,0.1-0.3,0.1c0,0,0,0,0,0.1c0,0,0,0,0,0.1
			c0,0,0.1,0,0.1,0l0.7,0l0.6,0c0.3,0,0.4,0,0.4,0c0,0,0.1,0,0.1,0c0,0,0,0,0-0.1c0,0,0,0,0-0.1C102.8,52.3,102.7,52.3,102.5,52.3z
			 M105.7,52.3c-0.2-0.1-0.3-0.1-0.3-0.1c0,0-0.1-0.1-0.1-0.2l0-1.3l0-1.2v-0.2c0-0.1,0-0.2,0-0.2c0-0.1,0-0.2,0-0.3l-0.1,0
			c0,0,0,0-0.1,0c-0.1,0.1-0.2,0.2-0.3,0.3c-0.1,0.1-0.2,0.2-0.3,0.2c0,0-0.1,0-0.3,0.1l0,0.1c0.2,0,0.3,0.1,0.4,0.1
			c0.1,0,0.1,0.1,0.1,0.1c0,0,0,0.2,0,0.4c0,1,0,1.6,0,1.8c0,0.1,0,0.2-0.1,0.3c0,0-0.1,0.1-0.2,0.1c-0.3,0.1-0.4,0.1-0.4,0.1
			c-0.1,0-0.1,0.1-0.1,0.1c0,0,0,0,0,0.1c0,0,0.1,0,0.1,0c0.1,0,0.2,0,0.2,0c0.4,0,0.6,0,0.7,0c0.1,0,0.2,0,0.5,0c0.2,0,0.3,0,0.4,0
			c0,0,0,0,0-0.1c0,0,0,0,0-0.1C105.9,52.4,105.8,52.4,105.7,52.3z M105.3,47.5c0.1-0.1,0.1-0.2,0.1-0.2c0-0.1,0-0.2-0.1-0.2
			c-0.1-0.1-0.2-0.1-0.3-0.1c-0.1,0-0.2,0-0.3,0.1s-0.1,0.1-0.1,0.2c0,0.1,0,0.2,0.1,0.3c0.1,0.1,0.2,0.1,0.3,0.1
			S105.2,47.6,105.3,47.5z M109.4,49c-0.4,0-0.7,0.1-0.9,0.2c-0.2,0.1-0.4,0.2-0.5,0.4c-0.2,0.2-0.3,0.4-0.4,0.6
			c-0.1,0.2-0.1,0.4-0.1,0.6c0,0.3,0.1,0.7,0.3,0.9c0.2,0.3,0.4,0.5,0.6,0.6c0.3,0.2,0.6,0.3,1,0.3c0.6,0,1-0.2,1.4-0.5
			c0.4-0.4,0.6-0.8,0.6-1.2c0-0.5-0.2-0.9-0.5-1.3C110.4,49.2,109.9,49,109.4,49z M110.4,51.7c-0.1,0.3-0.3,0.4-0.5,0.6
			s-0.4,0.2-0.6,0.2c-0.3,0-0.6-0.1-0.9-0.4c-0.2-0.3-0.4-0.7-0.4-1.2c0-0.5,0.1-0.8,0.2-1.1c0.1-0.2,0.3-0.4,0.5-0.5
			c0.2-0.1,0.4-0.1,0.6-0.1c0.3,0,0.5,0.1,0.7,0.2c0.2,0.1,0.3,0.4,0.4,0.7c0.1,0.3,0.1,0.5,0.1,0.8
			C110.6,51.2,110.5,51.5,110.4,51.7z M123.6,47.1h-0.3l-0.4,0l-0.3,0c0,0-0.1,0-0.2,0l0,0c0,0,0,0,0,0.1c0,0,0,0,0.1,0
			c0.2,0.1,0.4,0.1,0.4,0.1c0,0,0.1,0.1,0.1,0.1c0,0,0,0,0,0.1l0,0.1c0,0.2-0.1,0.3-0.1,0.5l-0.5,1.4l-0.3,0.8
			c-0.1,0.2-0.2,0.4-0.3,0.7l-0.3,0.7l0,0l-0.1,0.2c-0.1-0.2-0.1-0.4-0.2-0.6c-0.1-0.2-0.2-0.3-0.2-0.4l-0.4-1
			c-0.1-0.2-0.1-0.3-0.2-0.4l0.2-0.4c0.1-0.1,0.1-0.2,0.1-0.3c0-0.1,0.1-0.3,0.2-0.5l0.3-0.7c0.1-0.1,0.1-0.2,0.2-0.2
			c0.1-0.1,0.3-0.1,0.5-0.2c0.1,0,0.1,0,0.2-0.1c0,0,0,0,0-0.1c0,0,0,0,0-0.1c0,0-0.1,0-0.1,0l-0.3,0l-0.2,0h-0.3
			c-0.4,0-0.5,0-0.6,0c0,0,0,0-0.1,0c0,0,0,0.1,0,0.1l0,0l0.1,0l0.1,0c0.1,0,0.2,0,0.2,0.1c0,0,0.1,0.1,0.1,0.2c0,0.1,0,0.3-0.1,0.5
			c-0.2,0.6-0.4,1-0.5,1.2l-0.4-1c-0.2-0.5-0.3-0.8-0.3-0.9c0,0,0-0.1,0-0.1c0,0,0.1,0,0.3-0.1c0.1,0,0.2,0,0.2,0c0,0,0,0,0-0.1
			c0,0,0,0,0-0.1c0,0,0,0-0.1,0l-0.1,0c-0.1,0-0.1,0-0.1,0l-0.4,0h-0.2l-0.2,0h-0.2l-0.1,0l-0.3,0c0,0-0.1,0-0.2,0c0,0,0,0,0,0.1
			c0,0,0,0.1,0,0.1l0.1,0c0.3,0,0.4,0,0.5,0.1c0.1,0,0.1,0.2,0.2,0.4c0.1,0.1,0.1,0.3,0.2,0.5l0.7,1.7l0,0.1c0,0.2-0.2,0.4-0.4,0.8
			c-0.2,0.5-0.4,0.9-0.6,1.1c0-0.1,0-0.1-0.1-0.1c-0.2-0.4-0.3-0.6-0.3-0.7c-0.1-0.3-0.2-0.6-0.3-0.7c0-0.1-0.1-0.2-0.1-0.4
			l-0.6-1.6l-0.3-0.7c0-0.1,0-0.1-0.1-0.2c0,0,0-0.1,0-0.1c0,0,0,0,0-0.1c0,0,0.1,0,0.1,0l0.4,0c0,0,0-0.1,0-0.1c0,0,0,0,0-0.1
			c-0.1,0-0.3,0-0.7,0l-0.1,0l-0.2,0l-0.4,0c-0.2,0-0.3,0-0.3,0.1l0,0.1c0.1,0,0.1,0,0.2,0.1c0.1,0,0.2,0.1,0.2,0.2
			c0.1,0.3,0.2,0.5,0.2,0.6c0,0.1,0,0.1,0.1,0.2c0,0.1,0.1,0.2,0.1,0.2l0.5,1.3l0.6,1.3l0.7,1.7l0.2,0c0.1-0.1,0.2-0.3,0.3-0.6
			l0.3-0.7c0.2-0.5,0.4-0.8,0.5-1.1l0.1-0.1c0.3,0.5,0.6,1.1,0.9,1.8c0.1,0.3,0.2,0.5,0.2,0.6c0,0,0.1,0,0.1,0c0,0,0.1,0,0.1,0
			l0.2-0.5l0.5-1.3c0.2-0.6,0.4-1.1,0.6-1.6l0-0.1l0.1-0.2c0-0.1,0.1-0.1,0.1-0.2c0-0.1,0.1-0.2,0.1-0.3c0.2-0.5,0.3-0.7,0.3-0.8
			c0.1-0.2,0.1-0.3,0.2-0.3c0,0,0.1-0.1,0.1-0.1c0,0,0.2-0.1,0.4-0.2c0,0,0-0.1,0-0.1l0,0L123.6,47.1z M127.9,51.9
			c-0.2,0.1-0.3,0.2-0.4,0.2c-0.1,0-0.2,0.1-0.4,0.1c-0.3,0-0.6-0.1-0.8-0.2c-0.2-0.1-0.4-0.3-0.5-0.6c-0.1-0.3-0.2-0.5-0.2-0.6
			l0-0.2v0l0,0c0,0,0-0.1,0-0.2c0.1,0,0.3,0,0.4,0l0.3,0l1.7,0v-0.1c0-0.2-0.1-0.4-0.2-0.6c-0.1-0.2-0.3-0.4-0.5-0.5
			c-0.2-0.1-0.4-0.1-0.6-0.1c-0.2,0-0.5,0-0.6,0.1c-0.1,0.1-0.3,0.1-0.4,0.3c-0.1,0.1-0.2,0.2-0.3,0.4c-0.1,0.2-0.2,0.4-0.3,0.6
			c0,0.2-0.1,0.4-0.1,0.5c0,0.4,0.1,0.7,0.2,1c0.2,0.3,0.4,0.5,0.7,0.6c0.2,0.1,0.4,0.1,0.6,0.1c0.2,0,0.4,0,0.5,0
			c0.2-0.1,0.4-0.1,0.6-0.3c0.2-0.1,0.4-0.3,0.5-0.4c0,0,0,0,0-0.1l0-0.2L127.9,51.9z M126.1,49.6c0.2-0.2,0.5-0.4,0.8-0.4
			c0.2,0,0.3,0,0.4,0.1c0.1,0.1,0.2,0.1,0.3,0.3c0.1,0.1,0.1,0.2,0.1,0.3c0,0,0,0.1-0.1,0.1c0,0-0.1,0-0.2,0c-0.7,0-1.1,0.1-1.3,0.1
			h-0.2C125.8,49.9,125.9,49.8,126.1,49.6z M133.2,49.6c-0.1-0.1-0.3-0.2-0.4-0.3c-0.2-0.1-0.5-0.1-0.8-0.1c0,0-0.2,0-0.5,0.1
			c-0.2,0.1-0.3,0.1-0.4,0.1l-0.3,0.1c0-0.1,0-0.1,0-0.1l0-0.4l0-0.5l0-0.4v-1.3c0,0,0,0,0-0.1c0,0-0.1,0-0.1,0
			c-0.3,0.1-0.7,0.2-1,0.3c0,0.1,0,0.1,0,0.1v0c0.3,0.1,0.5,0.2,0.5,0.3c0.1,0.1,0.1,0.4,0.1,0.9v0.3c0,0.2,0,0.3,0,0.4l0,0.2v0.4
			l0,0.4l0,0.2l0,0.9l0,0.3l0,0.6c0,0.3,0,0.5,0,0.7l0.1,0c0.1-0.2,0.2-0.3,0.3-0.3c0,0,0.2,0,0.4,0.1c0.2,0.1,0.5,0.1,0.7,0.1
			c0.3,0,0.5-0.1,0.8-0.2c0.2-0.1,0.4-0.3,0.6-0.4c0.1-0.2,0.3-0.4,0.4-0.7c0-0.1,0.1-0.3,0.1-0.6c0-0.2-0.1-0.4-0.2-0.7
			C133.5,49.9,133.4,49.7,133.2,49.6z M132.7,52c-0.2,0.2-0.6,0.4-1,0.4c-0.2,0-0.4-0.1-0.6-0.2c-0.1-0.1-0.2-0.2-0.3-0.4
			c0-0.1,0-0.5,0-1.2c0-0.6,0-0.9,0-0.9c0,0,0.1-0.1,0.2-0.1c0.2-0.1,0.4-0.1,0.7-0.1c0.4,0,0.7,0.1,0.9,0.4
			c0.3,0.3,0.4,0.6,0.4,1.1C133.1,51.4,133,51.8,132.7,52z M137.5,50.8c-0.1-0.1-0.4-0.2-0.7-0.4c-0.3-0.1-0.5-0.2-0.6-0.3
			c-0.1-0.1-0.1-0.2-0.1-0.3c0-0.2,0.1-0.3,0.2-0.4c0.1-0.1,0.2-0.2,0.4-0.2c0.2,0,0.3,0.1,0.5,0.2c0.2,0.1,0.3,0.3,0.4,0.6h0.1
			c0,0,0.1,0,0.1,0l0-0.1c0-0.3,0-0.5-0.1-0.6c-0.1-0.1-0.3-0.1-0.4-0.1c-0.2,0-0.3,0-0.5,0c-0.2,0-0.3,0-0.5,0.1
			c-0.2,0.1-0.3,0.2-0.4,0.3c-0.1,0.1-0.2,0.3-0.2,0.5c0,0.2,0.1,0.4,0.2,0.5c0.1,0.2,0.4,0.3,0.7,0.4c0.4,0.1,0.6,0.3,0.8,0.4
			c0.1,0.2,0.2,0.3,0.2,0.5c0,0.1-0.1,0.3-0.2,0.4c-0.2,0.1-0.3,0.2-0.5,0.2c-0.2,0-0.3,0-0.5-0.1c-0.2-0.1-0.3-0.2-0.4-0.4
			c-0.1-0.1-0.1-0.3-0.2-0.5c-0.1,0-0.1,0-0.1,0c0,0,0,0,0,0.1c0,0.1,0,0.3,0.1,0.7c0,0.1,0,0.1,0,0.1c0,0.1,0,0.1,0,0.1
			c0.3,0.1,0.6,0.2,1,0.2c0.2,0,0.3,0,0.5-0.1c0.2-0.1,0.4-0.2,0.5-0.4s0.2-0.4,0.2-0.5c0-0.1,0-0.3-0.1-0.4
			C137.8,51,137.7,50.9,137.5,50.8z M140.2,47c-0.1,0.1-0.1,0.1-0.1,0.2c0,0.1,0,0.2,0.1,0.3s0.2,0.1,0.3,0.1c0.1,0,0.2,0,0.3-0.1
			s0.1-0.2,0.1-0.2c0-0.1,0-0.2-0.1-0.2c-0.1-0.1-0.2-0.1-0.3-0.1C140.3,46.9,140.2,47,140.2,47z M141.1,52.3
			c-0.2-0.1-0.3-0.1-0.3-0.1c0,0-0.1-0.1-0.1-0.2l0-1.3l0-1.2v-0.2c0-0.1,0-0.2,0-0.2c0-0.1,0-0.2,0-0.3l-0.1,0c0,0,0,0-0.1,0
			c-0.1,0.1-0.2,0.2-0.3,0.3c-0.1,0.1-0.2,0.2-0.3,0.2c0,0-0.1,0-0.3,0.1l0,0.1c0.2,0,0.3,0.1,0.4,0.1c0.1,0,0.1,0.1,0.1,0.1
			c0,0,0,0.2,0,0.4c0,1,0,1.6,0,1.8c0,0.1,0,0.2-0.1,0.3c0,0-0.1,0.1-0.2,0.1c-0.3,0.1-0.4,0.1-0.4,0.1c-0.1,0-0.1,0.1-0.1,0.1
			c0,0,0,0,0,0.1c0,0,0.1,0,0.1,0c0.1,0,0.2,0,0.2,0c0.4,0,0.6,0,0.7,0c0.1,0,0.2,0,0.5,0c0.2,0,0.3,0,0.4,0c0,0,0,0,0-0.1
			c0,0,0,0,0-0.1C141.3,52.4,141.2,52.4,141.1,52.3z M145.1,52.1L145.1,52.1c-0.1,0.1-0.2,0.1-0.3,0.1c-0.2,0-0.3,0.1-0.4,0.1
			c-0.1,0-0.3,0-0.3-0.1c-0.1-0.1-0.1-0.3-0.1-0.6l0-1.1l0-0.6c0-0.1,0-0.2,0-0.2l0.1,0l0.3,0l0.7,0h0.1c0-0.1,0-0.1,0-0.2
			c0,0,0-0.1,0-0.1c-0.1,0-0.2,0-0.3,0c-0.1,0-0.2,0-0.4,0c-0.2,0-0.3,0-0.4,0c0,0,0,0-0.1,0l0-0.5l0-0.4l-0.1,0
			c0,0-0.1,0.1-0.1,0.2c-0.1,0.2-0.1,0.3-0.1,0.3c-0.1,0.1-0.2,0.2-0.2,0.3c-0.1,0.1-0.2,0.1-0.3,0.2c-0.1,0-0.2,0.1-0.2,0.1
			c0,0,0,0,0,0.1c0,0,0,0,0,0.1c0,0,0,0,0.1,0l0,0l0.3,0l0.1,0c0,0.1,0,0.2,0,0.2V50l0,0.5l0,1c0,0.4,0,0.6,0.1,0.8
			c0,0.1,0.1,0.2,0.2,0.3c0.1,0.1,0.3,0.1,0.5,0.1c0.3,0,0.5,0,0.6-0.1c0.2-0.1,0.3-0.2,0.4-0.3L145.1,52.1
			C145.2,52.2,145.1,52.1,145.1,52.1C145.1,52.1,145.1,52.1,145.1,52.1z M149.3,51.9c-0.2,0.1-0.3,0.2-0.4,0.2
			c-0.1,0-0.2,0.1-0.4,0.1c-0.3,0-0.6-0.1-0.8-0.2c-0.2-0.1-0.4-0.3-0.5-0.6c-0.1-0.3-0.2-0.5-0.2-0.6l0-0.2v0l0,0c0,0,0-0.1,0-0.2
			c0.1,0,0.3,0,0.4,0l0.3,0l1.7,0v-0.1c0-0.2-0.1-0.4-0.2-0.6c-0.1-0.2-0.3-0.4-0.5-0.5c-0.2-0.1-0.4-0.1-0.6-0.1
			c-0.2,0-0.5,0-0.6,0.1c-0.1,0.1-0.3,0.1-0.4,0.3c-0.1,0.1-0.2,0.2-0.3,0.4c-0.1,0.2-0.2,0.4-0.3,0.6c0,0.2-0.1,0.4-0.1,0.5
			c0,0.4,0.1,0.7,0.2,1c0.2,0.3,0.4,0.5,0.7,0.6c0.2,0.1,0.4,0.1,0.6,0.1c0.2,0,0.4,0,0.5,0c0.2-0.1,0.4-0.1,0.6-0.3
			c0.2-0.1,0.4-0.3,0.5-0.4c0,0,0,0,0-0.1l0-0.2L149.3,51.9z M147.5,49.6c0.2-0.2,0.5-0.4,0.8-0.4c0.2,0,0.3,0,0.4,0.1
			c0.1,0.1,0.2,0.1,0.3,0.3c0.1,0.1,0.1,0.2,0.1,0.3c0,0,0,0.1-0.1,0.1c0,0-0.1,0-0.2,0c-0.7,0-1.1,0.1-1.3,0.1h-0.2
			C147.2,49.9,147.3,49.8,147.5,49.6z"/>
	</g>
</g>
</svg>
