<?xml version="1.0" encoding="utf-8"?>
<!-- Generator: Adobe Illustrator 15.1.0, SVG Export Plug-In . SVG Version: 6.00 Build 0)  -->
<!DOCTYPE svg PUBLIC "-//W3C//DTD SVG 1.1//EN" "http://www.w3.org/Graphics/SVG/1.1/DTD/svg11.dtd">
<svg version="1.1" id="レイヤー_1" xmlns="http://www.w3.org/2000/svg" xmlns:xlink="http://www.w3.org/1999/xlink" x="0px"
	 y="0px" width="15px" height="224px" viewBox="0 0 15 224" enable-background="new 0 0 15 224" xml:space="preserve">
<path fill-rule="evenodd" clip-rule="evenodd" fill="#FF6B66" d="M7.5,0l5.314,5.314L7.5,10.629L2.186,5.314L7.5,0z"/>
<g>
	<g>
		<polygon fill-rule="evenodd" clip-rule="evenodd" fill="#FF6B66" points="8,9 7,9 7,96.705 0,103.704 0.675,104.379 7.998,97.058 
			7.944,97.004 8,97.004 		"/>
	</g>
</g>
<path fill-rule="evenodd" clip-rule="evenodd" fill="#FF6B66" d="M7.5,101L0,108.5l7.5,7.5l7.5-7.5L7.5,101z M7.5,114.666
	L1.333,108.5l6.167-6.167l6.166,6.167L7.5,114.666z"/>
<path fill-rule="evenodd" clip-rule="evenodd" fill="#FF6B66" d="M7.5,107.751l-7.5,7.5l7.5,7.5l7.5-7.5L7.5,107.751z M7.5,121.417
	l-6.167-6.166l6.167-6.167l6.166,6.167L7.5,121.417z"/>
<path fill-rule="evenodd" clip-rule="evenodd" fill="#FF6B66" d="M7.314,224L2,218.686l5.314-5.314l5.314,5.314L7.314,224z"/>
<g>
	<g>
		<polygon fill-rule="evenodd" clip-rule="evenodd" fill="#FF6B66" points="14.814,120.297 14.14,119.621 6.816,126.943 
			6.87,126.996 6.814,126.996 6.814,215 7.814,215 7.814,127.295 		"/>
	</g>
</g>
</svg>
