<?xml version="1.0" encoding="utf-8"?>
<!-- Generator: Adobe Illustrator 17.1.0, SVG Export Plug-In . SVG Version: 6.00 Build 0)  -->
<!DOCTYPE svg PUBLIC "-//W3C//DTD SVG 1.1//EN" "http://www.w3.org/Graphics/SVG/1.1/DTD/svg11.dtd">
<svg version="1.1" id="レイヤー_1" xmlns="http://www.w3.org/2000/svg" xmlns:xlink="http://www.w3.org/1999/xlink" x="0px"
	 y="0px" width="151px" height="53px" viewBox="0 0 151 53" enable-background="new 0 0 151 53" xml:space="preserve">
<g>
	<path fill="#1A1A1A" d="M40.4,5.1L41,5.2c0,2-0.7,4.1-2.1,6.4c-1.4,2.2-3.1,4.2-5.3,6.1c-2.1,1.8-4.4,3.3-6.7,4.5
		c-2.3,1.1-4.4,1.7-6.2,1.7c-1.5,0-2.6-0.4-3.5-1.2c-0.8-0.8-1.2-2-1.2-3.4c0-2.1,0.8-4.2,2.3-6.3c1.6-2.1,3.7-4,6.4-5.8
		C27.3,5.3,30.4,4,34,2.9c3.5-1,7.2-1.6,10.9-1.6c1.7,0,3.2,0.1,4.4,0.3s2.4,0.5,3.4,1c1,0.4,2.2,1.1,3.4,2.1c1.2-0.7,2.5-1.4,3.8-2
		s2.5-1.1,3.5-1.3l0.4,0.5c-1.1,0.3-2.3,0.8-3.7,1.5s-2.6,1.3-3.4,1.8C57.5,6,58,6.8,58.2,7.6s0.3,1.7,0.3,2.8c0,1.5-0.3,2.8-1,4
		s-1.7,2.3-3.1,3.4c-1.4,1-3.2,2.1-5.5,3c0.5,0.9,0.9,1.7,1.1,2.4c0.2,0.7,0.3,1.6,0.3,2.5c0,1.8-0.5,3.5-1.5,5.3
		c-1,1.8-2.3,3.4-4,4.8c-1.7,1.4-3.5,2.6-5.6,3.4s-4.1,1.3-6.2,1.3c-2.2,0-3.4-0.9-3.4-2.7c0-1.3,0.6-2.7,1.7-4.3
		c1.1-1.5,2.6-2.9,4.5-4.1c1.9-1.2,3.9-2.1,5.9-2.6l0.1,0.5c-3.4,1.1-6,2.5-7.8,4.1c-1.2,1.1-2.2,2.2-2.9,3.4C30.4,36,30,37,30,38
		c0,1.4,1,2.1,2.9,2.1c2.1,0,4-0.6,6-1.9c1.9-1.2,3.6-2.8,5.1-4.7s2.6-3.8,3.5-5.7c0.8-1.9,1.2-3.4,1.2-4.6c0-0.8-0.1-1.4-0.4-2.1
		C47.2,21.7,46,22,44.7,22c-1,0-1.7-0.2-2.1-0.5c-0.4-0.3-0.6-0.8-0.6-1.4c0-0.5,0.2-1,0.6-1.4c0.4-0.4,1-0.6,1.7-0.6
		c1.4,0,2.8,0.7,4.1,2.2c1.5-0.8,3-1.9,4.3-3.2s2.4-2.8,3.2-4.3s1.1-3,1.1-4.3c0-1.4-0.3-2.4-1-3c-2.5,1.3-5.1,3.2-7.8,5.7
		c-2.7,2.4-5.7,5.9-8.8,10.2c-1.6,2.3-3,4.2-4.2,5.4c-1.2,1.3-2.7,2.7-4.5,4.3c-1.9,1.7-3.8,3.2-5.7,4.4c-1.9,1.3-3.6,2.2-5.3,2.9
		c-1.7,0.7-3.3,1.2-4.9,1.5s-3.4,0.5-5.2,0.5c-5.4,0-8.1-1.3-8.1-3.9c0-0.6,0.2-1.2,0.5-1.5c0.3-0.4,0.8-0.6,1.4-0.6
		c0.4,0,0.7,0.1,0.9,0.4c0.2,0.3,0.4,0.5,0.4,0.9c0,0.3-0.1,0.5-0.4,0.8s-0.5,0.3-0.8,0.3c-0.5,0-0.8-0.2-1.1-0.6
		c0-0.1-0.1-0.1-0.2-0.1c-0.1,0-0.1,0.2-0.1,0.6c0,1,0.6,1.8,1.9,2.4C5.3,39.7,7.1,40,9.4,40c2.4,0,4.6-0.3,6.6-0.9
		c1.9-0.6,3.8-1.5,5.5-2.7s3.7-3,6-5.3c0.5-0.5,1.3-1.4,2.4-2.6s2.5-2.7,4.1-4.6c1.6-1.8,3.1-3.5,4.4-4.9c1.3-1.4,2.2-2.3,2.7-2.8
		l2.2-2c3.4-3.1,5.7-5,6.9-5.9s2.9-2,5.2-3.3c-2.5-2.1-6-3.1-10.4-3.1c-4,0-7.7,0.5-11.2,1.6S27.3,6,24.7,7.7s-4.6,3.6-6,5.7
		c-1.4,2-2.2,4-2.2,5.8c0,1.3,0.4,2.3,1.1,3.1c0.7,0.8,1.7,1.1,3,1.1c1.7,0,3.7-0.6,6-1.7s4.5-2.6,6.6-4.4s3.8-3.7,5.1-5.9
		C39.7,9.2,40.4,7.2,40.4,5.1z M47.9,20.6c-1-1.3-2.2-1.9-3.7-1.9c-0.5,0-0.9,0.2-1.2,0.5s-0.5,0.7-0.5,1.1c0,0.9,0.7,1.3,2.2,1.3
		c0.5,0,1-0.1,1.5-0.3C46.7,21,47.3,20.8,47.9,20.6z"/>
	<path fill="#1A1A1A" d="M66.1,32.3v0.6c-1.3,1.5-2.8,2.3-4.5,2.3c-0.2,0-0.3,0-0.5-0.1c-0.2,0-0.4,0-0.6-0.1
		c-3.8,3.8-7.1,5.7-9.9,5.7c-0.5,0-1-0.1-1.5-0.4c-0.4-0.3-0.8-0.6-1-1s-0.3-0.9-0.3-1.5c0-1.5,0.7-3,2.1-4.5
		c1.4-1.5,3.1-2.6,5.1-3.6c2-0.9,3.8-1.4,5.3-1.4c1.6,0,2.4,0.7,2.4,2.2c0,1.2-0.6,2.5-1.8,4.1c0.2,0.1,0.5,0.1,0.8,0.1
		C63.3,34.7,64.7,33.9,66.1,32.3z M60.4,28.8c-1.3,0-2.9,0.7-4.6,2.2s-3.3,3-4.7,4.8C49.7,37.5,49,38.6,49,39s0.2,0.7,0.5,0.9
		s0.8,0.4,1.3,0.4c1.3,0,2.8-0.6,4.6-1.8s3.4-2.6,4.7-4.2s2-2.9,2-3.8c0-0.5-0.2-0.8-0.5-1.1C61.4,29,60.9,28.8,60.4,28.8z"/>
	<path fill="#1A1A1A" d="M65.3,33.2c1.1-0.8,2.1-1.7,3.2-2.5s2.1-1.6,3.2-2.4c-0.2-0.7-0.1-1.3,0.3-1.9s0.8-0.8,1.4-0.8
		c0.3,0,0.6,0.1,0.8,0.3s0.4,0.4,0.4,0.6c0,0.3-0.1,0.5-0.3,0.7c-0.2,0.2-0.4,0.3-0.7,0.3s-0.7-0.2-1.2-0.7
		c-0.1,0.2-0.2,0.4-0.2,0.8c0,0.3,0.1,0.5,0.3,0.8c0.3,0.2,0.5,0.4,0.8,0.4c0.2,0,0.5,0,1-0.1s0.8-0.1,0.9-0.1
		c0.2,0,0.4,0.2,0.5,0.5s0.2,0.8,0.2,1.2c0,0.4-0.3,1-0.9,1.6c-0.6,0.7-1.6,1.8-3,3.3s-2.4,2.6-3,3.2c-0.6,0.6-0.8,1.1-0.8,1.5
		s0.2,0.5,0.7,0.5c0.7,0,2.1-0.7,4.3-2.2c2.2-1.5,4.7-3.4,7.6-5.7v0.6c-6.4,5.2-10.5,7.8-12.2,7.8c-0.6,0-1-0.4-1-1.1
		c0-1.1,0.2-2.1,0.7-3c0.4-1,1.2-2,2.3-3.2l4.2-4.4c-0.5,0.2-1.1,0.3-1.7,0.2c-0.6,0-1-0.2-1.2-0.5c-3.2,2.5-5.4,4.2-6.5,5v-0.7
		H65.3z"/>
	<path fill="#1A1A1A" d="M91.7,31.6l19.3-21h2.9L91.4,35.1c-0.5,0.5-1.1,1.2-1.7,1.8c-0.6,0.7-1,1.2-1.3,1.6
		c-0.3,0.4-0.5,0.8-0.6,1.1c-0.1,0.4,0.1,0.5,0.5,0.5c0.6,0,2.1-0.9,4.4-2.6c2.3-1.8,4.5-3.5,6.6-5.3v0.6c-2.8,2.3-5.2,4.2-7.1,5.7
		c-1.9,1.4-3.3,2.2-4.2,2.2c-0.6,0-0.9-0.4-0.9-1.1c0-0.9,0.3-2.1,1-3.6c0,0,0-0.1-0.1-0.1c0,0.1,0,0.1,0,0.1
		c-3.3,3.2-5.9,4.8-7.9,4.8c-1.4,0-2-1.1-2-3.2c0-1.7,0.7-3.2,2-4.6s3-2.5,5-3.3s3.7-1.2,5.2-1.2c1.2,0,1.8,0.5,1.8,1.5
		C92.1,30.5,91.9,31.1,91.7,31.6z M90.1,28.8c-1,0-2.4,0.7-4.2,2c-1.8,1.3-3.4,2.8-4.8,4.4c-1.4,1.7-2.1,2.9-2.1,3.9
		c0,0.8,0.4,1.1,1.1,1.1c1.1,0,2.5-0.7,4.4-2s3.5-2.8,5-4.4c1.4-1.6,2.2-2.9,2.2-3.8C91.6,29.3,91.1,28.8,90.1,28.8z"/>
	<path fill="#1A1A1A" d="M113.9,32.3v0.6c-2.7,2.6-5.1,4.5-7.4,5.8c-2.2,1.3-4.5,2-6.7,2c-2,0-3-1.1-3-3.3c0-1.8,0.7-3.4,2.2-4.8
		s3.1-2.4,5.1-3.2c1.9-0.7,3.5-1.1,4.8-1.1c0.7,0,1.2,0.2,1.6,0.5s0.6,0.7,0.6,1.2c0,0.8-0.4,1.5-1.3,2.1c-0.9,0.6-2.1,1.2-3.7,1.6
		c-1.6,0.4-3.4,0.7-5.6,0.7c-1.8,2-2.7,3.5-2.7,4.5c0,0.4,0.2,0.7,0.6,0.9s0.9,0.4,1.5,0.4C103.7,40.3,108.4,37.6,113.9,32.3z
		 M101.2,33.9c2,0,3.7-0.2,5-0.7c1.4-0.5,2.4-1,3.1-1.7s1.1-1.2,1.1-1.6c0-0.7-0.4-1-1.2-1c-1.1,0-2.3,0.5-3.8,1.4
		S102.5,32.3,101.2,33.9z"/>
	<path fill="#1A1A1A" d="M113,33.2c1.1-0.8,2.1-1.7,3.2-2.5s2.1-1.6,3.2-2.4c-0.2-0.7-0.1-1.3,0.3-1.9s0.8-0.8,1.4-0.8
		c0.3,0,0.6,0.1,0.8,0.3s0.4,0.4,0.4,0.6c0,0.3-0.1,0.5-0.3,0.7c-0.2,0.2-0.4,0.3-0.7,0.3s-0.7-0.2-1.2-0.7
		c-0.1,0.2-0.2,0.4-0.2,0.8c0,0.3,0.1,0.5,0.3,0.8c0.3,0.2,0.5,0.4,0.8,0.4c0.2,0,0.5,0,1-0.1s0.8-0.1,0.9-0.1
		c0.2,0,0.4,0.2,0.5,0.5s0.2,0.8,0.2,1.2c0,0.4-0.3,1-0.9,1.6c-0.6,0.7-1.6,1.8-3,3.3s-2.4,2.6-3,3.2c-0.6,0.6-0.8,1.1-0.8,1.5
		s0.2,0.5,0.7,0.5c0.7,0,2.1-0.7,4.3-2.2c2.2-1.5,4.7-3.4,7.6-5.7v0.6c-6.4,5.2-10.5,7.8-12.2,7.8c-0.6,0-1-0.4-1-1.1
		c0-1.1,0.2-2.1,0.7-3c0.4-1,1.2-2,2.3-3.2l4.2-4.4c-0.5,0.2-1.1,0.3-1.7,0.2c-0.6,0-1-0.2-1.2-0.5c-3.2,2.5-5.4,4.2-6.5,5v-0.7H113
		z"/>
</g>
<g>
	<path fill="#1A1A1A" d="M149.2,15.5c-4.7,5-15.2,16.4-22,23.7c-0.3,0.3-0.7,0.4-0.8,0.3c-0.2-0.2,0.2-0.6,0.4-0.9
		c6.7-7.6,16.4-18.9,20.2-23.5c1-1.1,1.6-1.7,2.8-1.7C150.7,13.6,150.8,13.7,149.2,15.5z"/>
</g>
<g>
	<path fill="#1A1A1A" d="M1.7,50.9c0.4,0,0.6-0.1,0.7-0.1l0.1-0.1l0,0c0-0.1,0-0.3,0-0.8c0-0.1,0-0.2,0-0.4V49v-0.6v-1.1v-0.8
		c0-0.3,0-0.5-0.1-0.6S2.2,45.8,2,45.7c-0.2,0-0.3-0.1-0.4-0.1c0,0,0,0,0-0.1c0,0,0,0,0-0.1c0,0,0.1,0,0.2,0h0.1c0.1,0,0.1,0,0.2,0
		h0.3h1.1c0.6,0,1.1,0,1.3,0.1c0.3,0.1,0.5,0.3,0.6,0.5c0.2,0.2,0.2,0.5,0.2,0.7c0,0.5-0.3,0.9-0.8,1.2c-0.1,0-0.2,0.1-0.2,0.1
		c0.1,0.2,0.2,0.4,0.4,0.7l0.5,0.9c0.2,0.3,0.4,0.6,0.4,0.6c0.1,0.1,0.2,0.2,0.3,0.2c0.1,0.1,0.3,0.1,0.6,0.2v0.1c0,0,0,0,0,0.1
		c-0.4,0-0.8,0-1.4,0c0,0-0.1,0-0.2,0C5,50.4,4.8,50,4.5,49.5l-0.6-1.1c-0.1-0.1-0.2-0.2-0.2-0.2c-0.1,0-0.1,0-0.2,0H3.1H3
		c0,0.1,0,0.3,0,0.6v1.5c0,0.1,0,0.1,0,0.2c0,0.1,0.1,0.1,0.1,0.1c0.1,0,0.2,0.1,0.5,0.1h0.2v0.1C4.1,51,4,51,4,51
		c-0.3,0-0.4,0-0.5,0s-0.1,0-0.1,0H2.8H2.2c0,0-0.2,0-0.4,0L1.7,50.9L1.7,50.9L1.7,50.9z M3.3,48.1c0.1,0,0.1,0,0.2,0
		c0.2,0,0.4,0,0.7-0.1c0.2,0,0.3-0.1,0.5-0.2c0.1-0.1,0.2-0.2,0.3-0.4c0-0.1,0.1-0.3,0.1-0.4c0-0.2-0.1-0.4-0.2-0.6
		c-0.1-0.2-0.3-0.3-0.5-0.4s-0.5-0.2-0.8-0.2c-0.1,0-0.2,0-0.3,0c0,0.1,0,0.3,0,0.3v0.8v0.3C3.3,47.5,3.3,47.7,3.3,48.1z"/>
	<path fill="#1A1A1A" d="M7.8,45.5H8c0.1,0,0.2,0,0.5,0c0.4,0,0.7,0,1,0H10c0.1,0,0.1,0,0.2,0c0,0,0,0,0,0.1l0,0l-0.1,0.1l0,0H9.9
		H9.8c-0.1,0-0.2,0-0.2,0.1l-0.1,0.1c0,0,0,0.1,0.1,0.1c0,0,0,0.1,0.1,0.1c0.1,0.1,0.1,0.2,0.2,0.3c0.1,0.2,0.3,0.4,0.4,0.7
		c0.1,0.1,0.1,0.2,0.2,0.3l0.6,1c0-0.1,0.1-0.1,0.2-0.2l0.6-0.9l0.7-1.1c0.1-0.1,0.1-0.2,0.1-0.2s0,0,0-0.1s0-0.1-0.1-0.1
		c-0.1-0.1-0.3-0.1-0.6-0.1c0,0,0,0-0.1,0v-0.1c0,0,0,0,0-0.1h0.2h0.8h0.6c0,0,0.1,0,0.2,0v0.1h-0.1h-0.1c0,0,0,0-0.1,0
		s-0.1,0-0.1,0.1c-0.4,0.4-0.8,0.9-1.1,1.2c-0.3,0.4-0.5,0.7-0.7,1.1c-0.1,0.1-0.1,0.2-0.2,0.2c-0.1,0.1-0.1,0.2-0.1,0.2
		c0,0.1,0,0.3,0,0.5c0,0.9,0,1.4,0,1.6c0,0.1,0,0.1,0.1,0.1s0.4,0.1,0.9,0.1l0,0v0.1L11,51h-0.7H9.7c-0.1,0-0.1,0-0.2,0v-0.1
		c0,0,0,0,0-0.1c0,0,0,0,0.1,0l0.6-0.1c0.2-0.1,0.3-0.1,0.3-0.1s0.1-0.1,0.1-0.2c0-0.1,0-0.4,0-1.2c0-0.3,0-0.4,0-0.5
		s-0.1-0.2-0.2-0.3l-0.6-0.8l-0.9-1.4c-0.2-0.2-0.3-0.4-0.4-0.5c-0.1,0-0.2-0.1-0.4-0.1H8L7.8,45.5z"/>
	<path fill="#1A1A1A" d="M15,48.3c0-0.3,0-0.5,0.1-0.8c0.1-0.2,0.2-0.5,0.4-0.7c0.2-0.3,0.4-0.5,0.6-0.7s0.6-0.3,1-0.5
		c0.3-0.1,0.7-0.1,1.1-0.1c0.3,0,0.6,0,0.9,0.1s0.5,0.2,0.8,0.3s0.5,0.4,0.7,0.7c0.2,0.2,0.3,0.4,0.4,0.7s0.2,0.6,0.2,1
		s0,0.7-0.1,0.9s-0.2,0.5-0.4,0.7c-0.1,0.2-0.4,0.4-0.7,0.6c-0.2,0.2-0.5,0.3-0.8,0.4c-0.3,0.1-0.7,0.2-1,0.2c-0.4,0-0.7,0-1-0.1
		s-0.5-0.2-0.7-0.3s-0.4-0.3-0.6-0.6c-0.2-0.2-0.4-0.5-0.5-0.8C15,49,15,48.6,15,48.3z M17.9,50.9c0.2,0,0.5,0,0.7-0.1
		c0.3-0.1,0.5-0.2,0.7-0.3c0.2-0.2,0.4-0.3,0.5-0.5s0.2-0.4,0.3-0.8c0.1-0.3,0.1-0.6,0.1-0.9c0-0.4-0.1-0.8-0.2-1.1
		s-0.2-0.5-0.4-0.8s-0.4-0.4-0.7-0.5c-0.3-0.1-0.6-0.2-0.9-0.2s-0.5,0-0.8,0.1c-0.2,0.1-0.4,0.2-0.6,0.3s-0.3,0.3-0.4,0.6
		s-0.2,0.5-0.3,0.8c-0.1,0.3-0.1,0.5-0.1,0.8c0,0.2,0,0.5,0.1,0.8c0.1,0.3,0.2,0.6,0.3,0.8s0.3,0.4,0.5,0.6c0.2,0.2,0.4,0.3,0.6,0.4
		S17.7,50.9,17.9,50.9z"/>
	<path fill="#1A1A1A" d="M26.3,45.8v-0.2c0.4,0,0.8,0,1,0c0.1,0,0.1,0,0.2,0h0.1c0.1,0.1,0.2,0.2,0.3,0.3c0,0,0,0.1,0.1,0.1l0.9,1
		l0.1,0.2c0.2,0.2,0.3,0.4,0.5,0.5c0.1,0.1,0.4,0.5,0.9,0.9l1,1.1c0.1,0.1,0.2,0.2,0.4,0.4V50c0-0.4,0-0.6,0-0.6v-0.3v-0.4v-0.2
		c0-0.1,0-0.5,0-1.1c0-0.1,0-0.2,0-0.5c0-0.2,0-0.4,0-0.6c0-0.3,0-0.5-0.1-0.5c0,0-0.1-0.1-0.4-0.1c-0.1,0-0.1,0-0.2,0s-0.2,0-0.2,0
		s0,0-0.1-0.1v-0.1c0.1,0,0.2,0,0.2,0c0.1,0,0.2,0,0.3,0c0.1,0,0.2,0,0.3,0c0.1,0,0.3,0,0.6,0c0.2,0,0.3,0,0.3,0h0.1v0.1
		c0,0-0.1,0-0.2,0s-0.2,0-0.2,0c-0.1,0-0.2,0.1-0.2,0.1c-0.1,0.1-0.1,0.1-0.1,0.2v1.3v0.6V48v0.9c0,0.6,0,1.1,0,1.5
		c0,0.1,0,0.3,0,0.6h-0.2c-0.1-0.1-0.4-0.5-1-1.1c-0.1-0.1-0.2-0.2-0.3-0.3L30,49.2c-0.1-0.2-0.2-0.3-0.3-0.3l-0.1-0.1
		c-0.3-0.4-0.7-0.8-1.2-1.3c-0.1-0.1-0.3-0.4-0.6-0.7c-0.2-0.2-0.3-0.3-0.3-0.3s-0.1-0.1-0.2-0.1v0.1c0,0.6,0,1.3,0,2.3v1.4
		c0,0.1,0,0.2,0,0.3h0.1c0.3,0,0.5,0.1,0.8,0.1c0,0,0,0,0.1,0v0.2h-0.1h-0.1c-0.3,0-0.6,0-1,0c-0.3,0-0.5,0-0.7,0h-0.1h-0.1v-0.1
		l0.1-0.1h0.2c0.2,0,0.3-0.1,0.4-0.1s0.1,0,0.1-0.1c0-0.2,0-0.5,0-0.9c0-0.2,0-0.5,0-1v-0.6v-1.2c0-0.5,0-0.9-0.1-1
		c0-0.1-0.1-0.1-0.1-0.1c-0.1-0.1-0.2-0.1-0.4-0.1C26.4,45.8,26.3,45.8,26.3,45.8z"/>
	<path fill="#1A1A1A" d="M33.8,50.9L33.8,50.9H34h0.1c0.2,0,0.3,0,0.4-0.1c0.1-0.1,0.2-0.1,0.3-0.3c0.1-0.3,0.3-0.7,0.5-1.2
		c0.1-0.3,0.1-0.4,0.2-0.5c0.1-0.2,0.1-0.3,0.2-0.5l0.4-1.1c0.1-0.2,0.2-0.6,0.5-1.2c0.1-0.2,0.1-0.4,0.2-0.6h0.1H37
		c0.1,0.2,0.2,0.5,0.3,0.8c0.1,0.1,0.1,0.4,0.2,0.7l0.6,1.7l0.3,0.9c0.2,0.5,0.3,0.9,0.4,1s0.1,0.2,0.2,0.2c0,0,0.1,0,0.2,0.1
		c0.1,0,0.2,0,0.2,0.1c0.1,0,0.2,0.1,0.3,0.1v0.1c0,0,0,0,0,0.1c-0.1,0-0.2,0-0.2,0c-0.1,0-0.4,0-0.8,0h-0.4h-0.5h-0.1h-0.1h-0.1
		h-0.1v-0.1h0.1h0.4c0.1,0,0.2,0,0.3,0c0-0.1,0-0.1,0-0.1c0-0.1,0-0.2-0.1-0.4C38,50.1,38,49.9,38,49.8c0-0.1-0.2-0.5-0.5-1.3
		c-0.1,0-0.2,0-0.3,0h-0.9H36c-0.1,0-0.2,0-0.3,0c0,0.1-0.1,0.1-0.1,0.2l-0.4,1.2C35,50.3,35,50.6,35,50.6v0.1c0.1,0,0.1,0,0.2,0
		l0.6,0.1c0,0,0,0,0,0.1c0,0,0,0,0,0.1c-0.1,0-0.2,0-0.3,0c-0.2,0-0.5,0-0.8,0c-0.1,0-0.2,0-0.3,0s-0.2,0-0.3,0s-0.2,0-0.2,0
		c-0.1,0-0.2,0-0.3,0L33.8,50.9C33.7,50.9,33.8,50.9,33.8,50.9z M35.8,48.3c0.3,0,0.6,0,1,0c0.2,0,0.4,0,0.6,0
		c0-0.1-0.1-0.2-0.1-0.3c-0.2-0.5-0.3-0.8-0.3-0.8l-0.4-1v-0.1c0,0-0.1,0.2-0.2,0.4c-0.2,0.4-0.3,0.8-0.4,1c0,0.1-0.1,0.2-0.1,0.3
		S35.8,48,35.8,48C35.8,48.2,35.8,48.3,35.8,48.3L35.8,48.3z"/>
	<path fill="#1A1A1A" d="M41.1,50.9L41.1,50.9c0.3-0.1,0.6-0.1,0.7-0.2c0.1-0.1,0.1-0.1,0.1-0.3V50v-0.8v-0.3v-1.2v-0.8
		c0-0.4,0-0.7,0-0.9c0-0.1,0-0.1-0.1-0.2c-0.1,0-0.1,0-0.1-0.1c-0.1,0-0.3,0-0.5,0l-0.1-0.1c0,0,0,0,0-0.1c0.2,0,0.4,0,0.8,0
		c0.2,0,0.3,0,0.4,0c0.2,0,0.3,0,0.5,0c0.1,0,0.2,0,0.3,0c0,0,0,0,0,0.1c0,0,0,0,0,0.1c0,0-0.1,0-0.2,0c-0.2,0-0.4,0.1-0.5,0.2
		c-0.1,0.1-0.1,0.2-0.1,0.3v0.1v1.6V49v1.1c0,0.3,0,0.5,0,0.6c0,0,0,0.1,0.1,0.1c0.1,0.1,0.2,0.1,0.5,0.1c0.1,0,0.1,0,0.1,0V51
		c0,0,0,0.1-0.1,0.1h-0.1c-0.1,0-0.2,0-0.4,0s-0.4,0-0.5,0s-0.2,0-0.4,0s-0.4,0-0.6,0c0,0-0.1,0-0.2,0L41.1,50.9z M42.7,48.3
		c0,0,0.1-0.1,0.2-0.1c0.2-0.1,0.4-0.3,0.8-0.6l1.2-1c0.3-0.3,0.5-0.5,0.7-0.6c0,0,0-0.1,0.1-0.1c-0.1,0-0.1-0.1-0.2-0.1
		c-0.1,0-0.2,0-0.3,0s-0.2,0-0.3,0c0,0,0,0,0-0.1v-0.1c0,0,0.1,0,0.2,0c0.1,0,0.2,0,0.3,0s0.3,0,0.5,0c0.1,0,0.1,0,0.1,0h0.7
		c0.1,0,0.1,0,0.2,0c0,0,0.1,0,0.2,0c0,0.1,0,0.1,0,0.2c-0.3,0-0.5,0.1-0.7,0.1c-0.1,0-0.2,0.1-0.5,0.3c-0.2,0.1-0.4,0.2-0.5,0.4
		l-1.1,0.9L43.5,48c0,0,0,0,0.1,0.1l0.1,0.1c0.3,0.3,0.7,0.6,1.2,1s0.9,0.7,1.2,1c0.4,0.4,0.8,0.6,1.2,0.7c0.1,0,0.2,0,0.2,0.1l0,0
		v0.1c-0.1,0-0.2,0-0.2,0c-0.1,0-0.3,0-0.6,0c-0.2,0-0.3,0-0.4,0c-0.4,0-0.9,0-1.4,0.1v-0.1l0,0c0,0,0.1-0.1,0.2-0.1
		c0.2,0,0.3-0.1,0.5-0.1h0.1c0,0-0.1-0.1-0.1-0.2c0,0,0,0-0.1-0.1s-0.2-0.2-0.3-0.3l-0.5-0.4l-0.8-0.7
		C43.5,48.9,43.2,48.6,42.7,48.3z"/>
	<path fill="#1A1A1A" d="M48.4,50.9L48.4,50.9h0.2h0.1c0.2,0,0.3,0,0.4-0.1c0.1-0.1,0.2-0.1,0.3-0.3c0.1-0.3,0.3-0.7,0.5-1.2
		c0.1-0.3,0.1-0.4,0.2-0.5c0.1-0.2,0.1-0.3,0.2-0.5l0.4-1.1c0.1-0.2,0.2-0.6,0.5-1.2c0.1-0.2,0.1-0.4,0.2-0.6h0.1h0.1
		c0.1,0.2,0.2,0.5,0.3,0.8c0.1,0.1,0.1,0.4,0.2,0.7l0.6,1.7l0.3,0.9c0.2,0.5,0.3,0.9,0.4,1s0.1,0.2,0.2,0.2c0,0,0.1,0,0.2,0.1
		c0.1,0,0.2,0,0.2,0.1c0.1,0,0.2,0.1,0.3,0.1v0.1c0,0,0,0,0,0.1c-0.1,0-0.2,0-0.2,0c-0.1,0-0.4,0-0.8,0h-0.4h-0.5h-0.1h-0.1H52h-0.1
		v-0.1H52h0.4c0.1,0,0.2,0,0.3,0c0-0.1,0-0.1,0-0.1c0-0.1,0-0.2-0.1-0.4c-0.1-0.1-0.1-0.3-0.1-0.4c0-0.1-0.2-0.5-0.5-1.3
		c-0.1,0-0.2,0-0.3,0h-0.9h-0.3c-0.1,0-0.2,0-0.3,0c0,0.1-0.1,0.1-0.1,0.2l-0.4,1.2c-0.2,0.4-0.2,0.7-0.2,0.7v0.1c0.1,0,0.1,0,0.2,0
		l0.6,0.1c0,0,0,0,0,0.1c0,0,0,0,0,0.1c-0.1,0-0.2,0-0.3,0c-0.2,0-0.5,0-0.8,0c-0.1,0-0.2,0-0.3,0s-0.2,0-0.3,0s-0.2,0-0.2,0
		c-0.1,0-0.2,0-0.3,0L48.4,50.9C48.3,50.9,48.3,50.9,48.4,50.9z M50.4,48.3c0.3,0,0.6,0,1,0c0.2,0,0.4,0,0.6,0
		c0-0.1-0.1-0.2-0.1-0.3c-0.2-0.5-0.3-0.8-0.3-0.8l-0.4-1v-0.1c0,0-0.1,0.2-0.2,0.4c-0.2,0.4-0.3,0.8-0.4,1c0,0.1-0.1,0.2-0.1,0.3
		S50.4,48,50.4,48C50.4,48.2,50.4,48.3,50.4,48.3L50.4,48.3z"/>
	<path fill="#1A1A1A" d="M55.1,50.9C55.1,50.9,55.2,50.9,55.1,50.9c0.1-0.1,0.2-0.1,0.3-0.1c0.3,0,0.4,0,0.5-0.1
		c0-0.1,0.1-0.1,0.1-0.2v-0.3v-1.1v-0.5v-1.1v-1.2c0-0.3,0-0.5-0.1-0.5c-0.1-0.1-0.2-0.1-0.5-0.1c-0.1,0-0.2,0-0.3,0
		c0,0-0.1,0-0.1-0.1c0,0,0,0,0-0.1c0,0,0,0,0.1,0h0.1c0.2,0,0.3,0,0.5,0H56h0.7c0.4,0,0.7,0,0.9,0s0.4,0,0.4,0c0.1,0,0.2,0,0.5,0
		h0.6h0.1h0.4l0,0c0,0,0,0,0,0.1c0,0,0,0.1,0,0.2s0,0.1,0,0.2c0,0.3,0,0.5,0,0.7l0,0h-0.1c0-0.1-0.1-0.1-0.1-0.3
		c-0.1-0.1-0.1-0.3-0.2-0.5c-0.1-0.1-0.1-0.2-0.2-0.2c0,0-0.1,0-0.2,0c0,0-0.2,0-0.4,0c-0.1,0-0.1,0-0.2,0H57h0
		c-0.2,0-0.2,0-0.3,0.1c0,0.1-0.1,0.3-0.1,0.6c0,0,0,0.4,0,1V48h0.1h0.1c0,0,0.1,0,0.2,0c0.1,0,0.2,0,0.3,0h0.1c0.3,0,0.7,0,1.2,0
		c0.2,0,0.2-0.1,0.3-0.1c0-0.1,0.1-0.2,0.1-0.4s0.1-0.3,0.1-0.4h0.1c0,0,0,0,0,0.1s0,0.1,0,0.1c0,0.1,0,0.4,0,1c0,0.1,0,0.3,0,0.5
		s0,0.3,0,0.3v0.1c0,0,0,0-0.1,0l0,0c0-0.1-0.1-0.2-0.1-0.4c-0.1-0.3-0.2-0.5-0.2-0.5c-0.1-0.1-0.2-0.1-0.4-0.1c0,0-0.1,0-0.2,0
		c-0.1,0-0.3,0-0.5,0h-0.3c-0.4,0-0.7,0-0.8,0v0.1v0.8v0.5v0.5c0,0.3,0,0.5,0.1,0.5c0,0.1,0.2,0.1,0.3,0.1h0.3c0,0,0.1,0,0.3,0
		s0.3,0,0.6,0c0.5,0,0.9,0,1.1-0.1c0.2,0,0.3-0.1,0.4-0.2c0.1-0.1,0.3-0.4,0.4-0.8c0.1-0.1,0.1-0.2,0.2-0.2h0.1
		c-0.1,0.3-0.1,0.5-0.1,0.6c0,0.2,0,0.4-0.1,0.6c0,0.1,0,0.2-0.1,0.2H60h-1.2h-0.5L57,51h-0.5c-0.1,0-0.1,0-0.2,0
		c-0.5,0-0.9,0-1.1,0L55.1,50.9C55.1,51,55.1,51,55.1,50.9L55.1,50.9z"/>
	<path fill="#1A1A1A" d="M61.5,47.6v-0.2c0.2-0.1,0.3-0.2,0.4-0.3s0.2-0.2,0.3-0.4c0-0.1,0.1-0.1,0.1-0.2c0-0.1,0-0.2-0.1-0.2
		c0-0.1-0.1-0.1-0.1-0.1h-0.3c-0.1,0-0.1,0-0.2-0.1c-0.1-0.1-0.1-0.1-0.1-0.2c0-0.1,0-0.2,0.1-0.2c0.1-0.1,0.2-0.1,0.3-0.1
		c0.2,0,0.4,0.1,0.6,0.2c0.2,0.2,0.2,0.3,0.2,0.5c0,0.3-0.2,0.6-0.5,0.9C61.9,47.4,61.7,47.6,61.5,47.6z"/>
	<path fill="#1A1A1A" d="M64.2,49.9c0.1,0.3,0.2,0.4,0.2,0.5c0.1,0.2,0.2,0.3,0.4,0.4s0.3,0.1,0.5,0.1s0.3-0.1,0.5-0.2
		c0.1-0.1,0.2-0.2,0.2-0.4s-0.1-0.4-0.2-0.5c-0.1-0.2-0.4-0.3-0.8-0.4c-0.4-0.1-0.6-0.3-0.8-0.4c-0.1-0.2-0.2-0.3-0.2-0.5
		s0.1-0.4,0.2-0.5s0.2-0.3,0.4-0.3c0.2-0.1,0.4-0.1,0.5-0.1c0.2,0,0.4,0,0.5,0c0.2,0,0.3,0.1,0.4,0.1c0,0.1,0,0.4,0.1,0.6v0.1H66h0
		c-0.1-0.2-0.2-0.4-0.4-0.6c-0.2-0.1-0.3-0.2-0.5-0.2s-0.3,0.1-0.4,0.2c-0.1,0.1-0.2,0.2-0.2,0.4c0,0.1,0,0.2,0.1,0.3
		s0.3,0.2,0.6,0.3c0.3,0.1,0.5,0.2,0.7,0.4c0.1,0.1,0.2,0.2,0.3,0.4s0.1,0.3,0.1,0.4c0,0.2-0.1,0.4-0.2,0.5S65.9,51,65.7,51
		c-0.2,0.1-0.4,0.1-0.5,0.1c-0.4,0-0.7-0.1-1-0.2v-0.1v-0.1C64.2,50.3,64.1,50.1,64.2,49.9L64.2,49.9C64.1,49.9,64.1,49.9,64.2,49.9
		z"/>
	<path fill="#1A1A1A" d="M71.7,45.6C71.8,45.6,71.8,45.6,71.7,45.6c0.2,0,0.4,0,0.6,0c0.1,0,0.2,0,0.2,0c0.1,0,0.2,0,0.4,0h0.7
		c0.2,0,0.4,0,0.7,0c0.4,0,0.8,0.1,1.1,0.2c0.3,0.1,0.5,0.3,0.6,0.6s0.2,0.5,0.2,0.8c0,0.4-0.2,0.8-0.5,1.1s-0.7,0.5-1.3,0.5
		c-0.1,0-0.3,0-0.4,0s-0.2-0.1-0.3-0.2c-0.1,0-0.1-0.1-0.1-0.1l0,0h0.1c0.1,0,0.2,0.1,0.4,0.1c0.2,0,0.4-0.1,0.6-0.2
		c0.2-0.1,0.4-0.3,0.5-0.5s0.2-0.4,0.2-0.6c0-0.2-0.1-0.4-0.2-0.6S75,46.1,74.8,46c-0.1-0.1-0.3-0.1-0.5-0.2s-0.4-0.1-0.5-0.1
		c-0.4,0-0.6,0-0.6,0.1v0.1v0.5v0.1c0,0.1,0,0.2,0,0.4c0,0.6,0,0.9,0,1.1v0.2l0.1,1.9c0,0,0,0.1,0,0.2s0,0.1,0,0.2
		c0,0.1,0,0.2,0,0.3c0.1,0,0.3,0.1,0.6,0.1c0.2,0,0.2,0.1,0.3,0.1c0,0,0,0,0.1,0.1v0.1h-0.1c0,0-0.1,0-0.2,0c-0.2,0-0.4,0-0.6,0
		h-0.7h-0.4c0,0-0.1,0-0.2,0v-0.1l0.6-0.1c0.1,0,0.1-0.1,0.2-0.1c0,0,0-0.1,0-0.2c0,0,0-0.1,0-0.2c0-0.1,0-0.1,0-0.2
		c0-0.3,0-1,0-2.1c0-0.5,0-1,0-1.6v-0.1c0-0.2,0-0.3-0.1-0.4c-0.1-0.1-0.4-0.2-0.8-0.2C71.7,45.7,71.7,45.7,71.7,45.6L71.7,45.6z"/>
	<path fill="#1A1A1A" d="M77.5,49.3c0-0.2,0-0.4,0.1-0.6c0.1-0.2,0.2-0.4,0.4-0.6c0.2-0.2,0.3-0.3,0.5-0.4c0.3-0.1,0.6-0.2,0.9-0.2
		c0.5,0,1,0.2,1.3,0.5s0.5,0.8,0.5,1.3s-0.2,0.9-0.6,1.2c-0.4,0.4-0.8,0.5-1.4,0.5c-0.4,0-0.7-0.1-1-0.3c-0.2-0.1-0.4-0.3-0.6-0.6
		S77.5,49.6,77.5,49.3z M79.4,50.9c0.2,0,0.4-0.1,0.6-0.2c0.2-0.1,0.4-0.3,0.5-0.6s0.2-0.6,0.2-0.9c0-0.2,0-0.5-0.1-0.8
		s-0.2-0.5-0.4-0.7c-0.2-0.1-0.4-0.2-0.7-0.2c-0.2,0-0.4,0-0.6,0.1s-0.4,0.3-0.5,0.5s-0.2,0.6-0.2,1.1s0.1,0.9,0.4,1.2
		S79,50.9,79.4,50.9z"/>
	<path fill="#1A1A1A" d="M82.9,51L82.9,51C82.9,50.9,82.9,50.9,82.9,51l0.3-0.2l0.4-0.1c0,0,0,0,0.1-0.1c0,0,0-0.1,0-0.3
		c0-1,0-1.5,0-1.7c0-0.1,0-0.2-0.1-0.3c0,0-0.1-0.1-0.3-0.1c-0.1,0-0.2,0-0.2-0.1V48c0.3-0.1,0.5-0.2,0.6-0.3s0.3-0.3,0.4-0.5h0.1
		c0,0.1,0,0.5,0,0.9v0.1c0,0,0,0,0,0.1c0.1-0.2,0.2-0.4,0.4-0.5l0.1-0.1l0.1-0.1c0.2-0.1,0.3-0.2,0.4-0.2s0.2,0,0.3,0.1
		c0.1,0.1,0.1,0.2,0.1,0.3s0,0.2-0.1,0.2c-0.1,0.1-0.2,0.1-0.3,0.1c0,0-0.1,0-0.3-0.1c-0.1,0-0.2-0.1-0.3-0.1c-0.1,0-0.1,0-0.2,0
		c-0.1,0.1-0.2,0.2-0.3,0.4C84,48.4,84,48.6,84,48.7v0.7v0.8c0,0.1,0,0.2,0,0.2s0,0,0.1,0.1c0.3,0,0.5,0,0.5,0.1h0.1
		c0.1,0,0.2,0,0.3,0.1c0,0,0,0,0,0.1c0,0,0,0,0,0.1h-0.5h-0.2H84h-0.4h-0.2L82.9,51z"/>
	<path fill="#1A1A1A" d="M88.2,46.8L88.2,46.8l0.1,0.4v0.5c0.1,0,0.1,0,0.1,0c0.1,0,0.2,0,0.4,0c0.1,0,0.3,0,0.4,0s0.1,0,0.3,0
		c0,0.1,0,0.1,0,0.1s0,0.1,0,0.2h-0.1h-0.7h-0.3h-0.1c0,0.1,0,0.2,0,0.2v0.6v1.1c0,0.3,0,0.5,0.1,0.6s0.2,0.1,0.3,0.1
		c0.1,0,0.2,0,0.4-0.1c0.1,0,0.1-0.1,0.3-0.1l0,0c0,0,0,0,0.1,0s0,0,0,0.1l0,0c-0.1,0.1-0.3,0.2-0.4,0.3c-0.2,0.1-0.4,0.1-0.6,0.1
		s-0.3,0-0.5-0.1c-0.1-0.1-0.2-0.2-0.2-0.3s-0.1-0.4-0.1-0.8v-1v-0.5V48c0-0.1,0-0.2,0-0.2h-0.1h-0.3l0,0h-0.1c0,0,0,0,0-0.1v-0.1
		c0,0,0.1-0.1,0.2-0.1s0.2-0.1,0.3-0.2c0.1-0.1,0.2-0.2,0.2-0.3s0.1-0.2,0.1-0.3C88.1,46.9,88.2,46.9,88.2,46.8z"/>
	<path fill="#1A1A1A" d="M92.4,47.7c0.7,0,1.1,0,1.1,0c0,0.1,0,0.1,0,0.1s0,0.1,0,0.2c-0.1,0-0.1,0-0.2,0h-0.2c-0.4,0-0.6,0-0.7,0
		c0,0.1,0,0.1,0,0.1s0,0,0,0.1c0,0.4,0,0.7,0,0.8v1.1c0,0.2,0,0.3,0.1,0.4c0,0.1,0.1,0.1,0.2,0.1s0.2,0.1,0.4,0.1c0.2,0,0.3,0,0.3,0
		c0,0.1,0,0.1,0,0.1h-0.1c-0.1,0-0.3,0-0.5,0h-0.3h-1.1h-0.1v-0.1h0.1c0.2,0,0.4-0.1,0.5-0.2c0,0,0-0.1,0.1-0.1c0,0,0-0.2,0-0.5
		c0-0.8,0-1.5,0-1.9c-0.1,0-0.2,0-0.3,0c-0.1,0-0.1,0-0.3,0l0,0v-0.1c0,0,0.1-0.1,0.4-0.2c0.1,0,0.2-0.1,0.2-0.1s0-0.1,0-0.2
		c0,0,0-0.1,0-0.2c0-0.3,0.1-0.5,0.1-0.5c0.1-0.2,0.1-0.4,0.3-0.6c0.1-0.2,0.3-0.4,0.4-0.5s0.3-0.2,0.4-0.2c0.2-0.1,0.3-0.1,0.5-0.1
		c0.3,0,0.5,0,0.6,0.1s0.1,0.1,0.1,0.2c0,0.1,0,0.1-0.1,0.2C94.2,45.9,94.1,46,94,46s-0.2,0-0.3-0.1c-0.2-0.1-0.4-0.1-0.4-0.2
		c-0.1,0-0.1,0-0.2,0c-0.2,0-0.3,0-0.4,0.1s-0.2,0.2-0.2,0.4c0,0.1-0.1,0.5-0.1,1C92.4,47.4,92.4,47.5,92.4,47.7z"/>
	<path fill="#1A1A1A" d="M94.9,49.3c0-0.2,0-0.4,0.1-0.6c0.1-0.2,0.2-0.4,0.4-0.6c0.2-0.2,0.3-0.3,0.5-0.4c0.3-0.1,0.6-0.2,0.9-0.2
		c0.5,0,1,0.2,1.3,0.5s0.5,0.8,0.5,1.3s-0.2,0.9-0.6,1.2c-0.4,0.4-0.8,0.5-1.4,0.5c-0.4,0-0.7-0.1-1-0.3c-0.2-0.1-0.4-0.3-0.6-0.6
		S94.9,49.6,94.9,49.3z M96.8,50.9c0.2,0,0.4-0.1,0.6-0.2c0.2-0.1,0.4-0.3,0.5-0.6C98,50,98,49.7,98,49.3c0-0.2,0-0.5-0.1-0.8
		s-0.2-0.5-0.4-0.7c-0.2-0.1-0.4-0.2-0.7-0.2c-0.2,0-0.4,0-0.6,0.1s-0.4,0.3-0.5,0.5s-0.2,0.6-0.2,1.1s0.1,0.9,0.4,1.2
		S96.4,50.9,96.8,50.9z"/>
	<path fill="#1A1A1A" d="M100.4,45.7L100.4,45.7c0.1-0.1,0.2-0.1,0.3-0.2c0.1,0,0.4-0.1,0.6-0.2h0.2c0,0.1,0,0.2,0,0.2
		c0,2.3,0,3.7,0,4.2c0,0.3,0,0.4,0,0.4c0,0.3,0,0.5,0,0.5c0,0.1,0.1,0.1,0.3,0.1c0.2,0,0.3,0,0.3,0.1c0,0,0,0,0,0.1V51
		c0,0,0,0-0.1,0c0,0-0.2,0-0.4,0H101h-0.7h-0.1c0,0,0,0,0-0.1c0,0,0,0,0-0.1c0,0,0.1,0,0.3-0.1s0.3-0.1,0.3-0.1s0-0.1,0.1-0.1
		c0-0.1,0-0.4,0-0.9v-1v-1v-1v-0.5c0-0.1,0-0.2,0-0.2s-0.1-0.1-0.2-0.1C100.5,45.8,100.4,45.8,100.4,45.7z"/>
	<path fill="#1A1A1A" d="M103.5,48L103.5,48c0.2-0.2,0.3-0.2,0.3-0.2c0.1,0,0.2-0.1,0.3-0.2c0.1-0.1,0.2-0.2,0.3-0.3h0.1h0.1
		c0,0.1,0,0.2,0,0.3c0,0,0,0.1,0,0.2V48v1.2v1.3c0,0.1,0,0.2,0.1,0.2s0.1,0.1,0.3,0.1c0.1,0,0.2,0.1,0.3,0.1c0,0,0,0,0,0.1
		c0,0,0,0,0,0.1c-0.1,0-0.3,0-0.4,0c-0.2,0-0.4,0-0.5,0c0,0-0.3,0-0.7,0c-0.1,0-0.2,0-0.2,0s0,0-0.1,0c0,0,0,0,0-0.1
		c0,0,0-0.1,0.1-0.1c0,0,0.2,0,0.4-0.1c0.1,0,0.2,0,0.2-0.1s0.1-0.2,0.1-0.3c0-0.2,0-0.8,0-1.8c0-0.2,0-0.3,0-0.4l-0.1-0.1
		C103.8,48.1,103.7,48,103.5,48z M103.9,45.8c0-0.1,0-0.2,0.1-0.2s0.2-0.1,0.3-0.1c0.1,0,0.2,0,0.3,0.1s0.1,0.2,0.1,0.2
		s0,0.2-0.1,0.2s-0.2,0.1-0.3,0.1s-0.2,0-0.3-0.1C103.9,46,103.9,45.9,103.9,45.8z"/>
	<path fill="#1A1A1A" d="M106.5,49.3c0-0.2,0-0.4,0.1-0.6c0.1-0.2,0.2-0.4,0.4-0.6c0.2-0.2,0.3-0.3,0.5-0.4c0.3-0.1,0.6-0.2,0.9-0.2
		c0.5,0,1,0.2,1.3,0.5s0.5,0.8,0.5,1.3s-0.2,0.9-0.6,1.2c-0.4,0.4-0.8,0.5-1.4,0.5c-0.4,0-0.7-0.1-1-0.3c-0.2-0.1-0.4-0.3-0.6-0.6
		S106.5,49.6,106.5,49.3z M108.4,50.9c0.2,0,0.4-0.1,0.6-0.2c0.2-0.1,0.4-0.3,0.5-0.6s0.2-0.6,0.2-0.9c0-0.2,0-0.5-0.1-0.8
		s-0.2-0.5-0.4-0.7c-0.2-0.1-0.4-0.2-0.7-0.2c-0.2,0-0.4,0-0.6,0.1s-0.4,0.3-0.5,0.5s-0.2,0.6-0.2,1.1s0.1,0.9,0.4,1.2
		S108.1,50.9,108.4,50.9z"/>
	<path fill="#1A1A1A" d="M115.4,45.7L115.4,45.7c0-0.1,0.1-0.1,0.3-0.1h0.4h0.2h0.1c0.4,0,0.6,0,0.7,0v0.1v0.1h-0.4c0,0,0,0-0.1,0
		c0,0,0,0,0,0.1c0,0,0,0,0,0.1c0,0,0,0.1,0.1,0.2l0.3,0.7l0.6,1.6c0.1,0.2,0.1,0.3,0.1,0.4c0.1,0.2,0.2,0.4,0.3,0.7
		c0,0.1,0.1,0.3,0.3,0.7c0,0,0,0.1,0.1,0.1c0.1-0.2,0.3-0.6,0.6-1.1c0.2-0.4,0.3-0.7,0.4-0.8v-0.1l-0.7-1.7
		c-0.1-0.2-0.2-0.4-0.2-0.5c-0.1-0.3-0.2-0.4-0.2-0.4c-0.1,0-0.2-0.1-0.5-0.1h-0.1v-0.1c0,0,0,0,0-0.1c0.1,0,0.2,0,0.2,0h0.3h0.1
		h0.2h0.2h0.2h0.4h0.1h0.1h0.1c0,0,0,0,0,0.1c0,0,0,0,0,0.1c0,0-0.1,0-0.2,0c-0.2,0-0.3,0-0.3,0.1c0,0,0,0,0,0.1s0.1,0.3,0.3,0.9
		l0.4,1c0.1-0.3,0.3-0.7,0.5-1.2c0.1-0.2,0.1-0.4,0.1-0.5s0-0.1-0.1-0.2c0,0-0.1-0.1-0.2-0.1H120h-0.1l0,0c0,0,0,0,0-0.1h0.1
		c0,0,0.2,0,0.6,0h0.3h0.2h0.3h0.1c0,0,0,0,0,0.1v0.1c0,0-0.1,0-0.2,0.1c-0.2,0-0.4,0.1-0.5,0.2c-0.1,0.1-0.1,0.1-0.2,0.2l-0.3,0.7
		c-0.1,0.2-0.1,0.4-0.2,0.5c0,0.1-0.1,0.2-0.1,0.3l-0.2,0.4c0,0.1,0.1,0.2,0.2,0.4l0.4,1c0,0,0.1,0.2,0.2,0.4s0.2,0.4,0.2,0.6
		l0.1-0.2l0,0l0.3-0.7c0.1-0.2,0.2-0.4,0.3-0.7l0.3-0.8l0.5-1.4c0.1-0.2,0.1-0.3,0.1-0.5v-0.1v-0.1c0,0,0-0.1-0.1-0.1
		c0,0-0.2-0.1-0.4-0.1c0,0,0,0-0.1,0v-0.1l0,0c0.1,0,0.2,0,0.2,0h0.3h0.4h0.3h0.1l0,0c0,0,0,0,0,0.1c-0.2,0.1-0.3,0.1-0.4,0.2
		l-0.1,0.1c0,0-0.1,0.1-0.2,0.3c0,0-0.1,0.3-0.3,0.8c0,0.1-0.1,0.2-0.1,0.3c0,0,0,0.1-0.1,0.2l-0.1,0.2v0.1
		c-0.2,0.5-0.4,1.1-0.6,1.6l-0.5,1.3l-0.2,0.5h-0.1c0,0,0,0-0.1,0c0-0.1-0.1-0.3-0.2-0.6c-0.3-0.7-0.6-1.4-0.9-1.8l-0.1,0.1
		c-0.1,0.3-0.3,0.6-0.5,1.1l-0.3,0.7c-0.1,0.3-0.2,0.5-0.3,0.6h-0.2l-0.7-1.7l-0.6-1.3l-0.5-1.3c0-0.1-0.1-0.2-0.1-0.2
		c0-0.1,0-0.1-0.1-0.2c0-0.1-0.1-0.3-0.2-0.6c-0.1-0.1-0.1-0.1-0.2-0.2C115.5,45.8,115.4,45.8,115.4,45.7z"/>
	<path fill="#1A1A1A" d="M126.8,48.8h-1.7h-0.3c-0.1,0-0.3,0-0.4,0c0,0.1,0,0.1,0,0.2l0,0l0,0v0.2c0,0.2,0.1,0.4,0.2,0.6
		c0.1,0.3,0.3,0.4,0.5,0.6s0.5,0.2,0.8,0.2c0.2,0,0.3,0,0.4-0.1c0.1,0,0.2-0.1,0.4-0.2l0.3-0.2v0.2c0,0,0,0,0,0.1
		c-0.1,0.2-0.3,0.3-0.5,0.4s-0.4,0.2-0.6,0.3c-0.1,0-0.3,0-0.5,0s-0.4,0-0.6-0.1c-0.3-0.1-0.5-0.3-0.7-0.6s-0.2-0.6-0.2-1
		c0-0.1,0-0.3,0.1-0.5s0.1-0.4,0.3-0.6c0.1-0.2,0.2-0.3,0.3-0.4c0.2-0.1,0.3-0.2,0.4-0.3c0.2-0.1,0.4-0.1,0.6-0.1
		c0.3,0,0.5,0,0.6,0.1c0.2,0.1,0.4,0.3,0.5,0.5C126.7,48.3,126.8,48.5,126.8,48.8L126.8,48.8z M124.4,48.6h0.2c0.1,0,0.6,0,1.3-0.1
		c0.1,0,0.2,0,0.2,0c0.1-0.1,0.1-0.1,0.1-0.1c0-0.1,0-0.2-0.1-0.3s-0.1-0.2-0.3-0.3c-0.1-0.1-0.3-0.1-0.4-0.1
		c-0.3,0-0.6,0.1-0.8,0.4C124.5,48.3,124.4,48.4,124.4,48.6z"/>
	<path fill="#1A1A1A" d="M128.3,45.7L128.3,45.7C128.3,45.6,128.3,45.6,128.3,45.7c0.3-0.2,0.6-0.2,1-0.4h0.1v0.1v1.3v0.4v0.5V48
		v0.1l0.3-0.1c0,0,0.2,0,0.4-0.1c0.3,0,0.4-0.1,0.5-0.1c0.3,0,0.5,0,0.8,0.1c0.1,0.1,0.3,0.2,0.4,0.3s0.2,0.3,0.3,0.4
		c0.1,0.3,0.2,0.5,0.2,0.7c0,0.3,0,0.5-0.1,0.6c-0.1,0.3-0.2,0.5-0.4,0.7s-0.3,0.3-0.6,0.4s-0.5,0.2-0.8,0.2s-0.5,0-0.7-0.1
		s-0.4-0.1-0.4-0.1c-0.1,0-0.2,0.1-0.3,0.3h-0.1c0-0.2,0-0.4,0-0.7V50v-0.3v-0.9v-0.2v-0.4v-0.4v-0.2c0,0,0-0.2,0-0.4v-0.3
		c0-0.5,0-0.8-0.1-0.9C128.7,45.9,128.6,45.8,128.3,45.7z M130.3,50.9c0.4,0,0.8-0.1,1-0.4c0.2-0.2,0.3-0.6,0.3-1.1
		c0-0.4-0.1-0.8-0.4-1.1c-0.3-0.3-0.6-0.4-0.9-0.4c-0.3,0-0.5,0-0.7,0.1c-0.1,0.1-0.2,0.1-0.2,0.1s0,0.3,0,0.9c0,0.7,0,1.1,0,1.2
		c0,0.2,0.1,0.3,0.3,0.4C129.9,50.8,130.1,50.9,130.3,50.9z"/>
	<path fill="#1A1A1A" d="M134.3,49.9c0.1,0.3,0.2,0.4,0.2,0.5c0.1,0.2,0.2,0.3,0.4,0.4s0.3,0.1,0.5,0.1s0.3-0.1,0.5-0.2
		c0.1-0.1,0.2-0.2,0.2-0.4s-0.1-0.4-0.2-0.5c-0.1-0.2-0.4-0.3-0.8-0.4c-0.4-0.1-0.6-0.3-0.8-0.4c-0.1-0.2-0.2-0.3-0.2-0.5
		s0.1-0.4,0.2-0.5s0.2-0.3,0.4-0.3c0.2-0.1,0.4-0.1,0.5-0.1c0.2,0,0.4,0,0.5,0c0.2,0,0.3,0.1,0.4,0.1c0,0.1,0,0.4,0.1,0.6v0.1h-0.1
		H136c-0.1-0.2-0.2-0.4-0.4-0.6c-0.2-0.1-0.3-0.2-0.5-0.2s-0.3,0.1-0.4,0.2c-0.1,0.1-0.2,0.2-0.2,0.4c0,0.1,0,0.2,0.1,0.3
		s0.3,0.2,0.6,0.3s0.5,0.2,0.7,0.4c0.1,0.1,0.2,0.2,0.3,0.4s0.1,0.3,0.1,0.4c0,0.2-0.1,0.4-0.2,0.5S136,51,135.8,51
		c-0.2,0.1-0.4,0.1-0.5,0.1c-0.4,0-0.7-0.1-1-0.2v-0.1v-0.1c0-0.4-0.1-0.6-0.1-0.7v-0.1H134.3z"/>
	<path fill="#1A1A1A" d="M138.3,48L138.3,48c0.2-0.2,0.3-0.2,0.3-0.2c0.1,0,0.2-0.1,0.3-0.2c0.1-0.1,0.2-0.2,0.3-0.3h0.1h0.1
		c0,0.1,0,0.2,0,0.3c0,0,0,0.1,0,0.2V48v1.2v1.3c0,0.1,0,0.2,0.1,0.2s0.1,0.1,0.3,0.1c0.1,0,0.2,0.1,0.3,0.1c0,0,0,0,0,0.1
		c0,0,0,0,0,0.1c-0.1,0-0.3,0-0.4,0c-0.2,0-0.4,0-0.5,0c0,0-0.3,0-0.7,0c-0.1,0-0.2,0-0.2,0s0,0-0.1,0c0,0,0,0,0-0.1
		c0,0,0-0.1,0.1-0.1c0,0,0.2,0,0.4-0.1c0.1,0,0.2,0,0.2-0.1s0.1-0.2,0.1-0.3c0-0.2,0-0.8,0-1.8c0-0.2,0-0.3,0-0.4l-0.1-0.1
		C138.6,48.1,138.5,48,138.3,48z M138.6,45.8c0-0.1,0-0.2,0.1-0.2s0.2-0.1,0.3-0.1s0.2,0,0.3,0.1s0.1,0.2,0.1,0.2s0,0.2-0.1,0.2
		s-0.2,0.1-0.3,0.1s-0.2,0-0.3-0.1C138.7,46,138.6,45.9,138.6,45.8z"/>
	<path fill="#1A1A1A" d="M142.4,46.8h0.1v0.4v0.5c0.1,0,0.1,0,0.1,0c0.1,0,0.2,0,0.4,0c0.1,0,0.3,0,0.4,0c0.1,0,0.1,0,0.3,0
		c0,0.1,0,0.1,0,0.1s0,0.1,0,0.2h-0.1h-0.7h-0.3h-0.1c0,0.1,0,0.2,0,0.2v0.6v1.1c0,0.3,0,0.5,0.1,0.6s0.2,0.1,0.3,0.1s0.2,0,0.4-0.1
		c0.1,0,0.1-0.1,0.3-0.1l0,0c0,0,0,0,0.1,0s0,0,0,0.1l0,0c-0.1,0.1-0.3,0.2-0.4,0.3c-0.2,0.1-0.4,0.1-0.6,0.1c-0.2,0-0.3,0-0.5-0.1
		c-0.1-0.1-0.2-0.2-0.2-0.3s-0.1-0.4-0.1-0.8v-1v-0.5V48c0-0.1,0-0.2,0-0.2h-0.1h-0.3l0,0h-0.1c0,0,0,0,0-0.1v-0.1
		c0,0,0.1-0.1,0.2-0.1c0.1,0,0.2-0.1,0.3-0.2c0.1-0.1,0.2-0.2,0.2-0.3s0.1-0.2,0.1-0.3C142.3,46.9,142.3,46.9,142.4,46.8z"/>
	<path fill="#1A1A1A" d="M148.2,48.8h-1.7h-0.3c-0.1,0-0.3,0-0.4,0c0,0.1,0,0.1,0,0.2l0,0l0,0v0.2c0,0.2,0.1,0.4,0.2,0.6
		c0.1,0.3,0.3,0.4,0.5,0.6s0.5,0.2,0.8,0.2c0.2,0,0.3,0,0.4-0.1c0.1,0,0.2-0.1,0.4-0.2l0.3-0.2v0.2c0,0,0,0,0,0.1
		c-0.1,0.2-0.3,0.3-0.5,0.4s-0.4,0.2-0.6,0.3c-0.1,0-0.3,0-0.5,0s-0.4,0-0.6-0.1c-0.3-0.1-0.5-0.3-0.7-0.6s-0.2-0.6-0.2-1
		c0-0.1,0-0.3,0.1-0.5s0.1-0.4,0.3-0.6c0.1-0.2,0.2-0.3,0.3-0.4c0.2-0.1,0.3-0.2,0.4-0.3c0.2-0.1,0.4-0.1,0.6-0.1
		c0.3,0,0.5,0,0.6,0.1c0.2,0.1,0.4,0.3,0.5,0.5C148.1,48.3,148.2,48.5,148.2,48.8L148.2,48.8z M145.8,48.6h0.2c0.1,0,0.6,0,1.3-0.1
		c0.1,0,0.2,0,0.2,0c0.1-0.1,0.1-0.1,0.1-0.1c0-0.1,0-0.2-0.1-0.3s-0.1-0.2-0.3-0.3c-0.1-0.1-0.3-0.1-0.4-0.1
		c-0.3,0-0.6,0.1-0.8,0.4C145.9,48.3,145.8,48.4,145.8,48.6z"/>
</g>
</svg>
