<?xml version="1.0" encoding="utf-8"?>
<!-- Generator: Adobe Illustrator 18.0.0, SVG Export Plug-In . SVG Version: 6.00 Build 0)  -->
<!DOCTYPE svg PUBLIC "-//W3C//DTD SVG 1.1//EN" "http://www.w3.org/Graphics/SVG/1.1/DTD/svg11.dtd">
<svg version="1.1" id="レイヤー_1" xmlns="http://www.w3.org/2000/svg" xmlns:xlink="http://www.w3.org/1999/xlink" x="0px"
	 y="0px" viewBox="0 0 300 300" enable-background="new 0 0 300 300" xml:space="preserve">
<path d="M143,113.7c-18.6-33.1-38.5-60-40-62c-30,14.2-52.4,41.8-59.4,75.1C46.5,126.9,91.4,127.4,143,113.7z M156.4,149.8
	c1.4-0.4,2.8-0.9,4.2-1.3c-2.7-6.1-5.6-12.2-8.7-18.3c-55.4,16.6-108.6,15.4-110.5,15.3c0,1.1-0.1,2.3-0.1,3.4
	c0,27.7,10.5,52.9,27.6,71.9c0,0-0.1-0.1-0.1-0.1S98.4,168.6,156.4,149.8z M82.9,233.8L82.9,233.8c-0.8-0.7-1.6-1.2-2.4-1.9
	C81.9,233.1,82.9,233.8,82.9,233.8z M123.2,44.5c-0.1,0-0.2,0-0.3,0.1C123.1,44.6,123.2,44.5,123.2,44.5L123.2,44.5z M220.1,68.2
	c-18.9-16.7-43.8-26.8-71.1-26.8c-8.7,0-17.2,1.1-25.4,3c1.6,2.2,21.8,29,40.2,62.8C204.4,92,219.8,68.7,220.1,68.2z M149,275
	c-69.6,0-126-56.4-126-126C23,79.4,79.4,23,149,23c69.6,0,126,56.4,126,126C275,218.6,218.6,275,149,275z M167.3,166.6
	c-63.2,22-84,66.3-84.4,67.2c18.3,14.3,41.2,22.8,66.1,22.8c14.9,0,29.1-3,42-8.5c-1.6-9.4-7.9-42.4-23-81.7
	C167.8,166.5,167.5,166.5,167.3,166.6z M172.1,123.2c2.5,5.1,4.9,10.3,7.2,15.6c0.8,1.9,1.6,3.7,2.3,5.6c37.2-4.7,73.8,3.3,74.9,3.5
	c-0.3-25.5-9.4-48.9-24.5-67.3C231.9,81,214.6,105.9,172.1,123.2z M188.2,161.4c14.1,38.8,19.9,70.4,20.9,76.9
	c24.2-16.3,41.3-42.2,46.1-72.2C253.1,165.4,223,155.8,188.2,161.4z"/>
</svg>
