<?xml version="1.0" encoding="utf-8"?>
<!-- Generator: Adobe Illustrator 18.0.0, SVG Export Plug-In . SVG Version: 6.00 Build 0)  -->
<!DOCTYPE svg PUBLIC "-//W3C//DTD SVG 1.1//EN" "http://www.w3.org/Graphics/SVG/1.1/DTD/svg11.dtd">
<svg version="1.1" id="レイヤー_1" xmlns="http://www.w3.org/2000/svg" xmlns:xlink="http://www.w3.org/1999/xlink" x="0px"
	 y="0px" viewBox="0 0 300 300" enable-background="new 0 0 300 300" xml:space="preserve">
<g>
	<path fill-rule="evenodd" clip-rule="evenodd" fill="#191313" d="M149.6,23.4C78,23.4,20,81.5,20,153c0,57.3,37.1,105.8,88.6,123
		c6.5,1.2,8.9-2.8,8.9-6.2c0-3.1-0.1-13.3-0.2-24.1c-36.1,7.8-43.7-15.3-43.7-15.3c-5.9-15-14.4-19-14.4-19c-11.8-8,0.9-7.9,0.9-7.9
		c13,0.9,19.9,13.4,19.9,13.4c11.6,19.8,30.3,14.1,37.7,10.8c1.2-8.4,4.5-14.1,8.2-17.3c-28.8-3.3-59-14.4-59-64
		c0-14.1,5.1-25.7,13.4-34.8c-1.3-3.3-5.8-16.4,1.3-34.3c0,0,10.9-3.5,35.6,13.3c10.3-2.9,21.4-4.3,32.4-4.4
		c11,0.1,22.1,1.5,32.5,4.4c24.7-16.8,35.6-13.3,35.6-13.3c7.1,17.9,2.6,31,1.3,34.3c8.3,9.1,13.3,20.6,13.3,34.8
		c0,49.8-30.3,60.7-59.2,63.9c4.6,4,8.8,11.9,8.8,24c0,17.3-0.1,31.3-0.1,35.6c0,3.4,2.3,7.5,8.9,6.2c51.5-17.2,88.6-65.7,88.6-123
		C279.2,81.5,221.2,23.4,149.6,23.4z"/>
</g>
</svg>
