<?xml version="1.0" encoding="utf-8"?>
<!-- Generator: Adobe Illustrator 18.0.0, SVG Export Plug-In . SVG Version: 6.00 Build 0)  -->
<!DOCTYPE svg PUBLIC "-//W3C//DTD SVG 1.1//EN" "http://www.w3.org/Graphics/SVG/1.1/DTD/svg11.dtd">
<svg version="1.1" id="レイヤー_1" xmlns="http://www.w3.org/2000/svg" xmlns:xlink="http://www.w3.org/1999/xlink" x="0px"
	 y="0px" viewBox="0 0 300 300" enable-background="new 0 0 300 300" xml:space="preserve">
<g>
	
		<rect x="74.4" y="94" transform="matrix(0.7071 -0.7071 0.7071 0.7071 -75.9955 155.7434)" fill="#555555" width="151.3" height="151.3"/>
	<polygon fill="#8B8B8B" points="150,276.6 43,169.6 150,62.6 	"/>
	
		<rect x="102.7" y="162.4" transform="matrix(0.7071 -0.7071 0.7071 0.7071 -104.3646 167.4942)" fill="#414141" width="94.6" height="94.6"/>
	<polygon fill="#494949" points="216.9,209.7 150,276.6 150,142.9 	"/>
	<polygon fill="#7C7C7C" points="150,276.6 83.1,209.7 150,142.9 	"/>
	
		<rect x="133.5" y="236.6" transform="matrix(0.7071 -0.7071 0.7071 0.7071 -135.0977 180.2243)" fill="#414141" width="33.1" height="33.1"/>
	
		<rect x="126.4" y="152.7" transform="matrix(0.7071 -0.7071 0.7071 0.7071 -80.7237 157.7019)" fill="#6B6B6B" width="47.3" height="47.3"/>
	<polygon fill="#707070" points="223.6,136.2 183.4,96.1 150,129.5 116.6,96.1 76.4,136.2 116.6,176.3 150,142.9 183.4,176.3 	"/>
	<polygon fill="#9A9A9A" points="43,89.4 19.1,113.3 36.3,96.1 2.9,62.6 2.9,129.5 2.9,129.5 43,169.6 83.1,129.5 	"/>
	<polygon fill="#777777" points="109.9,22.5 76.4,55.9 36.3,96.1 76.4,136.2 116.6,96.1 150,129.5 150,62.6 	"/>
	<polygon fill="#5D5D5D" points="257,89.4 216.9,129.5 257,169.6 297.1,129.5 	"/>
	<polygon fill="#999999" points="223.6,55.9 190.1,22.5 150,62.6 150,62.6 150,129.5 183.4,96.1 176.9,89.5 183.4,96.1 	"/>
	<polygon fill="#767676" points="297.1,62.6 257,22.5 216.9,62.6 216.9,62.6 183.4,96.1 223.6,136.2 257,102.7 257,102.7 	"/>
	<polygon fill="#B7B7B7" points="190.1,23 223.6,56.4 257,23 	"/>
	<polygon fill="#6A6A6A" points="297.1,62.6 263.7,96.1 297.1,129.5 	"/>
	<polygon fill="#B8B8B8" points="43,23 2.9,62.9 36.3,96.2 76.4,56.2 109.9,23 	"/>
</g>
<g>
	
		<rect x="-334.6" y="94" transform="matrix(0.7071 -0.7071 0.7071 0.7071 -195.7888 -133.4633)" fill="#9E3630" width="151.3" height="151.3"/>
	<polygon fill="#E5655F" points="-259,276.6 -366,169.6 -259,62.6 	"/>
	
		<rect x="-306.3" y="162.4" transform="matrix(0.7071 -0.7071 0.7071 0.7071 -224.1579 -121.7124)" fill="#812525" width="94.6" height="94.6"/>
	<polygon fill="#8D2D29" points="-192.1,209.7 -259,276.6 -259,142.9 	"/>
	<polygon fill="#D35752" points="-259,276.6 -325.9,209.7 -259,142.9 	"/>
	
		<rect x="-275.5" y="236.6" transform="matrix(0.7071 -0.7071 0.7071 0.7071 -254.8911 -108.9823)" fill="#812525" width="33.1" height="33.1"/>
	
		<rect x="-282.6" y="152.7" transform="matrix(0.7071 -0.7071 0.7071 0.7071 -200.517 -131.5048)" fill="#D04137" width="47.3" height="47.3"/>
	<polygon fill="#E24136" points="-185.4,136.2 -225.6,96.1 -259,129.5 -292.4,96.1 -332.6,136.2 -292.4,176.3 -259,142.9 
		-225.6,176.3 	"/>
	<polygon fill="#F9726C" points="-366,89.4 -389.9,113.3 -372.7,96.1 -406.1,62.6 -406.1,129.5 -406.1,129.5 -366,169.6 
		-325.9,129.5 	"/>
	<polygon fill="#F44336" points="-299.1,22.5 -332.6,55.9 -372.7,96.1 -332.6,136.2 -292.4,96.1 -259,129.5 -259,62.6 	"/>
	<polygon fill="#AC3C35" points="-152,89.4 -192.1,129.5 -152,169.6 -111.9,129.5 	"/>
	<polygon fill="#F7716B" points="-185.4,55.9 -218.9,22.5 -259,62.6 -259,62.6 -259,129.5 -225.6,96.1 -232.1,89.5 -225.6,96.1 	"/>
	<polygon fill="#F34235" points="-111.9,62.6 -152,22.5 -192.1,62.6 -192.1,62.6 -225.6,96.1 -185.4,136.2 -152,102.7 -152,102.7 	
		"/>
	<polygon fill="#FF9997" points="-218.9,23 -185.4,56.4 -152,23 	"/>
	<polygon fill="#CF4036" points="-111.9,62.6 -145.3,96.1 -111.9,129.5 	"/>
	<polygon fill="#FF9A98" points="-366,23 -406.1,62.9 -372.7,96.2 -332.6,56.2 -299.1,23 	"/>
</g>
</svg>
