<svg xmlns="http://www.w3.org/2000/svg" viewBox="0 0 300 300"><path d="M143 113.7c-18.6-33.1-38.5-60-40-62-30 14.2-52.4 41.8-59.4 75.1 2.9.1 47.8.6 99.4-13.1zm13.4 36.1c1.4-.4 2.8-.9 4.2-1.3-2.7-6.1-5.6-12.2-8.7-18.3-55.4 16.6-108.6 15.4-110.5 15.3 0 1.1-.1 2.3-.1 3.4 0 27.7 10.5 52.9 27.6 71.9l-.1-.1s29.6-52.1 87.6-70.9zm-73.5 84c-.8-.7-1.6-1.2-2.4-1.9 1.4 1.2 2.4 1.9 2.4 1.9zm40.3-189.3c-.1 0-.2 0-.3.1.2 0 .3-.1.3-.1zm96.9 23.7c-18.9-16.7-43.8-26.8-71.1-26.8-8.7 0-17.2 1.1-25.4 3 1.6 2.2 21.8 29 40.2 62.8 40.6-15.2 56-38.5 56.3-39zM149 275c-69.6 0-126-56.4-126-126S79.4 23 149 23s126 56.4 126 126-56.4 126-126 126zm18.3-108.4c-63.2 22-84 66.3-84.4 67.2 18.3 14.3 41.2 22.8 66.1 22.8 14.9 0 29.1-3 42-8.5-1.6-9.4-7.9-42.4-23-81.7-.2.1-.5.1-.7.2zm4.8-43.4c2.5 5.1 4.9 10.3 7.2 15.6.8 1.9 1.6 3.7 2.3 5.6 37.2-4.7 73.8 3.3 74.9 3.5-.3-25.5-9.4-48.9-24.5-67.3-.1.4-17.4 25.3-59.9 42.6zm16.1 38.2c14.1 38.8 19.9 70.4 20.9 76.9 24.2-16.3 41.3-42.2 46.1-72.2-2.1-.7-32.2-10.3-67-4.7z"/></svg>