<?xml version="1.0" standalone="no"?>
<!DOCTYPE svg PUBLIC "-//W3C//DTD SVG 1.1//EN" "http://www.w3.org/Graphics/SVG/1.1/DTD/svg11.dtd" >
<svg xmlns="http://www.w3.org/2000/svg">
<metadata></metadata>
<defs>
<font id="p22_underground_probook" horiz-adv-x="1350" >
<font-face units-per-em="2048" ascent="1536" descent="-512" />
<missing-glyph horiz-adv-x="585" />
<glyph horiz-adv-x="0" />
<glyph horiz-adv-x="682" />
<glyph unicode=" "  horiz-adv-x="585" />
<glyph unicode="&#x09;" horiz-adv-x="585" />
<glyph unicode="&#xa0;" horiz-adv-x="585" />
<glyph unicode="!" horiz-adv-x="610" d="M183 79v22l112 113h23l112 -113v-22l-112 -113h-23zM219 1307v258l11 12h151l11 -12v-258l-31 -913l-12 -11h-87l-12 11z" />
<glyph unicode="&#x22;" horiz-adv-x="1015" d="M219 1352v213l11 12h151l11 -12v-213l-31 -305l-12 -11h-87l-12 11zM624 1352v213l12 12h150l12 -12v-213l-32 -305l-11 -11h-88l-11 11z" />
<glyph unicode="#" horiz-adv-x="1376" d="M103 520v153l11 12h226l23 274h-225l-12 12v153l12 11h240l28 340l11 12h166l12 -12l-27 -340h283l28 340l11 12h167l11 -12l-27 -340h223l11 -11v-153l-11 -12h-239l-23 -274h239l12 -12v-153l-12 -11h-254l-34 -408l-11 -11h-166l-13 11l35 408h-284l-34 -408l-11 -11 h-168l-11 11l34 408h-210zM529 685h284l23 274h-284z" />
<glyph unicode="$" horiz-adv-x="1195" d="M88 293l129 92h22q38 -93 110 -154t163 -80v627q-62 29 -108.5 55.5t-97 65.5t-82.5 81t-52.5 99.5t-20.5 123.5q0 154 99 264.5t262 134.5v189l10 11h151l12 -11v-189q107 -22 197 -90t141 -154l-120 -92h-22q-84 111 -196 146v-509q48 -23 83 -41t79.5 -45.5t76 -53 t64.5 -61.5t53.5 -73.5t33.5 -85t13 -100.5q0 -87 -32.5 -167.5t-87.5 -141t-128.5 -101.5t-154.5 -55v-192l-12 -12h-151l-10 12v186q-152 21 -262.5 105.5t-161.5 215.5zM333 1203q0 -69 47 -119t132 -95v434q-80 -19 -129.5 -78t-49.5 -142zM685 157q91 25 155.5 101 t64.5 185q0 44 -17.5 82t-52 69.5t-68.5 54t-82 47.5v-539z" />
<glyph unicode="%" horiz-adv-x="1826" d="M103 1227.5q0 99.5 50.5 182.5t136 130.5t185.5 47.5t185.5 -47.5t136 -130.5t50.5 -182.5t-50.5 -182.5t-136 -130.5t-185.5 -47.5t-185.5 47.5t-136 130.5t-50.5 182.5zM277 1228q0 -85 58.5 -144t139.5 -59q82 0 139 58.5t57 144.5q0 56 -26.5 102.5t-71.5 73 t-98 26.5q-40 0 -76.5 -15.5t-63 -42.5t-42.5 -64.5t-16 -79.5zM290 11l1037 1554l23 12h175l12 -12l-1037 -1554l-23 -11h-176zM982 349q0 74 30 141t80 115t118.5 76.5t143.5 28.5q100 0 185.5 -48t136 -131t50.5 -182t-50.5 -182.5t-136 -130.5t-185.5 -47t-185.5 47 t-136 130.5t-50.5 182.5zM1156 349q0 -85 58.5 -144t139.5 -59t138.5 58.5t57.5 144t-57.5 144.5t-138.5 59t-139.5 -59t-58.5 -144z" />
<glyph unicode="&#x26;" horiz-adv-x="1544" d="M103 441q0 127 81.5 236.5t219.5 196.5q-76 86 -120.5 172t-44.5 184q0 103 47.5 190.5t132.5 138.5t189 51q78 0 147 -30t118 -81.5t77 -121.5t28 -147q0 -46 -16.5 -93t-44.5 -88.5t-65.5 -80.5t-78 -70t-83.5 -55q17 -23 37.5 -47t37 -43.5t41 -47.5t38 -43.5 t42 -46.5t39 -42t41.5 -45t38 -42q104 138 219 359h181l8 -11q-101 -217 -277 -475q47 -48 108 -106t133.5 -126.5t119.5 -113.5l-11 -13h-246q-116 97 -223 212q-208 -246 -453 -246q-128 0 -234 63.5t-166 172.5t-60 239zM286 441q0 -80 37 -149.5t101 -110.5t139 -41 q83 0 168.5 54.5t154.5 145.5q-175 180 -377 404q-48 -33 -83 -62.5t-69.5 -68t-52.5 -82t-18 -90.5zM424 1230q0 -125 150 -282q38 24 72.5 52.5t69.5 65t56 79.5t21 85q0 87 -53 147.5t-130 60.5t-131.5 -60.5t-54.5 -147.5z" />
<glyph unicode="'" horiz-adv-x="610" d="M219 1352v213l11 12h151l11 -12v-213l-31 -305l-12 -11h-87l-12 11z" />
<glyph unicode="(" horiz-adv-x="699" d="M129 518q0 188 25.5 365.5t68 316.5t85.5 240.5t90 181.5h178l12 -12q-52 -76 -100 -182t-90.5 -243t-68 -311t-25.5 -355.5t25.5 -355.5t68 -311.5t90.5 -243.5t100 -182l-12 -11h-178q-47 81 -90 182t-85.5 239.5t-68 316t-25.5 365.5z" />
<glyph unicode=")" horiz-adv-x="699" d="M112 -574q53 76 101.5 182t91 243.5t68 311t25.5 355.5t-25.5 355.5t-68 311t-91 243.5t-101.5 182l12 12h177q48 -81 91 -182t86 -240t68.5 -316.5t25.5 -365.5t-25.5 -365.5t-68.5 -316t-86 -239.5t-91 -182h-177z" />
<glyph unicode="*" horiz-adv-x="1015" d="M114 1032v11l301 129l-301 128v11l69 122h11l268 -180l-32 312l11 12h135l12 -12l-34 -312l269 180h11l69 -122v-11l-301 -128l301 -129v-11l-69 -122h-11l-269 180l34 -312l-12 -12h-135l-11 12l32 312l-268 -180h-11z" />
<glyph unicode="+" horiz-adv-x="1195" d="M160 746v153l12 11h340v341l10 11h151l12 -11v-341h342l11 -11v-153l-11 -11h-342v-341l-12 -11h-151l-10 11v341h-340z" />
<glyph unicode="," horiz-adv-x="610" d="M101 -214q58 11 88 66.5t30 145.5v178l11 11h151l11 -11v-167q0 -77 -26.5 -132t-78.5 -84t-125 -29q-29 0 -61 10v12z" />
<glyph unicode="-" horiz-adv-x="900" d="M90 453v153l11 11h699l11 -11v-153l-11 -12h-699z" />
<glyph unicode="." horiz-adv-x="610" d="M212 11v165l11 11h164l11 -11v-165l-11 -11h-164z" />
<glyph unicode="/" horiz-adv-x="695" d="M36 -552l450 2117l12 12h151l11 -12l-451 -2117l-11 -11h-151z" />
<glyph unicode="0" horiz-adv-x="1240" d="M114 788.5q0 171.5 34 320.5t97 261t160 176t217 64q118 0 214.5 -64t159.5 -176t96.5 -261t33.5 -320q0 -137 -21 -260.5t-63.5 -226t-102 -178t-141 -117t-176.5 -41.5q-120 0 -217 64.5t-160 176.5t-97 261t-34 320.5zM299 789q0 -135 22.5 -253t63.5 -206t102 -139 t135 -51q96 0 170 87.5t113 234.5t39 327t-39 326.5t-113 234.5t-170 88q-98 0 -172 -88t-112.5 -234.5t-38.5 -326.5z" />
<glyph unicode="1" horiz-adv-x="559" d="M194 11v1429l11 22l151 126l11 -11v-1566l-11 -11h-151z" />
<glyph unicode="2" horiz-adv-x="1105" d="M92 1199v220q86 89 181 140t213 51q122 0 221 -57t154.5 -157t55.5 -222q0 -53 -11.5 -107.5t-27 -98t-45.5 -102.5t-52 -96.5t-63 -102.5l-299 -493h548l11 -12v-151l-11 -11h-834l-11 11l435 722q89 145 133.5 249t44.5 192q0 119 -69 191.5t-180 72.5q-41 0 -81 -10 t-75 -28.5t-67 -42t-61 -52.5t-52.5 -57.5t-46.5 -60.5z" />
<glyph unicode="3" horiz-adv-x="1150" d="M58 214l102 119h23q79 -94 159 -143.5t178 -49.5q94 0 172.5 46.5t123 126.5t44.5 175q0 136 -106 227t-268 91q-65 0 -144 -30l-11 10l367 618h-617l-12 11v150l12 12h901l11 -12l-351 -617q184 -29 292.5 -154.5t108.5 -305.5q0 -106 -41.5 -202.5t-111.5 -166.5 t-167 -111.5t-203 -41.5q-131 0 -251 62.5t-211 185.5z" />
<glyph unicode="4" horiz-adv-x="1398" d="M36 486l953 1102l11 -11v-926h327l12 -11v-154l-12 -11h-327v-464l-11 -11h-151l-11 11v464h-780zM398 651h429v512z" />
<glyph unicode="5" horiz-adv-x="1128" d="M58 191l102 120h23q135 -171 315 -171q148 0 247.5 94.5t99.5 238.5q0 80 -34 145.5t-91 108t-130 65.5t-153 23q-117 0 -230 -37l-11 11l77 776l11 12h754l11 -12l-103 -161h-499l-43 -426q101 11 195.5 -6t171.5 -60.5t135 -107t89.5 -149t31.5 -182.5 q0 -108 -41.5 -202.5t-112.5 -161t-168.5 -105t-206.5 -38.5q-127 0 -241.5 58t-198.5 167z" />
<glyph unicode="6" horiz-adv-x="1195" d="M103 608q0 142 49 296.5t126 282.5t167 231.5t177 158.5h195l12 -12q-29 -24 -58 -50.5t-59.5 -56.5t-60 -62.5t-58 -67.5t-56 -72t-53 -75t-48 -78.5t-42 -80.5t-36 -82.5t-27.5 -83.5q35 27 75 48.5t98 37t118 15.5q107 0 200 -39.5t157.5 -106.5t101.5 -157.5 t37 -191.5t-37 -191.5t-101.5 -158t-157.5 -107t-200 -39.5q-80 0 -154 22.5t-141 73t-116 123.5t-78.5 182t-29.5 241zM286 608q0 -97 18.5 -176.5t49.5 -133t74.5 -90t91.5 -52.5t102 -16q69 0 128 25.5t99.5 69.5t63 102.5t22.5 124.5q0 90 -40 164t-112 116t-161 42 q-73 0 -133 -18t-106.5 -48.5t-96.5 -79.5v-30z" />
<glyph unicode="7" horiz-adv-x="1195" d="M151 11l703 1393h-692l-11 11v150l11 12h967l11 -12l-779 -1554l-23 -11h-176z" />
<glyph unicode="8" horiz-adv-x="1150" d="M110 432q0 141 89.5 255.5t232.5 184.5q-238 140 -238 358q0 106 49.5 193t137.5 137t195.5 50t195 -50t136.5 -137t49 -193q0 -217 -237 -358q143 -70 233 -185t90 -255q0 -133 -61.5 -240t-168 -166.5t-237 -59.5t-237 59.5t-168 166.5t-61.5 240zM293 432 q0 -136 79.5 -214t203.5 -78t204 78t80 214q0 58 -23 112t-63.5 97.5t-90 78t-107.5 60.5q-58 -26 -108 -60.5t-90 -78t-62.5 -97.5t-22.5 -112zM378 1230q0 -82 54 -151t144 -112q59 29 103 68t70.5 89.5t26.5 105.5q0 95 -57 151.5t-143 56.5t-142 -56t-56 -152z" />
<glyph unicode="9" horiz-adv-x="1195" d="M81 1115q0 101 37 191.5t101 158t157 106.5t200 39q80 0 154 -22.5t141 -72.5t116 -123t78 -181.5t29 -241.5q0 -141 -49 -295.5t-125.5 -283t-167 -231.5t-176.5 -159h-198l-11 11q76 61 150 139t142.5 169t123.5 196t84 205q-35 -27 -75 -48t-98 -37t-118 -16 q-71 0 -137.5 18t-120.5 50.5t-98.5 78.5t-75 100.5t-47 118t-16.5 130.5zM264 1115q0 -138 88 -230t224 -92q72 0 132 18t106.5 49t95.5 79q2 9 2 30q0 98 -18.5 177.5t-50 133t-75 89.5t-91.5 52.5t-101 16.5q-93 0 -165 -44t-109.5 -117t-37.5 -162z" />
<glyph unicode=":" horiz-adv-x="610" d="M212 11v165l11 11h164l11 -11v-165l-11 -11h-164zM212 733v163l11 12h164l11 -12v-163l-11 -13h-164z" />
<glyph unicode=";" horiz-adv-x="610" d="M101 -214q58 11 88 66.5t30 145.5v178l11 11h151l11 -11v-167q0 -77 -26.5 -132t-78.5 -84t-125 -29q-29 0 -61 10v12zM212 733v163l11 12h164l11 -12v-163l-11 -13h-164z" />
<glyph unicode="&#x3c;" horiz-adv-x="1195" d="M138 755v135l10 11l879 340l11 -11v-168l-11 -13l-651 -226l651 -228l11 -12v-168l-11 -11l-879 340z" />
<glyph unicode="=" horiz-adv-x="1195" d="M174 520v153l11 12h856l11 -12v-153l-11 -11h-856zM174 971v153l11 11h856l11 -11v-153l-11 -12h-856z" />
<glyph unicode="&#x3e;" horiz-adv-x="1195" d="M160 415v168l12 12l648 228l-648 226l-12 13v168l12 11l877 -340l13 -11v-135l-13 -11l-877 -340z" />
<glyph unicode="?" horiz-adv-x="993" d="M58 1329q61 131 169 206t248 75q115 0 208 -50.5t144.5 -139t51.5 -197.5q0 -57 -16.5 -110.5t-44 -95.5t-62.5 -83t-71.5 -73.5t-71 -67t-62 -63.5t-44 -62t-16.5 -64q0 -37 10.5 -64t26.5 -44t48 -43l-107 -113q-28 18 -53 40.5t-51 55.5t-42 77t-16 91q0 45 16.5 88.5 t44 78t62.5 71t71.5 68t71.5 68.5t62.5 72.5t44 80.5t16.5 92q0 92 -64 153.5t-157 61.5q-177 0 -286 -195h-11zM340 79v22l113 113h22l113 -113v-22l-113 -113h-22z" />
<glyph unicode="@" horiz-adv-x="1916" d="M148 541q0 100 22 194.5t62.5 175.5t96.5 152t127 125.5t150.5 94t169.5 60t183 20.5q110 0 215 -28t194 -78.5t164 -122.5t127.5 -157t82 -185.5t29.5 -206.5q0 -110 -29.5 -204t-79 -157.5t-115 -99.5t-137.5 -36q-83 0 -141 20.5t-106 78.5q-30 -28 -72 -50 t-88.5 -34.5t-88.5 -12.5q-48 0 -93.5 11t-86.5 33.5t-72 54.5t-49 77.5t-18 98.5q0 54 21 99.5t59 78t86.5 58t109.5 42t121 26.5t128 16q0 180 -165 180q-78 0 -146 -21.5t-145 -73.5l-11 12l70 173q113 59 236 59q148 0 233 -93.5t85 -271.5v-243q0 -170 133 -170 q85 0 139.5 94.5t54.5 254.5q0 128 -52 245t-138.5 201t-205.5 133.5t-249 49.5t-249 -53t-205.5 -143t-137.5 -215t-51 -262t51 -261.5t137.5 -215t205.5 -144t249 -53.5q96 0 176 23.5t159 77.5h17l63 -130q-71 -46 -141.5 -73t-133.5 -37t-140 -10q-108 0 -212 28.5 t-193 80t-164.5 126t-128.5 164.5t-83 199t-30 225zM761 365q0 -31 11 -55.5t31.5 -40t48.5 -23t62 -7.5q46 0 103.5 20t102.5 57v227q-102 -5 -181.5 -26t-128.5 -60.5t-49 -91.5z" />
<glyph unicode="A" horiz-adv-x="1507" d="M36 11l626 1554l11 12h159l11 -12l628 -1554l-11 -11h-166l-12 11l-169 413h-721l-166 -413l-12 -11h-167zM462 597h583l-293 742z" />
<glyph unicode="B" d="M194 11v1554l11 12h358q234 0 364 -107.5t130 -289.5t-167 -277q179 -49 268.5 -161.5t89.5 -266.5q0 -133 -68.5 -242t-190 -171t-271.5 -62h-513zM367 174h351q151 0 241 82.5t90 218.5q0 86 -40 152t-115.5 103.5t-175.5 37.5h-351v-594zM367 944h196 q140 0 217.5 60.5t77.5 175.5q0 107 -73 165.5t-222 58.5h-196v-460z" />
<glyph unicode="C" horiz-adv-x="1646" d="M126 789q0 111 30 217t83.5 196t130.5 166.5t168 129.5t199.5 82.5t221.5 29.5q308 0 541 -168v-199l-11 -11q-113 94 -250 145t-280 51q-128 0 -245.5 -50.5t-203 -135.5t-136 -203.5t-50.5 -249.5t50.5 -250t136 -204.5t203 -136t245.5 -50.5q143 0 280 51t250 145 l11 -11v-198q-234 -169 -541 -169q-97 0 -191 21.5t-176 62.5t-154.5 97.5t-129 128t-97.5 152.5t-63 173t-22 188z" />
<glyph unicode="D" horiz-adv-x="1634" d="M194 11v1554l11 12h478q178 0 334 -61.5t265 -167.5t171.5 -251.5t62.5 -308t-62.5 -308t-171.5 -251t-265 -167.5t-334 -62h-478zM367 174h316q108 0 206.5 30.5t175.5 87t133.5 132t87 169.5t30.5 196q0 127 -48 240.5t-130.5 196t-201 130.5t-253.5 48h-316v-1230z " />
<glyph unicode="E" horiz-adv-x="1268" d="M194 11v1554l11 12h894l12 -12v-150l-12 -11h-732v-449h553l11 -11v-153l-11 -11h-553v-606h800l11 -12v-151l-11 -11h-962z" />
<glyph unicode="F" horiz-adv-x="1178" d="M194 11v1554l11 12h894l12 -12v-150l-12 -11h-732v-449h553l11 -11v-153l-11 -11h-553v-769l-11 -11h-151z" />
<glyph unicode="G" horiz-adv-x="1736" d="M126 789q0 111 30 217t84.5 196.5t132.5 166t172 129t206 83t231 29.5q369 0 564 -146v-198l-12 -11q-195 173 -552 173q-139 0 -261.5 -50t-209 -135.5t-137 -203.5t-50.5 -250q0 -134 52 -253t140.5 -204t213 -134.5t263.5 -49.5q67 0 135.5 11t138.5 34t128 57v440 h-357l-11 11v153l11 11h518l12 -11v-708q-124 -91 -271 -135.5t-304 -44.5q-119 0 -232 29t-208 81.5t-174.5 128t-135 165.5t-86.5 197.5t-31 221.5z" />
<glyph unicode="H" horiz-adv-x="1641" d="M194 11v1554l11 12h151l11 -12v-610h908v610l11 12h152l11 -12v-1554l-11 -11h-152l-11 11v769h-908v-769l-11 -11h-151z" />
<glyph unicode="I" horiz-adv-x="559" d="M194 11v1554l11 12h151l11 -12v-1554l-11 -11h-151z" />
<glyph unicode="J" horiz-adv-x="1049" d="M43 262l137 67h20q55 -181 230 -181q253 0 253 327v1090l11 12h151l11 -12v-1148q0 -207 -116.5 -329t-309.5 -122q-145 0 -245 75.5t-142 220.5z" />
<glyph unicode="K" horiz-adv-x="1410" d="M194 11v1554l11 12h151l11 -12v-563l671 563l24 12h217l12 -12l-800 -664l883 -890l-11 -11h-219l-22 11l-755 769v-769l-11 -11h-151z" />
<glyph unicode="L" horiz-adv-x="1191" d="M194 9v1559l8 9h157l8 -9v-1394h734l10 -12v-153l-10 -9h-899z" />
<glyph unicode="M" horiz-adv-x="1911" d="M194 11v1554l11 12h141l24 -12l585 -722l586 722l22 12h144l12 -12v-1554l-12 -11h-151l-10 11v1305l-579 -714h-23l-577 714v-1305l-11 -11h-151z" />
<glyph unicode="N" horiz-adv-x="1731" d="M194 11v1554l11 12h160l22 -12l978 -1288v1288l11 12h152l11 -12v-1554l-11 -11h-161l-22 11l-978 1289v-1289l-11 -11h-151z" />
<glyph unicode="O" horiz-adv-x="1916" d="M126 788.5q0 111.5 30 218t84 196.5t130.5 166t168 129t199.5 82.5t221 29.5t221 -29.5t199.5 -82.5t168.5 -129t131 -166t84 -196.5t30 -218t-30 -218t-84 -196.5t-131 -166.5t-168.5 -129.5t-199.5 -82.5t-221 -29.5t-221 29.5t-199.5 82.5t-168 129.5t-130.5 166.5 t-84 196.5t-30 218zM324 789q0 -105 32.5 -202.5t91.5 -176.5t137 -138t174.5 -91.5t199.5 -32.5q129 0 246 51t202 136.5t135.5 204t50.5 249t-50.5 249t-135.5 204t-202 136t-245.5 50.5t-246 -50.5t-202.5 -136t-136 -204t-51 -248.5z" />
<glyph unicode="P" horiz-adv-x="1262" d="M194 11v1554l8 12h436q123 0 226 -35.5t173 -98t109 -149.5t39 -187.5t-39 -188t-109 -150.5t-173 -99.5t-226 -36.5h-271v-621l-11 -11h-151zM367 808h271q160 0 253 81.5t93 217.5q0 88 -41.5 155.5t-120 104.5t-184.5 37h-271v-596z" />
<glyph unicode="Q" horiz-adv-x="1916" d="M126 788.5q0 111.5 30 218t84 196.5t130.5 166t168 129t199.5 82.5t221 29.5t221 -29.5t199.5 -82.5t168.5 -129t131 -166t84 -196.5t30 -217.5q0 -142 -46.5 -271.5t-131.5 -235.5l185 -160v-12l-102 -119h-11l-193 169q-105 -92 -245.5 -143t-289.5 -51 q-113 0 -221 29.5t-199.5 82.5t-168 129.5t-130.5 166.5t-84 196.5t-30 218zM324 789q0 -105 32.5 -202.5t91.5 -176.5t137 -138t174.5 -91.5t199.5 -32.5q110 0 209.5 34.5t176.5 99.5l-156 133v11l105 117h11l163 -139q59 78 92 179.5t33 205.5q0 130 -50.5 248.5 t-135.5 204t-202 136t-245.5 50.5t-246 -50.5t-202.5 -136t-136 -204t-51 -248.5z" />
<glyph unicode="R" horiz-adv-x="1387" d="M194 11v1554l11 12h412q230 0 368.5 -120.5t138.5 -316.5q0 -146 -84 -252t-223 -153l535 -724l-11 -11h-204l-11 11l-518 690h-241v-690l-11 -11h-151zM367 877h239q92 0 162.5 29t113 89t42.5 145q0 61 -20.5 110.5t-59.5 83t-96.5 52t-130.5 18.5h-250v-527z" />
<glyph unicode="S" horiz-adv-x="1173" d="M92 293l127 99h22q102 -244 324 -244q127 0 211 89t84 223q0 46 -20 88.5t-45 71t-77 63.5t-86 53.5t-102 52.5q-54 28 -82.5 43t-77.5 44.5t-75.5 51.5t-61 56t-52.5 67t-30.5 76.5t-12.5 91.5q0 107 53.5 197t147 142t204.5 52q130 0 230.5 -64t163.5 -172l-129 -92 h-22q-56 74 -111 110t-132 36q-86 0 -145.5 -59.5t-59.5 -149.5q0 -39 20 -73.5t54.5 -61t81 -53.5t98.5 -51t106.5 -54t106.5 -60.5t98.5 -72t81 -88t54.5 -110t20 -135.5q0 -101 -39 -192.5t-105 -157.5t-157.5 -105t-192.5 -39q-167 0 -289.5 86.5t-183.5 240.5z" />
<glyph unicode="T" horiz-adv-x="1395" d="M67 1415v150l12 12h1239l11 -12v-150l-11 -11h-532v-1393l-10 -11h-154l-12 11v1393h-531z" />
<glyph unicode="U" horiz-adv-x="1731" d="M194 698v867l11 12h151l11 -12v-835q0 -137 38 -248t104.5 -183.5t157.5 -111.5t198 -39t198.5 39t158.5 111.5t105 183.5t38 248v835l11 12h152l11 -12v-867q0 -169 -51.5 -308t-142 -231.5t-214 -142.5t-266.5 -50q-96 0 -183 22.5t-161.5 64.5t-135 106t-103 144 t-65.5 181t-23 214z" />
<glyph unicode="V" horiz-adv-x="1461" d="M36 1565l11 12h167l12 -12l504 -1320l506 1320l12 12h167l11 -12l-606 -1554l-12 -11h-157l-11 11z" />
<glyph unicode="W" horiz-adv-x="2182" d="M36 1565l11 12h167l12 -12l391 -1288l379 1266l10 11h168l11 -11l378 -1266l395 1288l11 12h167l11 -12l-485 -1554l-11 -11h-166l-12 11l-383 1244l-383 -1244l-11 -11h-165l-11 11z" />
<glyph unicode="X" horiz-adv-x="1582" d="M36 11l644 818l-583 736l11 12h199l22 -12l462 -589l462 589l22 12h200l12 -12l-584 -736l645 -818l-11 -11h-198l-23 11l-525 672l-523 -672l-23 -11h-198z" />
<glyph unicode="Y" horiz-adv-x="1416" d="M36 1565l11 12h192l23 -12l445 -578l451 578l20 12h192l10 -12l-585 -742v-812l-11 -11h-152l-10 11v812z" />
<glyph unicode="Z" horiz-adv-x="1382" d="M36 11l951 1393h-873l-11 11v150l11 12h1191l11 -12l-953 -1391h953l11 -14v-149l-11 -11h-1269z" />
<glyph unicode="[" horiz-adv-x="699" d="M129 -574v2184l11 12h448l12 -12v-150l-12 -11h-287v-1861h287l12 -12v-150l-12 -11h-448z" />
<glyph unicode="\" horiz-adv-x="695" d="M36 1565l11 12h151l11 -12l451 -2117l-11 -11h-151l-12 11z" />
<glyph unicode="]" horiz-adv-x="699" d="M103 -424l11 12h284v1861h-284l-11 11v150l11 12h447l11 -12v-2184l-11 -11h-447l-11 11v150z" />
<glyph unicode="^" horiz-adv-x="1195" d="M180 688l340 877l11 12h136l11 -12l338 -877l-12 -13h-166l-11 13l-227 651l-230 -651l-11 -13h-168z" />
<glyph unicode="_" horiz-adv-x="1126" d="M90 -148l11 10h924l11 -10v-153l-11 -13h-924l-11 13v153z" />
<glyph unicode="`" horiz-adv-x="1373" d="M324 1498l9 11h198l23 -11l311 -326l-11 -12h-153l-23 12z" />
<glyph unicode="a" horiz-adv-x="1123" d="M103 264q0 64 19.5 118t53.5 93.5t84.5 71.5t106.5 53t126.5 36t138.5 23.5t148 13.5q0 128 -67.5 191.5t-187.5 63.5q-62 0 -119 -13t-111 -37.5t-117 -64.5l-11 12l78 198q137 69 286 69q201 0 311.5 -113t110.5 -337v-631l-11 -11h-151l-11 11v56q-42 -31 -96 -54 t-109 -35t-104 -12q-75 0 -140 18t-116.5 53.5t-81.5 94t-30 132.5zM286 279q0 -73 53.5 -110.5t146.5 -37.5q73 0 149.5 26t144.5 71v297q-111 -6 -199.5 -23.5t-155.5 -47t-103 -74t-36 -101.5z" />
<glyph unicode="b" horiz-adv-x="1371" d="M194 11v1554l11 12h151l11 -12v-594q60 56 144 88.5t179 32.5q115 0 218 -44t177 -119t117.5 -179.5t43.5 -220.5t-43.5 -220.5t-117.5 -179.5t-177 -119t-218 -44q-94 0 -178.5 33t-144.5 89v-77l-11 -11h-151zM367 286q61 -76 143.5 -115.5t179.5 -39.5q105 0 191 51.5 t134.5 143t48.5 203.5t-48.5 203.5t-134.5 143.5t-191 52q-63 0 -123 -20t-109 -54t-91 -82v-486z" />
<glyph unicode="c" horiz-adv-x="1161" d="M120 529q0 116 42 219.5t116.5 179.5t183.5 120t236 44q210 0 361 -112v-178l-12 -11q-57 48 -114 78.5t-114.5 44.5t-120.5 14q-115 0 -206.5 -53t-141 -144t-49.5 -202t49.5 -201.5t141 -143.5t206.5 -53q95 0 180 33t169 104l12 -12v-177q-152 -113 -361 -113 q-127 0 -236 44.5t-183.5 120.5t-116.5 179t-42 219z" />
<glyph unicode="d" horiz-adv-x="1365" d="M120 529.5q0 116.5 43 220.5t117 179t177 119t218 44q93 0 178.5 -32.5t144.5 -88.5v594l12 12h150l12 -12v-1554l-12 -11h-150l-12 11v77q-60 -56 -145 -89t-178 -33q-115 0 -218 44t-177 119t-117 179.5t-43 221zM301 529q0 -112 48.5 -203.5t134.5 -143t191 -51.5 q96 0 179 39.5t144 115.5v486q-64 72 -147.5 114t-175.5 42q-105 0 -191 -52t-134.5 -143.5t-48.5 -203.5z" />
<glyph unicode="e" horiz-adv-x="1223" d="M120 538q0 114 38 215.5t106.5 176.5t169 118.5t219.5 43.5q87 0 162 -28.5t130 -79t95 -117.5t60 -145t20 -161q0 -31 -11 -56l-23 -11h-789q7 -77 39 -143.5t83.5 -115t123.5 -76.5t155 -28q108 0 215 45.5t188 124.5l12 -11v-178q-50 -37 -110 -68t-143 -54.5 t-162 -23.5q-122 0 -230 45.5t-184 122.5t-120 182.5t-44 221.5zM304 632h642q-8 127 -91 211.5t-202 84.5q-140 0 -233 -83.5t-116 -212.5z" />
<glyph unicode="f" horiz-adv-x="875" d="M58 896v153l11 10h170v93q0 209 106.5 333.5t294.5 124.5q58 0 99.5 -9.5t92.5 -35.5v-170l-12 -12q-49 37 -88.5 50t-91.5 13q-107 0 -167.5 -79.5t-60.5 -226.5v-81h408l12 -12v-151l-12 -10h-408v-875l-10 -11h-152l-11 11v875h-170z" />
<glyph unicode="g" horiz-adv-x="1139" d="M43 -268q0 48 20.5 94.5t60 88.5t81.5 76t99 72q-110 64 -110 158q0 40 22.5 81.5t62.5 71.5q-137 124 -137 301q0 114 57 210t156 151.5t215 55.5q83 0 169 -33h336l11 -12v-151l-11 -10h-151q74 -92 74 -211q0 -87 -32 -163.5t-87.5 -132t-135.5 -87.5t-173 -32 q-108 0 -181 41q-26 -26 -26 -56q0 -23 20.5 -41.5t56 -32t82 -27.5t99.5 -26.5t109 -30t108.5 -37t99.5 -49t82.5 -64.5t56 -84.5t20.5 -108.5q0 -149 -137 -245t-369 -96q-122 0 -219 18t-172 55.5t-116 102.5t-41 153zM226 -268q0 -171 365 -171q156 0 239.5 52t83.5 131 q0 34 -17.5 63.5t-50 51.5t-69.5 40.5t-85.5 33.5t-88 26t-85.5 23t-71 20q-35 -20 -70 -47t-71 -62.5t-58 -78t-22 -82.5zM316 675.5q0 -106.5 74 -182.5t180 -76t179.5 75.5t73.5 182.5t-73.5 183.5t-179.5 76.5t-180 -76.5t-74 -183z" />
<glyph unicode="h" d="M194 11v1554l11 12h151l11 -12v-594q44 37 95 64t110 42t118 15q245 0 367.5 -132.5t122.5 -376.5v-572l-11 -11h-150l-13 11v561q0 173 -77.5 264.5t-238.5 91.5q-96 0 -185 -43t-138 -113v-761l-11 -11h-151z" />
<glyph unicode="i" horiz-adv-x="559" d="M155 1309v22l113 113h22l114 -113v-22l-114 -113h-22zM194 11v1036l11 12h151l11 -12v-1036l-11 -11h-151z" />
<glyph unicode="j" horiz-adv-x="559" d="M-58 -421l11 11q45 -22 97 -22q25 0 44.5 5t39 20.5t32 41.5t20.5 70.5t8 105.5v1236l11 12h151l11 -12v-1230q0 -211 -75.5 -312.5t-226.5 -101.5q-76 0 -123 23v153zM155 1309v22l113 113h22l114 -113v-22l-114 -113h-22z" />
<glyph unicode="k" horiz-adv-x="1133" d="M194 11v1554l11 12h151l11 -12v-909l450 391l23 12h194l11 -12l-547 -464l599 -572l-11 -11h-194l-22 11l-503 464v-464l-11 -11h-151z" />
<glyph unicode="l" horiz-adv-x="740" d="M172 349v1216l11 12h150l11 -12v-1204q0 -230 156 -230q105 0 194 86l11 -12v-171q-108 -68 -205 -68q-156 0 -242 98t-86 285z" />
<glyph unicode="m" horiz-adv-x="2049" d="M194 11v1036l11 12h151l11 -12v-76q143 121 300 121q131 0 228 -48t150 -134q175 182 385 182q152 0 252.5 -58t148.5 -167t48 -270v-586l-11 -11h-151l-12 11v574q0 114 -29 189.5t-90.5 114.5t-155.5 39q-178 0 -306 -162v-755l-11 -11h-154l-11 11v584q0 163 -70 248 t-211 85q-87 0 -164 -41.5t-136 -114.5v-761l-11 -11h-151z" />
<glyph unicode="n" d="M194 11v1036l11 12h151l11 -12v-76q44 37 95 64t110 42t118 15q245 0 367.5 -132.5t122.5 -376.5v-572l-11 -11h-150l-13 11v561q0 173 -77.5 264.5t-238.5 91.5q-96 0 -185 -43t-138 -113v-761l-11 -11h-151z" />
<glyph unicode="o" d="M120 529.5q0 116.5 43 220.5t117 179t177 119t218 44q93 0 178.5 -28t153.5 -79.5t119 -120.5t78.5 -155.5t27.5 -179.5q0 -116 -43 -220.5t-117 -179.5t-177.5 -119t-219 -44t-218.5 44t-177 119t-117 179.5t-43 221zM301 529q0 -112 48.5 -203.5t134.5 -143 t191.5 -51.5t191.5 51.5t134 143t48 203.5t-48 203.5t-134 143.5t-191.5 52t-191.5 -52t-134.5 -143.5t-48.5 -203.5z" />
<glyph unicode="p" horiz-adv-x="1365" d="M194 -507v1554l11 12h151l11 -12v-76q60 56 144 88.5t179 32.5q115 0 218 -44t177 -119t117.5 -179.5t43.5 -220.5t-43.5 -220.5t-117.5 -179.5t-177 -119t-218 -44q-94 0 -178.5 33t-144.5 89v-595l-11 -11h-151zM367 286q61 -76 143.5 -115.5t179.5 -39.5 q105 0 191 51.5t134.5 143t48.5 203.5t-48.5 203.5t-134.5 143.5t-191 52q-63 0 -123 -20t-109 -54t-91 -82v-486z" />
<glyph unicode="q" horiz-adv-x="1371" d="M126 529q0 78 20 151.5t55 135t86 113.5t112 87.5t134 55.5t150 20q93 0 177.5 -32.5t143.5 -88.5v76l12 12h151l11 -12v-1554l-11 -11h-151l-12 11v595q-59 -56 -143.5 -89t-177.5 -33q-115 0 -218.5 44t-177.5 119t-117.5 179.5t-43.5 220.5zM309 529 q0 -112 48.5 -203.5t134 -143t191.5 -51.5q193 0 321 155v486q-25 28 -53 52t-59.5 43.5t-64.5 33t-70 20.5t-74 7q-106 0 -191.5 -52t-134 -143.5t-48.5 -203.5z" />
<glyph unicode="r" horiz-adv-x="970" d="M194 11v1036l11 12h151l11 -12v-76q66 56 153.5 88.5t175.5 32.5q118 0 207 -45l11 -173l-11 -12q-85 66 -207 66q-96 0 -188 -43.5t-141 -112.5v-761l-11 -11h-151z" />
<glyph unicode="s" horiz-adv-x="1051" d="M126 786q0 132 107.5 219t273.5 87q204 0 349 -90v-170l-11 -12q-159 108 -338 108q-89 0 -143.5 -40.5t-54.5 -101.5q0 -35 22 -61t59 -42.5t85 -29.5t101 -25.5t106 -28t101 -40t84.5 -58t58.5 -85.5t22 -119q0 -142 -118.5 -236.5t-307.5 -94.5q-106 0 -211.5 25.5 t-179.5 73.5v171l11 12q178 -117 380 -117q122 0 183 44t61 122q0 38 -22 67t-59 47t-85 32t-101 27t-106 28.5t-101 39t-85 55t-59 81t-22 112.5z" />
<glyph unicode="t" horiz-adv-x="909" d="M58 896v151l11 12h181v259l12 11h150l12 -13v-257h430l11 -12v-151l-11 -10h-430v-482q0 -73 15.5 -127t43 -85t61.5 -46t73 -15q129 0 237 76l11 -11v-162q-48 -29 -118.5 -48.5t-129.5 -19.5q-174 0 -270.5 109t-96.5 317v494h-181z" />
<glyph unicode="u" d="M172 475v572l11 12h150l11 -12v-561q0 -114 33.5 -192.5t105 -120.5t179.5 -42q96 0 185 42.5t137 112.5v761l12 12h150l12 -12v-1036l-12 -11h-150l-12 11v77q-66 -56 -150 -89t-172 -33q-245 0 -367.5 132.5t-122.5 376.5z" />
<glyph unicode="v" horiz-adv-x="1126" d="M36 1047l11 12h167l12 -12l337 -817l338 817l11 12h167l11 -12l-437 -1036l-11 -11h-158l-11 11z" />
<glyph unicode="w" horiz-adv-x="1788" d="M36 1047l11 12h167l12 -12l324 -808l265 763l12 12h134l13 -12l265 -763l324 808l12 12h169l10 -12l-425 -1036l-11 -11h-158l-12 11l-254 683l-254 -683l-12 -11h-157l-11 11z" />
<glyph unicode="x" horiz-adv-x="1056" d="M36 11l388 539l-366 497l11 12h174l23 -12l261 -359l262 359l22 12h176l11 -12l-366 -497l389 -539l-11 -11h-176l-23 11l-284 393l-284 -393l-22 -11h-174z" />
<glyph unicode="y" horiz-adv-x="1206" d="M36 1047l11 12h174l22 -12l363 -738l355 738l23 12h176l12 -12l-663 -1309q-29 -53 -56 -91.5t-65 -76t-80.5 -60.5t-100.5 -37t-128 -14l-12 16v131l12 11q96 0 163.5 50.5t118.5 149.5l148 307z" />
<glyph unicode="z" horiz-adv-x="1013" d="M58 11l593 875h-539l-9 10v151l11 12h830l11 -12l-592 -873h581l11 -12v-151l-11 -11h-875z" />
<glyph unicode="{" horiz-adv-x="855" d="M103 441v154l11 11q62 0 108 19.5t73 54t40.5 79t13.5 97.5q0 57 -10 161t-10 179q0 86 19 155.5t54.5 120t86.5 84.5t114.5 50t137.5 16l11 -12v-150l-11 -11q-60 0 -105 -18.5t-72 -53t-39.5 -79.5t-12.5 -102q0 -75 9.5 -179t9.5 -161q0 -75 -19 -138.5t-58.5 -114.5 t-97.5 -85q87 -51 131 -138t44 -200q0 -57 -9.5 -160.5t-9.5 -179.5q0 -117 55.5 -184.5t173.5 -67.5l11 -12v-150l-11 -11q-94 0 -169 26t-129.5 77.5t-84 133.5t-29.5 188q0 76 10 179.5t10 160.5q0 54 -13.5 98t-40.5 78.5t-73 54t-108 19.5z" />
<glyph unicode="|" horiz-adv-x="610" d="M219 -664v2229l11 12h151l11 -12v-2229l-11 -11h-151z" />
<glyph unicode="}" horiz-adv-x="855" d="M103 -424l11 12q119 0 174.5 67.5t55.5 184.5q0 76 -10 179.5t-10 160.5q0 113 45 200t131 138q-86 52 -131 138.5t-45 199.5q0 57 10 161t10 179q0 57 -13 102t-39.5 79.5t-71.5 53t-106 18.5l-11 11v150l11 12q192 0 302.5 -107.5t110.5 -318.5q0 -75 -10 -179 t-10 -161q0 -53 13 -97.5t40.5 -79t73.5 -54t107 -19.5l11 -11v-154l-11 -11q-61 0 -107 -19.5t-73.5 -54t-40.5 -78.5t-13 -98q0 -57 10 -160.5t10 -179.5q0 -106 -29.5 -188t-84 -133.5t-130 -77.5t-169.5 -26l-11 11v150z" />
<glyph unicode="~" horiz-adv-x="1195" d="M129 718q49 101 123.5 165.5t164.5 64.5q53 0 112.5 -14.5t106 -31.5t113 -31.5t132.5 -14.5q104 0 176 81l11 -11q-47 -101 -122 -165.5t-166 -64.5q-53 0 -112.5 14.5t-105.5 32t-112.5 32t-131.5 14.5q-106 0 -178 -82z" />
<glyph unicode="&#xa1;" horiz-adv-x="610" d="M169 935v22l113 113h22l113 -113v-22l-113 -112h-22zM207 -271l32 913l11 11h88l11 -11l32 -913v-258l-11 -12h-151l-12 12v258z" />
<glyph unicode="&#xa2;" horiz-adv-x="1195" d="M103 800q0 138 58 255.5t165 196t246 102.5v211l11 12h152l11 -12v-207q179 -15 297 -107v-179l-11 -10q-128 112 -286 129v-783q77 8 144.5 39t141.5 91l11 -11v-178q-117 -91 -297 -110v-228l-11 -11h-152l-11 11v234q-139 23 -246 101.5t-165 196.5t-58 257zM286 800 q0 -139 78 -243t208 -138v761q-86 -22 -151 -77t-100 -133.5t-35 -169.5z" />
<glyph unicode="&#xa3;" horiz-adv-x="1326" d="M60 11q65 53 115 158t77 218.5t38 234.5h-189l-11 10l58 154l12 12h137q5 164 22 288t49.5 225.5t83 166t124 98.5t170.5 34q96 0 167.5 -43.5t135.5 -136.5l-112 -177h-11q-14 39 -30 69.5t-39.5 61t-55.5 46.5t-71 16q-129 0 -183 -146.5t-67 -501.5h401l11 -12 l-58 -154l-11 -10h-352q-4 -54 -12.5 -109t-19.5 -104.5t-25 -93.5t-30 -80t-33 -61h928l12 -12l-85 -155l-21 -7h-1112z" />
<glyph unicode="&#xa4;" horiz-adv-x="1195" d="M69 394v23l127 124q-90 120 -90 270q0 160 99 281l-136 136v23l103 99h22l139 -140q125 72 255 72q143 0 266 -83l150 151h23l99 -99v-23l-146 -147q88 -125 88 -270q0 -142 -81 -257l139 -137v-23l-99 -99h-23l-137 135q-128 -90 -279 -90q-150 0 -268 81l-126 -126h-22 zM273 810.5q0 -84.5 42.5 -156.5t115 -114t157.5 -42q130 0 221.5 92t91.5 221q0 84 -41.5 156.5t-113.5 114.5t-157.5 42t-158.5 -42t-115 -114.5t-42 -157z" />
<glyph unicode="&#xa5;" horiz-adv-x="1195" d="M60 1565l13 12h166l23 -12l338 -604l335 607l22 9h167l11 -12l-394 -677h293l11 -11v-154l-11 -11h-349v-185h349l11 -11v-153l-11 -12h-349v-340l-12 -11h-151l-10 11v340h-350l-11 12v153l11 11h350v185h-350l-11 11v154l11 11h296z" />
<glyph unicode="&#xa6;" horiz-adv-x="610" d="M219 340l11 11h151l11 -11v-1004l-11 -11h-151l-11 11v1004zM219 561v1004l11 12h151l11 -12v-1004l-11 -11h-151z" />
<glyph unicode="&#xa7;" horiz-adv-x="1211" d="M110 802q0 110 47.5 207t130.5 163q-9 39 -9 74q0 82 29.5 151t79.5 115.5t115 72t137 25.5q85 0 157.5 -29.5t125 -79.5t93.5 -121l-135 -92h-16q-38 51 -67 78.5t-68 44.5t-90 17q-73 0 -121 -49.5t-48 -132.5q0 -42 21.5 -78.5t58.5 -64.5t85 -54t101 -53t106 -57 t100.5 -70.5t84.5 -88.5t59 -115t22 -147q0 -110 -43 -205t-120 -162q11 -33 11 -63q0 -56 -14 -107.5t-39.5 -94.5t-61.5 -78.5t-80 -60t-95 -38t-106 -13.5q-158 0 -266.5 75t-168.5 222l136 99h15q35 -77 74.5 -123.5t90 -68.5t119.5 -22q87 0 146 59.5t59 150.5 q0 37 -18.5 68.5t-50 55t-73.5 48t-89 45.5t-97 48t-97 54.5t-89 67.5t-73.5 85t-50 107t-18.5 135zM309 802q0 -61 28.5 -112t72.5 -85.5t104.5 -69t118.5 -61.5t120.5 -65.5t104.5 -77.5q52 82 52 187q0 46 -16 86.5t-42.5 70.5t-64 58.5t-78 50.5t-86.5 47t-88 47.5 t-85 53t-74 61.5q-67 -81 -67 -191z" />
<glyph unicode="&#xa8;" d="M314 1309v22l103 105h22l104 -105v-22l-104 -106h-22zM808 1309v22l104 105h23l103 -105v-22l-103 -106h-23z" />
<glyph unicode="&#xa9;" horiz-adv-x="1826" d="M103 789q0 99 22 194t62.5 176t96.5 151.5t126.5 125.5t150.5 94t170 59.5t183 20.5t183 -20.5t170 -59.5t150.5 -94t127 -125.5t97 -151.5t62.5 -176t22 -194q0 -116 -30 -225t-83 -199t-128.5 -165t-165 -126t-193 -79.5t-212 -28.5t-212.5 28.5t-193 79.5t-164.5 126 t-128.5 165t-83 199t-30 225zM271 789q0 -110 32.5 -213t92 -186t138.5 -145t177.5 -96.5t202.5 -34.5q129 0 248.5 53.5t206 144t138.5 215.5t52 261.5t-52 261.5t-138.5 215t-206 143.5t-248.5 53.5q-130 0 -249.5 -53.5t-205.5 -143.5t-137 -214.5t-51 -261.5zM498 800 q0 87 35 166t93.5 136.5t140 91.5t170.5 34q51 0 102 -10t94.5 -28t74.5 -42v-161l-12 -11q-104 94 -259 94q-113 0 -193 -79.5t-80 -191t80 -191t193 -79.5q142 0 259 107l12 -17v-157q-51 -38 -124 -64t-147 -26q-119 0 -220.5 57t-160 155.5t-58.5 215.5z" />
<glyph unicode="&#xaa;" horiz-adv-x="925" d="M92 1250.5q0 97.5 50 180.5t136 131t186 48q108 0 185 -62v40l11 11h151l12 -11v-676l-12 -11h-151l-11 11v41q-77 -63 -185 -63q-100 0 -186 48.5t-136 131.5t-50 180.5zM114 632v154l12 12h699l11 -12v-154l-11 -10h-699zM266 1251q0 -85 56.5 -144.5t141.5 -59.5 q25 0 50.5 7t50 20.5t46.5 36t38 49.5v179q-31 55 -81.5 84.5t-103.5 29.5q-85 0 -141.5 -58.5t-56.5 -143.5z" />
<glyph unicode="&#xab;" horiz-adv-x="1015" d="M58 518v23l440 439l11 -11v-210l-236 -230l236 -230v-209l-11 -11zM464 518v23l439 439l11 -11v-210l-236 -230l236 -230v-209l-11 -11z" />
<glyph unicode="&#xac;" horiz-adv-x="1195" d="M160 772v152l12 11h855l11 -11v-530l-11 -11h-150l-12 11v367h-693z" />
<glyph unicode="&#xad;" horiz-adv-x="925" d="M103 453v153l11 11h699l12 -11v-153l-12 -12h-699z" />
<glyph unicode="&#xae;" horiz-adv-x="1195" d="M103 1148.5q0 100.5 39.5 192.5t106 158.5t158.5 105.5t192.5 39t192 -39t158 -105.5t105.5 -158.5t39 -192.5t-39 -192t-105.5 -158t-158 -106t-192 -39.5t-192.5 39.5t-158.5 106t-106 158t-39.5 192zM214 1148.5q0 -106.5 52 -197.5t140.5 -143.5t193 -52.5t193 52.5 t140 143.5t51.5 197.5t-51.5 197.5t-140 144t-193 53t-193 -53t-140.5 -144t-52 -197.5zM437 912v485l12 11h157q87 0 141.5 -46t54.5 -128q0 -30 -8.5 -55.5t-24 -43t-33 -29.5t-38.5 -20l127 -174l-12 -11h-95l-22 11l-101 150h-57v-150l-11 -11h-78zM538 1163h68 q37 0 61.5 18.5t24.5 52.5q0 35 -24 54t-62 19h-68v-144z" />
<glyph unicode="&#xaf;" d="M316 1243v152l11 11h698l11 -11v-152l-11 -11h-698z" />
<glyph unicode="&#xb0;" horiz-adv-x="925" d="M92 1272.5q0 97.5 50 180.5t136 132t186.5 49t186 -49t135.5 -132t50 -180.5t-50 -180.5t-135.5 -131.5t-186 -48.5t-186.5 48.5t-136 131.5t-50 180.5zM266 1272.5q0 -82.5 58.5 -142.5t139.5 -60q53 0 98.5 27.5t71.5 74.5t26 101q0 82 -57.5 142t-138.5 60t-139.5 -60 t-58.5 -142.5z" />
<glyph unicode="&#xb1;" horiz-adv-x="1195" d="M160 36v153l12 11h855l11 -11v-153l-11 -11h-855zM160 746v153l12 11h340v341l10 11h151l12 -11v-341h342l11 -11v-153l-11 -11h-342v-341l-12 -11h-151l-10 11v341h-340z" />
<glyph unicode="&#xb2;" horiz-adv-x="705" d="M65 1002l273 428q90 149 90 253q0 34 -10 62t-27.5 46t-41 28t-50.5 10q-39 0 -71 -10t-58 -31t-43.5 -41t-40.5 -53l-11 11v163q51 49 104.5 76t119.5 27q116 0 198 -81t82 -207q0 -134 -110 -318l-140 -232h262l11 -11v-120l-11 -11h-514z" />
<glyph unicode="&#xb3;" horiz-adv-x="744" d="M58 1104l86 104h13q88 -109 194 -109q73 0 126.5 54t53.5 129q0 81 -50.5 130.5t-144.5 49.5q-49 0 -113 -22l-11 11l212 344h-347l-12 11v120l12 11h559l11 -11l-198 -346q76 -20 128 -59.5t79 -99.5t27 -139q0 -88 -46 -163t-122.5 -118.5t-163.5 -43.5 q-52 0 -103 15.5t-101 49t-89 82.5z" />
<glyph unicode="&#xb4;" d="M486 1172l312 326l22 11h199l8 -11l-354 -326l-22 -12h-153z" />
<glyph unicode="&#xb5;" horiz-adv-x="1365" d="M194 -507v1554l11 12h167l11 -12v-583q0 -165 82 -249t227 -84q101 0 193.5 42t155.5 113q-11 176 -11 503v258l11 12h150l12 -12v-258q2 -288 13.5 -461.5t43.5 -316.5l-12 -11h-154l-10 11q-4 18 -8.5 52.5t-7.5 53.5q-83 -74 -182 -112.5t-194 -38.5q-99 0 -179 28 t-130 81v-582l-11 -11h-167z" />
<glyph unicode="&#xb6;" horiz-adv-x="1395" d="M103 1092q0 101 40.5 190t111.5 154.5t172 103t218 37.5h549l9 -12v-1554l-12 -11h-150l-11 11v1393h-232v-1393l-12 -11h-150l-12 11v597q-117 6 -215 46t-165 104.5t-104 150.5t-37 183z" />
<glyph unicode="&#xb7;" horiz-adv-x="610" d="M212 733v163l11 12h164l11 -12v-163l-11 -13h-164z" />
<glyph unicode="&#xb8;" d="M404 -453l71 90h11q57 -63 124 -63q51 0 82 28t31 69q0 48 -39.5 79t-120.5 20l-11 11l61 219h133l-28 -129q69 -25 108 -75t39 -125q0 -93 -74 -158t-181 -65q-62 0 -118.5 26.5t-87.5 72.5z" />
<glyph unicode="&#xb9;" horiz-adv-x="526" d="M207 1002v821l12 22l119 104l11 -12v-935l-11 -11h-119z" />
<glyph unicode="&#xba;" horiz-adv-x="925" d="M92 1250.5q0 97.5 50 180.5t136 131t186.5 48t186 -48t135.5 -131t50 -180.5t-50 -180.5t-135.5 -131.5t-186 -48.5t-186.5 48.5t-136 131.5t-50 180.5zM114 632v154l12 12h699l11 -12v-154l-11 -10h-699zM266 1250.5q0 -82.5 58.5 -143t139.5 -60.5t138.5 60.5 t57.5 143.5q0 54 -26 100.5t-71.5 74t-98.5 27.5q-81 0 -139.5 -60t-58.5 -142.5z" />
<glyph unicode="&#xbb;" horiz-adv-x="1015" d="M103 90v209l237 230l-237 230v210l11 11l440 -439v-23l-440 -439zM509 90v209l237 230l-237 230v210l11 11l439 -439v-23l-439 -439z" />
<glyph unicode="&#xbc;" horiz-adv-x="1826" d="M241 642v820l11 23l120 103l11 -11v-935l-11 -12h-120zM297 11l881 1554l23 12h160l11 -12l-884 -1554l-22 -11h-157zM939 282l617 685l12 -12v-543h176l10 -10v-120l-10 -11h-176v-260l-12 -11h-118l-12 11v260h-476zM1223 412h203v235z" />
<glyph unicode="&#xbd;" horiz-adv-x="1826" d="M241 642v820l11 23l120 103l11 -11v-935l-11 -12h-120zM284 11l881 1554l22 12h161l10 -12l-883 -1554l-22 -11h-158zM1146 11l273 428q90 149 90 253q0 67 -36 106.5t-93 39.5q-31 0 -59 -7.5t-48 -18.5t-40.5 -30.5t-34 -36t-31.5 -42.5l-11 11v163q51 49 105 76 t119 27q116 0 198 -81t82 -207q0 -134 -110 -318l-140 -232h262l11 -11v-120l-11 -11h-514z" />
<glyph unicode="&#xbe;" horiz-adv-x="1826" d="M97 741l86 104h13q89 -106 189 -106q74 0 128.5 54.5t54.5 130.5q0 80 -51.5 128.5t-146.5 48.5q-46 0 -110 -22l-12 11l212 346h-350l-7 8v124l7 9h561l12 -12l-201 -346q114 -29 175 -103.5t61 -191.5q0 -66 -27 -127t-72.5 -104.5t-106.5 -69.5t-127 -26 q-81 0 -156.5 36.5t-131.5 107.5zM406 11l882 1554l23 12h157l13 -12l-881 -1554l-24 -11h-159zM939 282l617 685l12 -12v-543h176l10 -10v-120l-10 -11h-176v-260l-12 -11h-118l-12 11v260h-476zM1223 412h203v235z" />
<glyph unicode="&#xbf;" horiz-adv-x="993" d="M103 -187q0 57 17 110.5t44 95.5t62 83t71 74t71 67t62 63t44 62t17 64q0 54 -19 83.5t-66 67.5l108 113q27 -17 52 -40t51.5 -56t42 -77t15.5 -91q0 -45 -16.5 -88.5t-44 -78t-62.5 -71t-71.5 -68t-71.5 -68.5t-62.5 -72.5t-44 -80.5t-16.5 -92q0 -92 64 -153.5 t157 -61.5q178 0 286 195h11l120 -86q-40 -85 -100 -147.5t-141.5 -98t-175.5 -35.5q-115 0 -207.5 51t-144.5 139.5t-52 196.5zM394 935v22l113 113h22l113 -113v-22l-113 -112h-22z" />
<glyph unicode="&#xc0;" horiz-adv-x="1507" d="M36 11l626 1554l11 12h159l11 -12l628 -1554l-11 -11h-166l-12 11l-169 413h-721l-166 -413l-12 -11h-167zM381 1960l8 11h219l22 -11l312 -281l-11 -11h-168l-22 11zM462 597h583l-293 742z" />
<glyph unicode="&#xc1;" horiz-adv-x="1507" d="M36 11l626 1554l11 12h159l11 -12l628 -1554l-11 -11h-166l-12 11l-169 413h-721l-166 -413l-12 -11h-167zM462 597h583l-293 742zM565 1679l312 281l22 11h219l8 -11l-360 -281l-22 -11h-168z" />
<glyph unicode="&#xc2;" horiz-adv-x="1507" d="M36 11l626 1554l11 12h159l11 -12l628 -1554l-11 -11h-166l-12 11l-169 413h-721l-166 -413l-12 -11h-167zM376 1679l271 281l22 11h167l22 -11l271 -281l-11 -11h-168l-22 11l-176 178l-176 -178l-22 -11h-167zM462 597h583l-293 742z" />
<glyph unicode="&#xc3;" horiz-adv-x="1507" d="M36 11l626 1554l11 12h159l11 -12l628 -1554l-11 -11h-166l-12 11l-169 413h-721l-166 -413l-12 -11h-167zM293 1730q30 64 70.5 111t95 75t115.5 28q53 0 114 -17t108 -37t111.5 -37t124.5 -17q97 0 171 84l11 -12q-48 -98 -119.5 -156t-161.5 -58q-54 0 -115 17 t-108 37t-111 37t-124 17q-98 0 -171 -83zM462 597h583l-293 742z" />
<glyph unicode="&#xc4;" horiz-adv-x="1507" d="M36 11l626 1554l11 12h159l11 -12l628 -1554l-11 -11h-166l-12 11l-169 413h-721l-166 -413l-12 -11h-167zM367 1802v23l115 114h23l117 -114v-23l-117 -115h-23zM462 597h583l-293 742zM886 1802v23l114 114h23l117 -114v-23l-117 -115h-23z" />
<glyph unicode="&#xc5;" horiz-adv-x="1507" d="M36 11l626 1554l11 12h159l11 -12l628 -1554l-11 -11h-166l-12 11l-169 413h-721l-166 -413l-12 -11h-167zM462 597h583l-293 742zM527 1802q0 43 18 82.5t48 68.5t72 46t87 17q93 0 159.5 -63t66.5 -151t-66.5 -151t-159.5 -63t-159 63t-66 151zM638 1801.5 q0 -45.5 34 -78.5t80 -33q49 0 82 33t33 79t-33.5 79.5t-81.5 33.5q-46 0 -80 -34t-34 -79.5z" />
<glyph unicode="&#xc6;" horiz-adv-x="2304" d="M36 11l1172 1554l22 12h906l11 -12v-150l-11 -11h-732v-449h552l11 -11v-153l-11 -11h-552v-606h799l11 -12v-151l-11 -11h-962l-11 11v413h-660l-308 -413l-23 -11h-192zM701 597h529v699z" />
<glyph unicode="&#xc7;" horiz-adv-x="1646" d="M126 789q0 111 30 217t83.5 196t130.5 166.5t168 129.5t199.5 82.5t221.5 29.5q308 0 541 -168v-199l-11 -11q-113 94 -250 145t-280 51q-128 0 -245.5 -50.5t-203 -135.5t-136 -203.5t-50.5 -249.5t50.5 -250t136 -204.5t203 -136t245.5 -50.5q143 0 280 51t250 145 l11 -11v-198q-234 -169 -541 -169q-97 0 -191 21.5t-176 62.5t-154.5 97.5t-129 128t-97.5 152.5t-63 173t-22 188zM825 -518l63 372l22 11h154l11 -11l-108 -372l-12 -11h-119z" />
<glyph unicode="&#xc8;" horiz-adv-x="1268" d="M194 11v1554l11 12h894l12 -12v-150l-12 -11h-732v-449h553l11 -11v-153l-11 -11h-553v-606h800l11 -12v-151l-11 -11h-962zM307 1960l9 11h218l23 -11l310 -281l-11 -11h-166l-23 11z" />
<glyph unicode="&#xc9;" horiz-adv-x="1268" d="M194 11v1554l11 12h894l12 -12v-150l-12 -11h-732v-449h553l11 -11v-153l-11 -11h-553v-606h800l11 -12v-151l-11 -11h-962zM491 1679l311 281l23 11h218l9 -11l-360 -281l-23 -11h-166z" />
<glyph unicode="&#xca;" horiz-adv-x="1268" d="M194 11v1554l11 12h894l12 -12v-150l-12 -11h-732v-449h553l11 -11v-153l-11 -11h-553v-606h800l11 -12v-151l-11 -11h-962zM301 1679l271 281l23 11h166l23 -11l270 -281l-11 -11h-166l-23 11l-176 178l-175 -178l-23 -11h-166z" />
<glyph unicode="&#xcb;" horiz-adv-x="1268" d="M194 11v1554l11 12h894l12 -12v-150l-12 -11h-732v-449h553l11 -11v-153l-11 -11h-553v-606h800l11 -12v-151l-11 -11h-962zM293 1802v23l115 114h22l118 -114v-23l-118 -115h-22zM811 1802v23l115 114h22l118 -114v-23l-118 -115h-22z" />
<glyph unicode="&#xcc;" horiz-adv-x="559" d="M-47 1960l9 11h218l22 -11l267 -281l-11 -11h-168l-22 11zM194 11v1554l11 12h151l11 -12v-1554l-11 -11h-151z" />
<glyph unicode="&#xcd;" horiz-adv-x="559" d="M92 1679l267 281l22 11h219l8 -11l-315 -281l-22 -11h-168zM194 11v1554l11 12h151l11 -12v-1554l-11 -11h-151z" />
<glyph unicode="&#xce;" horiz-adv-x="559" d="M-52 1679l226 281l22 11h167l22 -11l225 -281l-10 -11h-168l-22 11l-131 159l-131 -159l-22 -11h-167zM194 11v1554l11 12h151l11 -12v-1554l-11 -11h-151z" />
<glyph unicode="&#xcf;" horiz-adv-x="559" d="M-60 1802v23l114 114h23l117 -114v-23l-117 -115h-23zM194 11v1554l11 12h151l11 -12v-1554l-11 -11h-151zM367 1802v23l115 114h23l117 -114v-23l-117 -115h-23z" />
<glyph unicode="&#xd0;" horiz-adv-x="1634" d="M13 746v153l12 11h169v655l11 12h478q178 0 334 -61.5t265 -167.5t171.5 -251.5t62.5 -308t-62.5 -308t-171.5 -251t-265 -167.5t-334 -62h-478l-11 11v724h-169zM367 174h316q108 0 206.5 30.5t175.5 87t133.5 132t87 169.5t30.5 196q0 127 -48 240.5t-130.5 196 t-201 130.5t-253.5 48h-316v-494h396l13 -11v-153l-13 -11h-396v-561z" />
<glyph unicode="&#xd1;" horiz-adv-x="1731" d="M194 11v1554l11 12h160l22 -12l978 -1288v1288l11 12h152l11 -12v-1554l-11 -11h-161l-22 11l-978 1289v-1289l-11 -11h-151zM451 1730q30 64 70.5 111t95 75t116.5 28q53 0 113.5 -17t107.5 -37t111.5 -37t123.5 -17q98 0 172 84l11 -12q-48 -98 -119.5 -156t-162.5 -58 q-54 0 -115 17t-107.5 37t-111 37t-124.5 17q-97 0 -170 -83z" />
<glyph unicode="&#xd2;" horiz-adv-x="1916" d="M126 788.5q0 111.5 30 218t84 196.5t130.5 166t168 129t199.5 82.5t221 29.5t221 -29.5t199.5 -82.5t168.5 -129t131 -166t84 -196.5t30 -218t-30 -218t-84 -196.5t-131 -166.5t-168.5 -129.5t-199.5 -82.5t-221 -29.5t-221 29.5t-199.5 82.5t-168 129.5t-130.5 166.5 t-84 196.5t-30 218zM324 789q0 -105 32.5 -202.5t91.5 -176.5t137 -138t174.5 -91.5t199.5 -32.5q129 0 246 51t202 136.5t135.5 204t50.5 249t-50.5 249t-135.5 204t-202 136t-245.5 50.5t-246 -50.5t-202.5 -136t-136 -204t-51 -248.5zM585 1960l10 11h218l23 -11 l310 -281l-11 -11h-166l-23 11z" />
<glyph unicode="&#xd3;" horiz-adv-x="1916" d="M126 788.5q0 111.5 30 218t84 196.5t130.5 166t168 129t199.5 82.5t221 29.5t221 -29.5t199.5 -82.5t168.5 -129t131 -166t84 -196.5t30 -218t-30 -218t-84 -196.5t-131 -166.5t-168.5 -129.5t-199.5 -82.5t-221 -29.5t-221 29.5t-199.5 82.5t-168 129.5t-130.5 166.5 t-84 196.5t-30 218zM324 789q0 -105 32.5 -202.5t91.5 -176.5t137 -138t174.5 -91.5t199.5 -32.5q129 0 246 51t202 136.5t135.5 204t50.5 249t-50.5 249t-135.5 204t-202 136t-245.5 50.5t-246 -50.5t-202.5 -136t-136 -204t-51 -248.5zM770 1679l311 281l23 11h218l9 -11 l-360 -281l-23 -11h-166z" />
<glyph unicode="&#xd4;" horiz-adv-x="1916" d="M126 788.5q0 111.5 30 218t84 196.5t130.5 166t168 129t199.5 82.5t221 29.5t221 -29.5t199.5 -82.5t168.5 -129t131 -166t84 -196.5t30 -218t-30 -218t-84 -196.5t-131 -166.5t-168.5 -129.5t-199.5 -82.5t-221 -29.5t-221 29.5t-199.5 82.5t-168 129.5t-130.5 166.5 t-84 196.5t-30 218zM324 789q0 -105 32.5 -202.5t91.5 -176.5t137 -138t174.5 -91.5t199.5 -32.5q129 0 246 51t202 136.5t135.5 204t50.5 249t-50.5 249t-135.5 204t-202 136t-245.5 50.5t-246 -50.5t-202.5 -136t-136 -204t-51 -248.5zM581 1679l270 281l23 11h167l23 -11 l269 -281l-11 -11h-166l-23 11l-176 178l-175 -178l-23 -11h-166z" />
<glyph unicode="&#xd5;" horiz-adv-x="1916" d="M126 788.5q0 111.5 30 218t84 196.5t130.5 166t168 129t199.5 82.5t221 29.5t221 -29.5t199.5 -82.5t168.5 -129t131 -166t84 -196.5t30 -218t-30 -218t-84 -196.5t-131 -166.5t-168.5 -129.5t-199.5 -82.5t-221 -29.5t-221 29.5t-199.5 82.5t-168 129.5t-130.5 166.5 t-84 196.5t-30 218zM324 789q0 -105 32.5 -202.5t91.5 -176.5t137 -138t174.5 -91.5t199.5 -32.5q129 0 246 51t202 136.5t135.5 204t50.5 249t-50.5 249t-135.5 204t-202 136t-245.5 50.5t-246 -50.5t-202.5 -136t-136 -204t-51 -248.5zM498 1730q46 98 118.5 156t163.5 58 q53 0 113.5 -17t107.5 -37t111.5 -37t123.5 -17q98 0 172 84l11 -12q-48 -98 -119.5 -156t-162.5 -58q-53 0 -114 17t-108 37t-111.5 37t-123.5 17q-98 0 -171 -83z" />
<glyph unicode="&#xd6;" horiz-adv-x="1916" d="M126 788.5q0 111.5 30 218t84 196.5t130.5 166t168 129t199.5 82.5t221 29.5t221 -29.5t199.5 -82.5t168.5 -129t131 -166t84 -196.5t30 -218t-30 -218t-84 -196.5t-131 -166.5t-168.5 -129.5t-199.5 -82.5t-221 -29.5t-221 29.5t-199.5 82.5t-168 129.5t-130.5 166.5 t-84 196.5t-30 218zM324 789q0 -105 32.5 -202.5t91.5 -176.5t137 -138t174.5 -91.5t199.5 -32.5q129 0 246 51t202 136.5t135.5 204t50.5 249t-50.5 249t-135.5 204t-202 136t-245.5 50.5t-246 -50.5t-202.5 -136t-136 -204t-51 -248.5zM572 1802v23l116 114h22l117 -114 v-23l-117 -115h-22zM1090 1802v23l116 114h22l117 -114v-23l-117 -115h-22z" />
<glyph unicode="&#xd7;" horiz-adv-x="1195" d="M198 520v23l279 280l-279 278v23l99 99h23l280 -279l277 279h22l101 -99v-23l-280 -278l280 -280v-23l-101 -99h-22l-277 280l-280 -280h-23z" />
<glyph unicode="&#xd8;" horiz-adv-x="1916" d="M77 36v11l230 230q-86 107 -133.5 238t-47.5 274q0 111 30 217.5t84 196.5t130.5 166t168 129t199.5 82.5t221 29.5q143 0 275 -47t241 -133l244 244h11l110 -111v-11l-241 -241q92 -109 143 -243t51 -279q0 -112 -30 -218.5t-84 -196.5t-131 -166.5t-168.5 -129.5 t-199.5 -82.5t-221 -29.5q-148 0 -283 49.5t-246 139.5l-230 -230h-11zM324 789q0 -211 125 -377l892 886q-53 41 -114 70t-129.5 44.5t-138.5 15.5q-128 0 -245.5 -50.5t-202.5 -136t-136 -204t-51 -248.5zM565 288q172 -140 394 -140q129 0 246 51t202 136.5t135.5 204 t50.5 249.5q0 106 -35 205t-98 180z" />
<glyph unicode="&#xd9;" horiz-adv-x="1731" d="M194 698v867l11 12h151l11 -12v-835q0 -137 38 -248t104.5 -183.5t157.5 -111.5t198 -39t198.5 39t158.5 111.5t105 183.5t38 248v835l11 12h152l11 -12v-867q0 -169 -51.5 -308t-142 -231.5t-214 -142.5t-266.5 -50q-96 0 -183 22.5t-161.5 64.5t-135 106t-103 144 t-65.5 181t-23 214zM494 1960l9 11h217l24 -11l310 -281l-11 -11h-166l-23 11z" />
<glyph unicode="&#xda;" horiz-adv-x="1731" d="M194 698v867l11 12h151l11 -12v-835q0 -137 38 -248t104.5 -183.5t157.5 -111.5t198 -39t198.5 39t158.5 111.5t105 183.5t38 248v835l11 12h152l11 -12v-867q0 -169 -51.5 -308t-142 -231.5t-214 -142.5t-266.5 -50q-96 0 -183 22.5t-161.5 64.5t-135 106t-103 144 t-65.5 181t-23 214zM678 1679l311 281l23 11h218l9 -11l-360 -281l-23 -11h-166z" />
<glyph unicode="&#xdb;" horiz-adv-x="1731" d="M194 698v867l11 12h151l11 -12v-835q0 -137 38 -248t104.5 -183.5t157.5 -111.5t198 -39t198.5 39t158.5 111.5t105 183.5t38 248v835l11 12h152l11 -12v-867q0 -169 -51.5 -308t-142 -231.5t-214 -142.5t-266.5 -50q-96 0 -183 22.5t-161.5 64.5t-135 106t-103 144 t-65.5 181t-23 214zM488 1679l271 281l23 11h166l23 -11l270 -281l-11 -11h-166l-23 11l-176 178l-175 -178l-23 -11h-167z" />
<glyph unicode="&#xdc;" horiz-adv-x="1731" d="M194 698v867l11 12h151l11 -12v-835q0 -137 38 -248t104.5 -183.5t157.5 -111.5t198 -39t198.5 39t158.5 111.5t105 183.5t38 248v835l11 12h152l11 -12v-867q0 -169 -51.5 -308t-142 -231.5t-214 -142.5t-266.5 -50q-96 0 -183 22.5t-161.5 64.5t-135 106t-103 144 t-65.5 181t-23 214zM480 1802v23l115 114h22l118 -114v-23l-118 -115h-22zM998 1802v23l115 114h22l118 -114v-23l-118 -115h-22z" />
<glyph unicode="&#xdd;" horiz-adv-x="1416" d="M36 1565l11 12h192l23 -12l445 -578l451 578l20 12h192l10 -12l-585 -742v-812l-11 -11h-152l-10 11v812zM520 1679l312 281l22 11h218l9 -11l-361 -281l-22 -11h-167z" />
<glyph unicode="&#xde;" horiz-adv-x="1277" d="M194 11v1554l11 12h151l11 -12v-295h284q123 0 225.5 -35.5t172.5 -98t108.5 -149t38.5 -187.5t-38.5 -188t-108.5 -149.5t-172.5 -98t-225.5 -35.5h-284v-318l-11 -11h-151zM367 503h284q160 0 253.5 81t93.5 216q0 88 -41.5 155.5t-120.5 104.5t-185 37h-284v-594z" />
<glyph unicode="&#xdf;" horiz-adv-x="1326" d="M194 11v1141q0 205 113.5 331.5t292.5 126.5q168 0 272 -92.5t104 -242.5q0 -69 -15.5 -127.5t-37.5 -99t-43.5 -76.5t-37 -75t-15.5 -80q0 -34 22 -63t57 -51.5t77 -46t84.5 -54.5t77.5 -69t56.5 -97.5t21.5 -131.5q0 -144 -107.5 -241t-272.5 -97q-162 0 -305 79v174 l12 11q87 -57 153.5 -78t139.5 -21q89 0 143.5 47.5t54.5 125.5q0 39 -17 72.5t-45 56.5t-63.5 47.5t-73 45t-73 49.5t-63 60.5t-44.5 78.5t-17 103q0 52 15 100.5t37 87l44 77t37 84.5t15 94q0 81 -50.5 133.5t-142.5 52.5q-68 0 -120 -34.5t-82.5 -105t-30.5 -166.5v-1129 l-11 -11h-151z" />
<glyph unicode="&#xe0;" horiz-adv-x="1123" d="M103 264q0 64 19.5 118t53.5 93.5t84.5 71.5t106.5 53t126.5 36t138.5 23.5t148 13.5q0 128 -67.5 191.5t-187.5 63.5q-62 0 -119 -13t-111 -37.5t-117 -64.5l-11 12l78 198q137 69 286 69q201 0 311.5 -113t110.5 -337v-631l-11 -11h-151l-11 11v56q-42 -31 -96 -54 t-109 -35t-104 -12q-75 0 -140 18t-116.5 53.5t-81.5 94t-30 132.5zM207 1498l10 11h198l22 -11l311 -326l-11 -12h-154l-22 12zM286 279q0 -73 53.5 -110.5t146.5 -37.5q73 0 149.5 26t144.5 71v297q-111 -6 -199.5 -23.5t-155.5 -47t-103 -74t-36 -101.5z" />
<glyph unicode="&#xe1;" horiz-adv-x="1123" d="M103 264q0 64 19.5 118t53.5 93.5t84.5 71.5t106.5 53t126.5 36t138.5 23.5t148 13.5q0 128 -67.5 191.5t-187.5 63.5q-62 0 -119 -13t-111 -37.5t-117 -64.5l-11 12l78 198q137 69 286 69q201 0 311.5 -113t110.5 -337v-631l-11 -11h-151l-11 11v56q-42 -31 -96 -54 t-109 -35t-104 -12q-75 0 -140 18t-116.5 53.5t-81.5 94t-30 132.5zM286 279q0 -73 53.5 -110.5t146.5 -37.5q73 0 149.5 26t144.5 71v297q-111 -6 -199.5 -23.5t-155.5 -47t-103 -74t-36 -101.5zM370 1172l310 326l23 11h198l9 -11l-353 -326l-23 -12h-153z" />
<glyph unicode="&#xe2;" horiz-adv-x="1123" d="M103 264q0 64 19.5 118t53.5 93.5t84.5 71.5t106.5 53t126.5 36t138.5 23.5t148 13.5q0 128 -67.5 191.5t-187.5 63.5q-62 0 -119 -13t-111 -37.5t-117 -64.5l-11 12l78 198q137 69 286 69q201 0 311.5 -113t110.5 -337v-631l-11 -11h-151l-11 11v56q-42 -31 -96 -54 t-109 -35t-104 -12q-75 0 -140 18t-116.5 53.5t-81.5 94t-30 132.5zM183 1172l286 326l22 11h135l23 -11l286 -326l-11 -12h-161l-22 12l-182 206l-183 -206l-22 -12h-160zM286 279q0 -73 53.5 -110.5t146.5 -37.5q73 0 149.5 26t144.5 71v297q-111 -6 -199.5 -23.5 t-155.5 -47t-103 -74t-36 -101.5z" />
<glyph unicode="&#xe3;" horiz-adv-x="1123" d="M103 264q0 64 19.5 118t53.5 93.5t84.5 71.5t106.5 53t126.5 36t138.5 23.5t148 13.5q0 128 -67.5 191.5t-187.5 63.5q-62 0 -119 -13t-111 -37.5t-117 -64.5l-11 12l78 198q137 69 286 69q201 0 311.5 -113t110.5 -337v-631l-11 -11h-151l-11 11v56q-42 -31 -96 -54 t-109 -35t-104 -12q-75 0 -140 18t-116.5 53.5t-81.5 94t-30 132.5zM144 1212q40 97 112.5 155.5t164.5 58.5q52 0 104.5 -17t88.5 -37.5t85.5 -37t95.5 -16.5q92 0 166 83l13 -11q-41 -97 -113.5 -155.5t-164.5 -58.5q-52 0 -104 17t-88.5 37t-85.5 37t-96 17 q-94 0 -167 -83zM286 279q0 -73 53.5 -110.5t146.5 -37.5q73 0 149.5 26t144.5 71v297q-111 -6 -199.5 -23.5t-155.5 -47t-103 -74t-36 -101.5z" />
<glyph unicode="&#xe4;" horiz-adv-x="1123" d="M103 264q0 64 19.5 118t53.5 93.5t84.5 71.5t106.5 53t126.5 36t138.5 23.5t148 13.5q0 128 -67.5 191.5t-187.5 63.5q-62 0 -119 -13t-111 -37.5t-117 -64.5l-11 12l78 198q137 69 286 69q201 0 311.5 -113t110.5 -337v-631l-11 -11h-151l-11 11v56q-42 -31 -96 -54 t-109 -35t-104 -12q-75 0 -140 18t-116.5 53.5t-81.5 94t-30 132.5zM196 1309v22l103 105h23l104 -105v-22l-104 -106h-23zM286 279q0 -73 53.5 -110.5t146.5 -37.5q73 0 149.5 26t144.5 71v297q-111 -6 -199.5 -23.5t-155.5 -47t-103 -74t-36 -101.5zM692 1309v22l103 105 h22l105 -105v-22l-105 -106h-22z" />
<glyph unicode="&#xe5;" horiz-adv-x="1123" d="M103 264q0 64 19.5 118t53.5 93.5t84.5 71.5t106.5 53t126.5 36t138.5 23.5t148 13.5q0 128 -67.5 191.5t-187.5 63.5q-62 0 -119 -13t-111 -37.5t-117 -64.5l-11 12l78 198q137 69 286 69q201 0 311.5 -113t110.5 -337v-631l-11 -11h-151l-11 11v56q-42 -31 -96 -54 t-109 -35t-104 -12q-75 0 -140 18t-116.5 53.5t-81.5 94t-30 132.5zM286 279q0 -73 53.5 -110.5t146.5 -37.5q73 0 149.5 26t144.5 71v297q-111 -6 -199.5 -23.5t-155.5 -47t-103 -74t-36 -101.5zM333 1352q0 88 66.5 150.5t159.5 62.5t159 -62.5t66 -150.5t-66 -151.5 t-159 -63.5t-159.5 63.5t-66.5 151.5zM443 1352q0 -46 34 -79.5t82 -33.5t81 33.5t33 79.5t-33 79t-81 33t-82 -33t-34 -79z" />
<glyph unicode="&#xe6;" horiz-adv-x="1871" d="M103 279q0 43 11 81.5t31.5 69.5t48.5 57.5t63.5 47t74.5 38t84 30t89 22t93 16t93 10.5t91 7q0 270 -262 270q-89 0 -167.5 -27.5t-174.5 -87.5l-11 12l78 198q137 69 284 69q138 0 232 -52.5t135 -156.5q64 98 173 153.5t240 55.5q105 0 193.5 -44t146.5 -118 t90 -169.5t32 -199.5q0 -28 -12 -56l-22 -11h-778q17 -156 126 -259.5t267 -103.5q108 0 212.5 45t187.5 125l12 -11v-178q-83 -61 -190 -103.5t-222 -42.5q-86 0 -171.5 28t-163.5 87.5t-127 141.5q-35 -65 -84 -115.5t-105 -81t-115.5 -45.5t-121.5 -15q-72 0 -135.5 18.5 t-114.5 55t-81 98t-30 141.5zM286 279q0 -72 50.5 -110t127.5 -38q84 0 157 37t117 102.5t44 141.5v97q-98 -3 -183.5 -18t-157.5 -41.5t-113.5 -70.5t-41.5 -100zM967 632h630q-8 126 -91 211t-197 85q-134 0 -226.5 -83.5t-115.5 -212.5z" />
<glyph unicode="&#xe7;" horiz-adv-x="1161" d="M120 529q0 116 42 219.5t116.5 179.5t183.5 120t236 44q210 0 361 -112v-178l-12 -11q-57 48 -114 78.5t-114.5 44.5t-120.5 14q-115 0 -206.5 -53t-141 -144t-49.5 -202t49.5 -201.5t141 -143.5t206.5 -53q95 0 180 33t169 104l12 -12v-177q-152 -113 -361 -113 q-127 0 -236 44.5t-183.5 120.5t-116.5 179t-42 219zM563 -518l63 372l23 11h153l11 -11l-108 -372l-11 -11h-120z" />
<glyph unicode="&#xe8;" horiz-adv-x="1223" d="M120 538q0 114 38 215.5t106.5 176.5t169 118.5t219.5 43.5q87 0 162 -28.5t130 -79t95 -117.5t60 -145t20 -161q0 -31 -11 -56l-23 -11h-789q7 -77 39 -143.5t83.5 -115t123.5 -76.5t155 -28q108 0 215 45.5t188 124.5l12 -11v-178q-50 -37 -110 -68t-143 -54.5 t-162 -23.5q-122 0 -230 45.5t-184 122.5t-120 182.5t-44 221.5zM286 1498l9 11h199l22 -11l311 -326l-12 -12h-153l-22 12zM304 632h642q-8 127 -91 211.5t-202 84.5q-140 0 -233 -83.5t-116 -212.5z" />
<glyph unicode="&#xe9;" horiz-adv-x="1223" d="M120 538q0 114 38 215.5t106.5 176.5t169 118.5t219.5 43.5q87 0 162 -28.5t130 -79t95 -117.5t60 -145t20 -161q0 -31 -11 -56l-23 -11h-789q7 -77 39 -143.5t83.5 -115t123.5 -76.5t155 -28q108 0 215 45.5t188 124.5l12 -11v-178q-50 -37 -110 -68t-143 -54.5 t-162 -23.5q-122 0 -230 45.5t-184 122.5t-120 182.5t-44 221.5zM304 632h642q-8 127 -91 211.5t-202 84.5q-140 0 -233 -83.5t-116 -212.5zM449 1172l310 326l23 11h198l9 -11l-353 -326l-23 -12h-153z" />
<glyph unicode="&#xea;" horiz-adv-x="1223" d="M120 538q0 114 38 215.5t106.5 176.5t169 118.5t219.5 43.5q87 0 162 -28.5t130 -79t95 -117.5t60 -145t20 -161q0 -31 -11 -56l-23 -11h-789q7 -77 39 -143.5t83.5 -115t123.5 -76.5t155 -28q108 0 215 45.5t188 124.5l12 -11v-178q-50 -37 -110 -68t-143 -54.5 t-162 -23.5q-122 0 -230 45.5t-184 122.5t-120 182.5t-44 221.5zM262 1172l286 326l22 11h135l23 -11l286 -326l-12 -12h-159l-23 12l-182 206l-183 -206l-23 -12h-159zM304 632h642q-8 127 -91 211.5t-202 84.5q-140 0 -233 -83.5t-116 -212.5z" />
<glyph unicode="&#xeb;" horiz-adv-x="1223" d="M120 538q0 114 38 215.5t106.5 176.5t169 118.5t219.5 43.5q87 0 162 -28.5t130 -79t95 -117.5t60 -145t20 -161q0 -31 -11 -56l-23 -11h-789q7 -77 39 -143.5t83.5 -115t123.5 -76.5t155 -28q108 0 215 45.5t188 124.5l12 -11v-178q-50 -37 -110 -68t-143 -54.5 t-162 -23.5q-122 0 -230 45.5t-184 122.5t-120 182.5t-44 221.5zM275 1309v22l103 105h24l103 -105v-22l-103 -106h-24zM304 632h642q-8 127 -91 211.5t-202 84.5q-140 0 -233 -83.5t-116 -212.5zM770 1309v22l104 105h22l104 -105v-22l-104 -106h-22z" />
<glyph unicode="&#xec;" horiz-adv-x="559" d="M-32 1498l10 11h179l23 -11l244 -326l-12 -12h-150l-23 12zM194 11v1036l11 12h151l11 -12v-1036l-11 -11h-151z" />
<glyph unicode="&#xed;" horiz-adv-x="559" d="M138 1172l243 326l23 11h179l10 -11l-271 -326l-23 -12h-151zM194 11v1036l11 12h151l11 -12v-1036l-11 -11h-151z" />
<glyph unicode="&#xee;" horiz-adv-x="559" d="M-52 1172l241 326l23 11h134l24 -11l240 -326l-10 -12h-159l-22 12l-140 184l-137 -184l-22 -12h-161zM194 11v1036l11 12h151l11 -12v-1036l-11 -11h-151z" />
<glyph unicode="&#xef;" horiz-adv-x="559" d="M-38 1309v22l103 105h23l106 -105v-22l-106 -106h-23zM194 11v1036l11 12h151l11 -12v-1036l-11 -11h-151zM367 1309v22l104 105h23l106 -105v-22l-106 -106h-23z" />
<glyph unicode="&#xf0;" horiz-adv-x="1331" d="M103 507q0 109 44 209t118 172.5t176.5 115.5t214.5 43q181 0 299 -73q-24 51 -50 93.5t-59.5 86t-79.5 92.5l-358 -124l-12 11v142l12 23l232 80q-95 100 -223 187l11 12h217q17 -9 33 -20t36 -27t30.5 -24.5t37 -32t35.5 -31.5l335 114l11 -10v-142l-11 -24l-208 -80 q129 -158 207.5 -340.5t78.5 -357.5q0 -131 -34.5 -239t-91 -180.5t-132 -122.5t-155 -72t-161.5 -22q-112 0 -214.5 43t-176.5 115.5t-118 173t-44 209.5zM286 507q0 -102 48.5 -188.5t133.5 -137t188 -50.5q56 0 110.5 17t105.5 54.5t90 91t62 133t23 175.5q0 59 -24 121 q-83 89 -166.5 124.5t-200.5 35.5q-103 0 -188 -50.5t-133.5 -137t-48.5 -188.5z" />
<glyph unicode="&#xf1;" d="M194 11v1036l11 12h151l11 -12v-76q44 37 95 64t110 42t118 15q245 0 367.5 -132.5t122.5 -376.5v-572l-11 -11h-150l-13 11v561q0 173 -77.5 264.5t-238.5 91.5q-96 0 -185 -43t-138 -113v-761l-11 -11h-151zM277 1212q40 97 112.5 155.5t164.5 58.5q52 0 104.5 -17 t89 -37.5t85.5 -37t95 -16.5q92 0 166 83l13 -11q-41 -97 -113.5 -155.5t-164.5 -58.5q-51 0 -103.5 17t-89 37t-85.5 37t-96 17q-94 0 -167 -83z" />
<glyph unicode="&#xf2;" d="M120 529.5q0 116.5 43 220.5t117 179t177 119t218 44q93 0 178.5 -28t153.5 -79.5t119 -120.5t78.5 -155.5t27.5 -179.5q0 -116 -43 -220.5t-117 -179.5t-177.5 -119t-219 -44t-218.5 44t-177 119t-117 179.5t-43 221zM301 529q0 -112 48.5 -203.5t134.5 -143 t191.5 -51.5t191.5 51.5t134 143t48 203.5t-48 203.5t-134 143.5t-191.5 52t-191.5 -52t-134.5 -143.5t-48.5 -203.5zM324 1498l9 11h198l23 -11l311 -326l-11 -12h-153l-23 12z" />
<glyph unicode="&#xf3;" d="M120 529.5q0 116.5 43 220.5t117 179t177 119t218 44q93 0 178.5 -28t153.5 -79.5t119 -120.5t78.5 -155.5t27.5 -179.5q0 -116 -43 -220.5t-117 -179.5t-177.5 -119t-219 -44t-218.5 44t-177 119t-117 179.5t-43 221zM301 529q0 -112 48.5 -203.5t134.5 -143 t191.5 -51.5t191.5 51.5t134 143t48 203.5t-48 203.5t-134 143.5t-191.5 52t-191.5 -52t-134.5 -143.5t-48.5 -203.5zM486 1172l312 326l22 11h199l8 -11l-354 -326l-22 -12h-153z" />
<glyph unicode="&#xf4;" d="M120 529.5q0 116.5 43 220.5t117 179t177 119t218 44q93 0 178.5 -28t153.5 -79.5t119 -120.5t78.5 -155.5t27.5 -179.5q0 -116 -43 -220.5t-117 -179.5t-177.5 -119t-219 -44t-218.5 44t-177 119t-117 179.5t-43 221zM299 1172l286 326l23 11h136l22 -11l286 -326 l-11 -12h-160l-23 12l-183 206l-181 -206l-23 -12h-160zM301 529q0 -112 48.5 -203.5t134.5 -143t191.5 -51.5t191.5 51.5t134 143t48 203.5t-48 203.5t-134 143.5t-191.5 52t-191.5 -52t-134.5 -143.5t-48.5 -203.5z" />
<glyph unicode="&#xf5;" d="M120 529.5q0 116.5 43 220.5t117 179t177 119t218 44q93 0 178.5 -28t153.5 -79.5t119 -120.5t78.5 -155.5t27.5 -179.5q0 -116 -43 -220.5t-117 -179.5t-177.5 -119t-219 -44t-218.5 44t-177 119t-117 179.5t-43 221zM262 1212q40 97 112 155.5t164 58.5q36 0 71.5 -8 t63 -20t58 -26t57 -26t59 -20t65.5 -8q93 0 167 83l11 -11q-40 -97 -112.5 -155.5t-164.5 -58.5q-52 0 -104.5 17t-88.5 37t-85.5 37t-95.5 17q-93 0 -166 -83zM301 529q0 -112 48.5 -203.5t134.5 -143t191.5 -51.5t191.5 51.5t134 143t48 203.5t-48 203.5t-134 143.5 t-191.5 52t-191.5 -52t-134.5 -143.5t-48.5 -203.5z" />
<glyph unicode="&#xf6;" d="M120 529.5q0 116.5 43 220.5t117 179t177 119t218 44q93 0 178.5 -28t153.5 -79.5t119 -120.5t78.5 -155.5t27.5 -179.5q0 -116 -43 -220.5t-117 -179.5t-177.5 -119t-219 -44t-218.5 44t-177 119t-117 179.5t-43 221zM301 529q0 -112 48.5 -203.5t134.5 -143 t191.5 -51.5t191.5 51.5t134 143t48 203.5t-48 203.5t-134 143.5t-191.5 52t-191.5 -52t-134.5 -143.5t-48.5 -203.5zM314 1309v22l103 105h22l104 -105v-22l-104 -106h-22zM808 1309v22l104 105h23l103 -105v-22l-103 -106h-23z" />
<glyph unicode="&#xf7;" horiz-adv-x="1195" d="M160 746v153l12 11h855l11 -11v-153l-11 -11h-855zM477 473v23l111 110h22l108 -110v-23l-108 -110h-22zM477 1148v24l111 110h22l108 -110v-24l-108 -110h-22z" />
<glyph unicode="&#xf8;" horiz-adv-x="1320" d="M54 30v17l153 153q-104 144 -104 329q0 78 20 151.5t55 135t86 113.5t112 87.5t134 55.5t150 20q184 0 333 -112l151 149h19l103 -102v-21l-151 -150q102 -149 102 -327q0 -116 -43.5 -220.5t-118 -179.5t-177.5 -119t-218 -44q-186 0 -331 111l-153 -152h-21zM286 529 q0 -113 50 -200l534 527q-94 72 -210 72q-106 0 -191.5 -52t-134 -143.5t-48.5 -203.5zM451 200q94 -69 209 -69q106 0 191.5 51.5t134 143t48.5 203.5q0 111 -52 196z" />
<glyph unicode="&#xf9;" d="M172 475v572l11 12h150l11 -12v-561q0 -114 33.5 -192.5t105 -120.5t179.5 -42q96 0 185 42.5t137 112.5v761l12 12h150l12 -12v-1036l-12 -11h-150l-12 11v77q-66 -56 -150 -89t-172 -33q-245 0 -367.5 132.5t-122.5 376.5zM316 1498l8 11h198l24 -11l310 -326l-11 -12 h-153l-23 12z" />
<glyph unicode="&#xfa;" d="M172 475v572l11 12h150l11 -12v-561q0 -114 33.5 -192.5t105 -120.5t179.5 -42q96 0 185 42.5t137 112.5v761l12 12h150l12 -12v-1036l-12 -11h-150l-12 11v77q-66 -56 -150 -89t-172 -33q-245 0 -367.5 132.5t-122.5 376.5zM477 1172l312 326l22 11h199l9 -11l-355 -326 l-22 -12h-154z" />
<glyph unicode="&#xfb;" d="M172 475v572l11 12h150l11 -12v-561q0 -114 33.5 -192.5t105 -120.5t179.5 -42q96 0 185 42.5t137 112.5v761l12 12h150l12 -12v-1036l-12 -11h-150l-12 11v77q-66 -56 -150 -89t-172 -33q-245 0 -367.5 132.5t-122.5 376.5zM290 1172l286 326l24 11h135l22 -11l286 -326 l-11 -12h-160l-23 12l-182 206l-183 -206l-22 -12h-161z" />
<glyph unicode="&#xfc;" d="M172 475v572l11 12h150l11 -12v-561q0 -114 33.5 -192.5t105 -120.5t179.5 -42q96 0 185 42.5t137 112.5v761l12 12h150l12 -12v-1036l-12 -11h-150l-12 11v77q-66 -56 -150 -89t-172 -33q-245 0 -367.5 132.5t-122.5 376.5zM304 1309v22l104 105h22l104 -105v-22 l-104 -106h-22zM800 1309v22l103 105h23l104 -105v-22l-104 -106h-23z" />
<glyph unicode="&#xfd;" horiz-adv-x="1206" d="M36 1047l11 12h174l22 -12l363 -738l355 738l23 12h176l12 -12l-663 -1309q-29 -53 -56 -91.5t-65 -76t-80.5 -60.5t-100.5 -37t-128 -14l-12 16v131l12 11q96 0 163.5 50.5t118.5 149.5l148 307zM417 1172l311 326l22 11h198l9 -11l-353 -326l-23 -12h-153z" />
<glyph unicode="&#xfe;" horiz-adv-x="1348" d="M194 -507v2072l11 12h151l11 -12v-594q60 56 144 88.5t179 32.5q115 0 218 -44t177 -119t117.5 -179.5t43.5 -220.5t-43.5 -220.5t-117.5 -179.5t-177 -119t-218 -44q-94 0 -178.5 33t-144.5 89v-595l-11 -11h-151zM367 286q61 -76 143.5 -115.5t179.5 -39.5 q105 0 191 51.5t134.5 143t48.5 203.5t-48.5 203.5t-134.5 143.5t-191 52q-63 0 -123 -20t-109 -54t-91 -82v-486z" />
<glyph unicode="&#xff;" horiz-adv-x="1206" d="M36 1047l11 12h174l22 -12l363 -738l355 738l23 12h176l12 -12l-663 -1309q-29 -53 -56 -91.5t-65 -76t-80.5 -60.5t-100.5 -37t-128 -14l-12 16v131l12 11q96 0 163.5 50.5t118.5 149.5l148 307zM243 1309v22l103 105h24l103 -105v-22l-103 -106h-24zM739 1309v22 l104 105h22l104 -105v-22l-104 -106h-22z" />
<glyph unicode="&#x152;" horiz-adv-x="2457" d="M126 788.5q0 111.5 30 218t84 196.5t130.5 166t168 129t199.5 82.5t221 29.5q136 0 237 -33h1055l11 -12v-150l-11 -11h-757q106 -80 179 -197t100 -252h297l11 -11v-153l-11 -11h-277q-7 -373 -299 -606h824l12 -12v-151l-12 -11h-1122q-104 -34 -237 -34 q-113 0 -221 29.5t-199.5 82.5t-168 129.5t-130.5 166.5t-84 196.5t-30 218zM324 789q0 -105 32.5 -202.5t91.5 -176.5t137 -138t174.5 -91.5t199.5 -32.5q129 0 246 51t202 136.5t135.5 204t50.5 249t-50.5 249t-135.5 204t-202 136t-245.5 50.5t-246 -50.5t-202.5 -136 t-136 -204t-51 -248.5z" />
<glyph unicode="&#x153;" horiz-adv-x="2146" d="M103 529q0 78 20 151.5t55 135t86 113.5t112 87.5t134 55.5t150 20q102 0 193 -32.5t160.5 -92t115.5 -140.5q41 82 104.5 141t151.5 91.5t192 32.5q87 0 162 -28.5t130 -79t95 -117.5t60 -145t20 -161q0 -28 -12 -56l-22 -11h-789q15 -155 128 -259t273 -104 q108 0 215 45.5t188 124.5l11 -11v-178q-50 -37 -110 -68t-142.5 -54.5t-161.5 -23.5q-158 0 -291 75t-202 202q-45 -87 -115 -149t-160 -95t-194 -33q-116 0 -219 44t-177 119t-117.5 179.5t-43.5 220.5zM286 529q0 -112 48.5 -203.5t134 -143t191.5 -51.5t191.5 51.5 t134 143t48.5 203.5t-48.5 203.5t-134 143.5t-191.5 52t-191.5 -52t-134 -143.5t-48.5 -203.5zM1228 632h642q-8 127 -91 211.5t-202 84.5q-140 0 -233 -83.5t-116 -212.5z" />
<glyph unicode="&#x178;" horiz-adv-x="1416" d="M36 1565l11 12h192l23 -12l445 -578l451 578l20 12h192l10 -12l-585 -742v-812l-11 -11h-152l-10 11v812zM322 1802v23l115 114h23l116 -114v-23l-116 -115h-23zM840 1802v23l115 114h23l116 -114v-23l-116 -115h-23z" />
<glyph unicode="&#x2c6;" d="M299 1172l286 326l23 11h136l22 -11l286 -326l-11 -12h-160l-23 12l-183 206l-181 -206l-23 -12h-160z" />
<glyph unicode="&#x2dc;" d="M262 1212q40 97 112 155.5t164 58.5q36 0 71.5 -8t63 -20t58 -26t57 -26t59 -20t65.5 -8q93 0 167 83l11 -11q-40 -97 -112.5 -155.5t-164.5 -58.5q-52 0 -104.5 17t-88.5 37t-85.5 37t-95.5 17q-93 0 -166 -83z" />
<glyph unicode="&#x2000;" horiz-adv-x="1008" />
<glyph unicode="&#x2001;" horiz-adv-x="2016" />
<glyph unicode="&#x2002;" horiz-adv-x="1008" />
<glyph unicode="&#x2003;" horiz-adv-x="2016" />
<glyph unicode="&#x2004;" horiz-adv-x="672" />
<glyph unicode="&#x2005;" horiz-adv-x="504" />
<glyph unicode="&#x2006;" horiz-adv-x="336" />
<glyph unicode="&#x2007;" horiz-adv-x="336" />
<glyph unicode="&#x2008;" horiz-adv-x="252" />
<glyph unicode="&#x2009;" horiz-adv-x="403" />
<glyph unicode="&#x200a;" horiz-adv-x="112" />
<glyph unicode="&#x2010;" horiz-adv-x="900" d="M90 453v153l11 11h699l11 -11v-153l-11 -12h-699z" />
<glyph unicode="&#x2011;" horiz-adv-x="900" d="M90 453v153l11 11h699l11 -11v-153l-11 -12h-699z" />
<glyph unicode="&#x2012;" horiz-adv-x="900" d="M90 453v153l11 11h699l11 -11v-153l-11 -12h-699z" />
<glyph unicode="&#x2013;" horiz-adv-x="1126" d="M90 453v153l11 11h924l11 -11v-153l-11 -12h-924z" />
<glyph unicode="&#x2014;" horiz-adv-x="2252" d="M90 453v153l11 11h2051l11 -11v-153l-11 -12h-2051z" />
<glyph unicode="&#x2018;" horiz-adv-x="585" d="M194 1072v190q0 156 83.5 235.5t227.5 79.5v-12q-77 -36 -107.5 -99t-30.5 -193v-201l-11 -10h-151z" />
<glyph unicode="&#x2019;" horiz-adv-x="585" d="M81 1062v10q52 25 81.5 59.5t43 90t13.5 143.5v200l11 12h151l11 -12v-189q0 -156 -83.5 -235t-227.5 -79z" />
<glyph unicode="&#x201a;" horiz-adv-x="585" d="M95 -304q51 25 80.5 59.5t43 90t13.5 143.5v200l11 11h151l12 -11v-189q0 -156 -84 -236t-227 -80v12z" />
<glyph unicode="&#x201c;" horiz-adv-x="965" d="M194 1072v190q0 156 83.5 235.5t227.5 79.5v-12q-77 -36 -107.5 -99t-30.5 -193v-201l-11 -10h-151zM572 1140v122q0 155 84.5 235t226.5 80v-12q-77 -36 -107 -99t-30 -193v-133l-11 -11h-152z" />
<glyph unicode="&#x201d;" horiz-adv-x="965" d="M81 1062v10q52 25 81.5 59.5t43 90t13.5 143.5v200l11 12h151l11 -12v-189q0 -156 -83.5 -235t-227.5 -79zM462 1129v11q76 35 107 99.5t31 193.5v132l10 12h151l11 -12v-121q0 -155 -84 -235t-226 -80z" />
<glyph unicode="&#x201e;" horiz-adv-x="965" d="M95 -304q51 25 80.5 59.5t43 90t13.5 143.5v200l11 11h151l12 -11v-189q0 -156 -84 -236t-227 -80v12zM475 -236q77 35 107.5 99t30.5 193v133l11 11h152l10 -11v-122q0 -155 -84 -235t-227 -80v12z" />
<glyph unicode="&#x2022;" horiz-adv-x="1126" d="M191 518v23l361 360h22l361 -360v-23l-361 -361h-22z" />
<glyph unicode="&#x2026;" horiz-adv-x="2252" d="M212 11v165l11 11h164l11 -11v-165l-11 -11h-164zM961 11v165l13 11h163l11 -11v-165l-11 -11h-163zM1712 11v165l12 11h164l11 -11v-165l-11 -11h-164z" />
<glyph unicode="&#x202f;" horiz-adv-x="403" />
<glyph unicode="&#x2039;" horiz-adv-x="610" d="M58 518v23l440 439l11 -11v-210l-236 -230l236 -230v-209l-11 -11z" />
<glyph unicode="&#x203a;" horiz-adv-x="610" d="M103 90v209l237 230l-237 230v210l11 11l440 -439v-23l-440 -439z" />
<glyph unicode="&#x205f;" horiz-adv-x="504" />
<glyph unicode="&#x20ac;" horiz-adv-x="1795" d="M47 512l125 150l22 11h88q-9 49 -9 116q0 28 4 92h-219l-11 11l125 151l22 11h126q41 119 118.5 221.5t179 176.5t228 116t261.5 42q307 0 540 -168v-199l-11 -11q-112 94 -249.5 145t-279.5 51q-124 0 -238 -48t-199.5 -132.5t-133.5 -193.5h874l11 -11v-151l-11 -11 h-933q-4 -64 -4 -92q0 -67 9 -116h748l11 -11v-150l-11 -12h-682q49 -103 133 -182.5t194.5 -124.5t231.5 -45q142 0 279.5 51.5t249.5 144.5l11 -11v-198q-235 -169 -540 -169q-176 0 -334.5 68.5t-272.5 189.5t-171 276h-271z" />
<glyph unicode="&#x2122;" horiz-adv-x="2182" d="M81 1415v150l11 12h789l11 -12v-150l-11 -11h-309v-671l-11 -13h-151l-12 13v671h-306zM1049 733v832l13 12h141l22 -12l293 -376l294 376l22 12h144l11 -12v-832l-11 -13h-151l-11 13v572l-286 -366h-23l-284 366v-572l-11 -13h-150z" />
<glyph unicode="&#x25fc;" horiz-adv-x="1058" d="M0 0v1059h1059v-1059h-1059z" />
<glyph unicode="&#xfb01;" horiz-adv-x="1434" d="M58 896v153l11 10h170v93q0 209 106.5 333.5t294.5 124.5q58 0 99.5 -9.5t92.5 -35.5v-170l-12 -12q-49 37 -88.5 50t-91.5 13q-107 0 -167.5 -79.5t-60.5 -226.5v-81h408l12 -12v-151l-12 -10h-408v-875l-10 -11h-152l-11 11v875h-170zM1032 1309v22l112 113h23 l112 -113v-22l-112 -113h-23zM1070 11v1036l11 12h151l11 -12v-1036l-11 -11h-151z" />
<glyph unicode="&#xfb02;" horiz-adv-x="1614" d="M58 896v153l11 10h170v93q0 209 106.5 333.5t294.5 124.5q58 0 99.5 -9.5t92.5 -35.5v-170l-12 -12q-49 37 -88.5 50t-91.5 13q-107 0 -167.5 -79.5t-60.5 -226.5v-81h408l12 -12v-151l-12 -10h-408v-875l-10 -11h-152l-11 11v875h-170zM1047 349v1216l12 12h151l11 -12 v-1204q0 -230 155 -230q105 0 194 86l12 -12v-171q-108 -68 -206 -68q-157 0 -243 98t-86 285z" />
</font>
</defs>
</svg>
